<svg width="128" height="128" viewBox="0 0 128 128" fill="none" xmlns="http://www.w3.org/2000/svg">
<path d="M91.46 12.8903C82.36 15.7103 80.2 24.9003 80.76 31.8503C81.32 38.8003 86.06 45.1803 89.21 50.0603C92.31 54.8703 97.88 62.8003 99.63 65.9203C102.96 71.8803 102.26 74.7403 102.26 74.7403C102.26 74.7403 93.63 69.7703 75.89 62.7303C63 57.6103 42.84 57.3803 31.3 59.3503C19.76 61.3203 12.62 64.0403 11.87 64.9803C11.12 65.9203 15.62 69.8603 13.47 70.7103C11.31 71.5503 6.51999 66.4403 5.29999 67.0503C3.17999 68.1103 5.48999 87.4203 12.9 99.1503C20.31 110.88 35.47 117.55 63.67 117.73C91.74 117.92 109.82 118.08 119.89 100.46C127.02 87.9803 120.55 72.2103 114.73 62.4503C108.6 52.1603 91.64 35.4003 97.37 32.6003C101.22 30.7203 106.47 35.1303 106.47 35.1303L114.07 27.3403C114.07 27.3403 114.79 23.8503 112.94 20.3903C110.75 16.2703 102.87 9.36032 91.46 12.8903Z" fill="#DCEDF5"/>
<path d="M114.97 28.9408C114.97 28.9408 115.81 35.2808 119.9 37.9508C123.59 40.3708 123.71 41.5608 123 42.8808C122.01 44.7108 117.37 44.4308 114.41 42.6008C111.45 40.7708 106.95 35.8408 106.95 35.8408L110.05 28.8008L114.97 28.9408Z" fill="#FEA6A4"/>
<path d="M107.6 29.4098C106.61 31.0098 104.83 33.2098 105.96 35.5598C106.7 37.0898 109.53 34.6198 112.58 31.6198C113.68 30.5398 117.27 27.6298 115.21 26.1298C112.96 24.4898 110.24 26.7898 110.24 26.7898C110.24 26.7898 109.58 24.1598 108.18 23.1298C106.77 22.0998 104.85 22.0998 103.96 23.0398C102.63 24.4398 103.3 26.5098 104.52 27.5398C105.52 28.3898 107.6 29.4098 107.6 29.4098Z" fill="#464B4E"/>
<path d="M67.2199 92.3499C77.0099 92.3499 88.5299 89.2999 91.3399 87.1399C91.8699 86.7399 91.9599 85.9799 91.5599 85.4599C91.1599 84.9399 90.3999 84.8399 89.8799 85.2399C87.2999 87.2199 72.1099 91.1599 62.0599 89.5999C58.5899 89.0599 56.2499 87.9299 55.0899 86.2599C53.6299 84.1499 56.8199 81.8199 56.9599 81.7299C57.4099 81.4099 57.5799 80.8299 57.3799 80.3199C57.1799 79.8099 56.6599 79.4899 56.1199 79.5699C56.0499 79.5799 49.1399 80.3299 47.8299 76.6899C47.0499 74.5399 48.7799 73.6599 49.1399 73.5099C49.6799 73.2799 49.9699 72.6899 49.8399 72.1199C49.6999 71.5499 49.1799 71.1599 48.5999 71.1999C48.5199 71.1999 40.5299 71.6299 40.1099 68.0299C39.8699 65.9599 41.4499 65.5299 41.6299 65.4899C41.7836 65.4544 41.9287 65.3891 42.0571 65.2975C42.1855 65.206 42.2946 65.09 42.3782 64.9563C42.4617 64.8226 42.5182 64.6737 42.5442 64.5182C42.5702 64.3627 42.5654 64.2035 42.5299 64.0499C42.4945 63.8962 42.4291 63.7511 42.3376 63.6227C42.246 63.4943 42.1301 63.3852 41.9963 63.3017C41.8626 63.2181 41.7137 63.1617 41.5582 63.1356C41.4027 63.1096 41.2436 63.1144 41.0899 63.1499C39.7599 63.4599 37.3299 64.9399 37.7299 68.3099C38.1899 72.1999 42.6299 73.2699 45.7299 73.5399C45.1899 74.5499 44.9899 75.8699 45.5799 77.4999C46.8299 80.9499 50.6399 81.8399 53.3899 82.0099C52.3099 83.5799 51.7399 85.6199 53.1299 87.6299C54.6799 89.8599 57.5599 91.3199 61.7099 91.9699C63.4199 92.2299 65.2799 92.3499 67.2199 92.3499Z" fill="#68A4AF"/>
<path d="M62.33 104.67C62.59 104.67 62.86 104.67 63.13 104.66C82.1 104.38 99.74 89.9803 100.48 89.3703C100.99 88.9503 101.06 88.1903 100.64 87.6803C100.22 87.1703 99.46 87.1003 98.95 87.5203C98.77 87.6603 81.21 101.99 63.09 102.26C49.29 102.5 41.77 97.0303 40.78 94.0703C40.28 92.5703 40.98 91.7203 41.01 91.6803C41.33 91.3003 41.39 90.7603 41.16 90.3303C40.93 89.9003 40.46 89.6403 39.97 89.6903C39.89 89.7003 31.82 90.5703 29.74 86.1503C28.05 82.5603 30.5 80.9903 30.6 80.9203C30.839 80.768 31.0164 80.5359 31.1007 80.2653C31.185 79.9947 31.1708 79.7029 31.0606 79.4418C30.9504 79.1806 30.7513 78.9669 30.4986 78.8385C30.2459 78.7102 29.9559 78.6754 29.68 78.7403C29.62 78.7503 23.42 80.1903 21.25 76.3203C20.7 75.3503 20.58 74.5103 20.86 73.7603C21.36 72.4503 23.08 71.5903 23.7 71.3703C24.32 71.1503 24.65 70.4703 24.44 69.8403C24.22 69.2203 23.55 68.8803 22.92 69.1003C22.79 69.1503 19.63 70.2603 18.63 72.8903C18.08 74.3203 18.26 75.8703 19.17 77.4803C21.04 80.8203 24.62 81.4403 27.24 81.4103C26.62 82.8503 26.46 84.8003 27.57 87.1703C29.62 91.5503 35.24 92.1703 38.27 92.1703C38.14 92.9203 38.17 93.8303 38.5 94.8303C39.89 98.9603 48.18 104.67 62.33 104.67Z" fill="#68A4AF"/>
<path d="M44.4091 55.3213C44.971 54.9935 47.4714 55.9862 50.8708 56.3233C54.2702 56.6511 71.9041 55.9207 71.9041 55.9207C71.9041 55.9207 72.3724 61.2492 71.2392 66.84C70.1061 72.4308 68.8418 76.0924 66.5756 76.2984C64.3093 76.4951 59.1212 77.0944 53.4555 76.6356C47.7992 76.1673 43.4727 74.4348 42.0679 71.8408C40.6632 69.2467 40.8224 65.1262 41.5341 62.3168C42.7516 57.5876 43.6131 55.7895 44.4091 55.3213Z" fill="#37B5E1"/>
<path d="M58.7934 60.3114C58.7934 60.3114 54.9351 60.5081 52.6689 59.4498C50.4026 58.3823 48.2768 56.8558 47.9397 55.9193C47.6025 54.9828 47.8085 53.7186 49.541 54.0557C51.2735 54.3929 54.3358 55.7882 56.4616 56.0504C58.5874 56.3126 62.9889 56.3876 62.9889 56.3876L66.1822 66.9042L66.2478 92.2079C66.2478 92.2079 63.916 92.2734 62.324 92.0112C60.7226 91.749 58.4001 91.2152 58.4001 91.2152L58.7934 60.3114Z" fill="#0468A6"/>
<path d="M88.0579 53.6936C88.0298 53.4876 93.4333 51.3711 94.4915 51.24C95.5123 51.1932 96.2147 51.2681 96.5612 51.4741C96.8889 51.6521 97.123 51.9611 97.2167 52.3263C97.301 52.6541 97.2541 53.0006 97.1043 53.2441C97.0668 53.3003 97.1043 53.4969 97.2167 53.5906C97.61 53.909 97.8348 54.3304 97.8722 54.7705C97.9097 55.295 97.7037 55.6134 97.3665 55.9411C97.7598 56.297 97.9471 56.503 97.9378 57.0649C97.9003 57.7673 97.3759 58.1325 97.3665 58.1044C97.3759 58.1418 97.6475 58.479 97.5445 59.0221C97.4695 59.481 96.8234 59.8837 96.2615 60.1272C95.8963 60.277 95.7558 60.2489 95.2126 60.3332C93.452 60.8295 89.2192 59.9586 89.0319 59.9212C88.8352 59.8837 88.676 59.7151 88.6666 59.5091L88.0579 53.6936Z" fill="url(#paint0_linear_77_153)"/>
<path d="M82.9635 22.8368C85.3234 19.9712 90.0339 18.145 93.5738 19.2313C97.5445 20.4488 99.3332 23.6703 99.4081 27.463C99.4362 28.8302 99.2208 30.1694 98.8556 31.0872C98.8087 31.1902 98.481 31.9955 98.4248 32.2484C98.1345 33.2317 99.9325 34.4866 100.017 35.6197C100.073 36.4719 98.2656 36.7716 98.1064 36.8933C97.3197 37.5489 97.7224 41.5663 92.9089 41.276C91.0641 41.1637 90.7737 40.6767 90.1931 40.6111C87.1402 40.274 84.7522 42.1751 84.7522 42.1751L79.9106 36.4532C79.9106 36.4532 83.0197 34.1588 82.898 33.8217C81.7648 30.5908 81.4371 24.6816 82.9635 22.8368Z" fill="#FFCA28"/>
<path d="M97.3479 38.813C96.683 38.7662 96.0556 38.5133 95.5593 38.0263C95.0067 37.4925 95.4937 37.043 96.1492 37.4364C96.5426 37.6798 97.1325 37.8484 97.6851 37.8203L97.3479 38.813Z" fill="#795548"/>
<path d="M95.1762 33.7367C94.6967 33.6563 94.408 32.9956 94.5313 32.2611C94.6546 31.5266 95.1432 30.9964 95.6227 31.0769C96.1022 31.1574 96.3909 31.8181 96.2676 32.5526C96.1443 33.2871 95.6556 33.8172 95.1762 33.7367Z" fill="#404040"/>
<path d="M96.2428 30.6758C97.0107 31.1253 97.3478 30.6383 97.1886 30.1326C97.0669 29.758 96.6361 29.3553 95.6153 29.2898C94.6507 29.2242 94.145 29.6644 93.8173 29.9172C93.4895 30.1701 93.4333 30.5072 93.6393 30.5821C93.9109 30.6851 95.2969 30.1139 96.2428 30.6758Z" fill="#6D4C41"/>
<path d="M88.0018 31.9286L87.4587 30.7019C87.1028 29.9995 86.7751 29.3721 86.1663 29.4001C84.3777 29.4657 84.1342 32.5935 86.054 33.6424C86.054 33.6424 85.3048 35.8899 83.0198 36.0866C82.7763 36.1053 82.5703 36.1053 82.383 36.096C81.7836 36.0585 81.3997 35.5247 81.3435 34.9347C81.0157 31.2169 79.6953 31.7132 79.611 27.4335C79.4986 21.5618 85.1924 18.6868 90.0996 19.1644C92.01 19.3517 93.911 19.9698 95.5124 21.0468C96.196 21.4963 98.5279 23.2662 98.8744 24.5866C99.3239 26.2629 98.1814 27.4335 98.1814 27.4335C98.1814 27.4335 93.1899 26.2161 90.7926 26.3285C90.4742 26.3472 90.1089 26.3847 89.931 26.6469C89.8467 26.7593 89.6875 27.5272 89.65 27.6677C89.2474 29.4095 89.2193 30.552 88.5075 31.5728C88.3952 31.7413 88.0018 31.9286 88.0018 31.9286Z" fill="#543930"/>
<path d="M48.3233 48.5135C48.651 46.2004 49.8123 42.9602 52.0598 41.1528C53.8953 40.7876 55.1596 42.4452 57.2292 43.8686C57.3228 43.8686 57.4165 43.8967 57.5007 43.9529C57.5007 43.9529 67.6709 49.8433 74.7694 55.9679C75.5654 56.6515 76.6424 57.6723 77.12 58.5994C77.635 59.5733 78.2531 60.8001 77.4384 62.3734C76.6236 63.9467 71.8008 69.9214 71.8008 69.9214C71.7633 70.1462 63.6347 69.781 63.6159 69.5468C63.5691 68.9662 63.6347 67.6271 65.3953 62.1487C62.4173 60.7158 52.4438 57.4756 49.1661 53.2428C48.2483 51.7818 48.0049 50.0868 48.3233 48.5135Z" fill="#C8C8C8"/>
<path d="M59.3643 71.822L64.8427 62.3261C64.9176 62.2231 65.0206 62.1388 65.1424 62.12C65.2641 62.1013 65.4046 62.12 65.4982 62.195L73.8048 68.3008C73.9078 68.3757 73.9734 68.4787 74.0015 68.6098C74.0436 68.8065 73.9921 68.8627 73.9172 68.9657L67.0996 76.9164L69.2816 80.0068C70.1525 81.3178 70.1338 83.0035 69.2441 84.2958C69.2441 84.2958 68.4575 85.5975 67.7926 85.7099C67.5117 85.7567 67.1839 85.7848 66.8187 85.4852L56.0866 77.9746C55.4592 77.5345 55.4779 76.5231 56.1522 75.1465C56.6672 74.0789 58.9054 72.1965 59.3643 71.822Z" fill="#444444"/>
<path d="M89.7062 33.8863C89.6781 37.2108 90.2119 39.2242 90.7457 40.7975C88.7979 40.657 88.2079 37.4168 87.7584 34.8227C87.3182 32.2381 87.365 29.7002 87.365 29.7002L90.4648 29.1758C90.4554 29.1851 89.7062 32.1351 89.7062 33.8863Z" fill="#2A2725"/>
<path d="M89.2847 17.0018C89.6031 16.9925 90.4272 17.0205 90.7269 17.058C92.45 17.2734 94.7069 18.0975 96.1023 19.1464C98.097 20.6541 99.7452 22.5458 101.122 24.5217C101.815 25.5144 105.458 26.1606 104.952 27.6777C103.922 30.7306 97.6849 27.9118 95.503 28.2021C93.8641 28.4175 92.3283 29.0917 90.7176 29.4289C87.8145 30.0376 84.902 30.4496 81.9521 30.7493C81.5307 30.7961 81.1186 30.7961 80.6879 30.7868C80.0323 30.768 79.2644 30.8804 79.0959 30.1593C78.9086 29.3727 78.6276 28.4175 78.5902 27.6215C78.3467 22.3023 82.5796 17.161 89.2847 17.0018Z" fill="#5D6266"/>
<path d="M88.086 53.6916C88.0579 53.4856 88.4513 52.6989 89.0974 51.519C89.6874 50.442 89.9403 50.0487 91.6259 49.6928C92.347 49.543 94.1263 49.4681 94.2012 49.7584C94.4915 50.8541 93.3303 51.2099 93.3865 51.2474C95.0909 51.2287 95.4561 51.622 95.5404 52.2682C95.6715 53.2421 95.1096 53.2515 95.1752 53.5605C95.2407 53.8789 96.0555 53.7853 96.0086 54.9839C96.0274 55.7519 95.3999 55.7706 95.4186 56.2669C95.4374 56.7633 96.2989 56.5572 96.3551 57.3907C96.4113 58.2242 95.5591 58.2335 95.5498 58.58C95.531 58.9265 96.5143 59.273 96.1491 60.0878C96.0555 60.275 95.4655 60.275 95.2126 60.3125C93.3397 60.865 89.2192 59.9379 89.0319 59.9005C88.8352 59.863 88.676 59.6944 88.6666 59.4884L88.086 53.6916Z" fill="url(#paint1_linear_77_153)"/>
<path d="M52.0035 41.1248C52.0035 41.1248 60.9843 33.7828 69.4688 32.9681C77.9533 32.1534 80.4912 32.631 81.3902 33.7735C82.2892 34.916 82.2892 37.613 83.516 39.4017C84.7428 41.1997 86.213 41.3589 86.213 41.3589C86.213 41.3589 86.0538 44.4587 85.7261 47.3149C85.3983 50.1712 84.5836 52.6154 84.5836 52.6154L88.1047 53.7579C88.1047 53.7579 88.6666 54.7319 88.8258 56.5299C88.985 58.3279 89.0599 59.9761 89.0599 59.9761C89.0599 59.9761 88.8258 60.6972 85.801 60.6972C82.7855 60.6972 77.7847 60.3507 76.97 58.9647C74.8442 55.3499 75.5185 48.2046 75.5185 48.2046C75.5185 48.2046 71.9317 49.1036 69.8902 49.3471C67.8487 49.5906 66.341 49.9746 64.5055 48.5324C63.4192 47.6708 57.9782 44.2058 56.4237 43.3911C54.8598 42.5951 52.0035 41.1248 52.0035 41.1248Z" fill="#FF8E00"/>
<defs>
<linearGradient id="paint0_linear_77_153" x1="88.3248" y1="56.444" x2="97.9453" y2="55.5094" gradientUnits="userSpaceOnUse">
<stop offset="0.19" stop-color="#FFB300"/>
<stop offset="0.936" stop-color="#FFB300"/>
</linearGradient>
<linearGradient id="paint1_linear_77_153" x1="95.5034" y1="54.5445" x2="89.2893" y2="55.9198" gradientUnits="userSpaceOnUse">
<stop offset="0.5" stop-color="#FFCA28"/>
<stop offset="0.952" stop-color="#FFCA28"/>
</linearGradient>
</defs>
</svg>
