<svg width="128" height="128" viewBox="0 0 128 128" fill="none" xmlns="http://www.w3.org/2000/svg">
<path d="M101.99 33.5795C101.99 33.5795 101.15 31.2595 99.4 28.3995C97.77 25.7395 96 25.3695 94.59 26.3995C93.18 27.4395 94.74 31.4295 94.74 31.4295L98.88 35.8695L101.99 33.5795ZM85.79 41.6495L110.34 65.6795C110.34 65.6795 107.9 68.3395 106.35 69.5295C104.8 70.7195 102.43 73.2995 102.43 73.2995L80.39 60.7995L80.09 52.5895C80.09 52.5895 82.23 50.2195 83.64 48.0795C84.64 46.5595 85.57 41.4995 85.79 41.6495ZM96.96 82.8395C97.03 83.2095 99.25 88.3895 101.62 91.8595C103.99 95.3395 107.64 100.39 108.72 103.55C109.68 106.36 110.39 112.3 104.95 113.39C98.29 114.72 96.96 109.69 96.59 107.1C96.4 105.8 93.93 102.96 92.89 101.55C91.85 100.14 87.56 95.9295 87.56 95.9295L96.96 82.8395ZM54.2 87.7995C53.98 87.8695 51.69 92.7595 51.39 93.9395C51.09 95.1195 51.32 102.3 51.61 104C51.91 105.7 56.12 108.51 55.6 111.91C55.35 113.53 53.75 114.5 50.13 114.5C46.51 114.5 41.55 114.06 41.55 114.06L37.33 98.3795L50.88 86.8395L54.2 87.7995ZM31.42 67.7595L33.05 62.5795C33.05 62.5795 28.17 64.9495 24.22 73.8695C22.61 77.5095 20.4 86.8395 15.81 86.9895C11.22 87.1395 9.59996 81.1795 9.59996 81.1795C9.59996 81.1795 3.27996 85.9895 4.01996 88.2795C4.75996 90.5695 9.37997 96.7495 16.56 96.2295C23.73 95.7095 26.15 89.6395 29.32 85.3195C32.5 80.9795 31.42 67.7595 31.42 67.7595Z" fill="#FF8F04"/>
<path d="M103.24 107.989C104.5 108.769 106.2 110.799 104.57 112.799C103.58 114.019 101.02 113.979 99.32 112.499C98.33 111.639 96.93 109.029 98.65 107.769C99.77 106.959 101.69 107.029 103.24 107.989ZM106.05 111.099C105.89 110.079 106.94 109.549 107.75 109.839C108.45 110.089 108.93 111.169 108.12 111.909C107.31 112.649 106.2 112.059 106.05 111.099Z" fill="#FD6A21"/>
<path d="M11.68 84.9897C11.68 84.9897 10.27 86.9097 8.56998 88.2397C7.09998 89.3897 4.94997 90.1597 4.94997 90.1597C4.94997 90.1597 1.24998 86.3097 1.17998 81.9497C1.12998 79.0597 3.09997 77.5097 5.98997 77.7297C8.87998 77.9497 9.31997 80.0197 9.83997 81.6497C10.31 83.1697 11.68 84.9897 11.68 84.9897ZM11.38 95.3897C11.38 95.3897 12.41 94.8497 12.76 93.8597C13.08 92.9497 12.78 91.5797 11.63 90.9797C10.5 90.3897 9.13998 90.9297 8.61998 92.0397C8.09998 93.1497 8.31998 93.6697 8.31998 93.6697C8.31998 93.6697 9.00998 94.2597 9.67998 94.6297C10.39 95.0197 11.38 95.3897 11.38 95.3897ZM19.39 84.6897C19.39 84.6897 20.99 85.6497 20.47 87.5497C20.1 88.9097 18 89.4497 17.02 88.8597C15.87 88.1697 15.81 86.9897 15.81 86.9897C15.81 86.9897 17.02 86.7897 17.81 86.1997C18.63 85.5897 19.39 84.6897 19.39 84.6897ZM22.77 77.7197C22.77 77.7197 24.03 78.0897 24.42 79.4497C24.7 80.4297 24.08 82.2997 22.4 82.2597C21.46 82.2397 20.97 82.0097 20.97 82.0097C20.97 82.0097 21.47 80.7697 21.88 79.8697C22.28 78.9997 22.77 77.7197 22.77 77.7197ZM23.58 93.1197C23.58 93.1197 23.28 92.1597 21.71 91.9897C20.38 91.8397 19.14 92.5397 18.63 93.8597C18.28 94.7497 18.48 95.9097 18.48 95.9097C18.48 95.9097 19.93 95.6097 21.34 94.8497C22.53 94.1997 23.58 93.1197 23.58 93.1197ZM99.1 34.9897C99.1 34.9897 96.09 31.2897 94.81 30.1097C93.53 28.9297 89.63 26.2097 86.62 28.2897C83.61 30.3597 83.56 35.1997 83.81 37.6097C84.08 40.1997 85.13 44.7397 85.26 45.9697C85.36 46.8597 85.68 48.8097 86.57 48.2097C87.46 47.6097 97.57 37.8097 97.57 37.8097L99.1 34.9897Z" fill="#33312E"/>
<path d="M106.5 33.5795C109.82 34.4695 111.85 36.0695 113.82 37.7995C115.79 39.5295 116.7 41.4495 117.74 41.7895C118.78 42.1395 123.68 42.9195 124.91 43.8595C126.14 44.7995 126.02 45.7795 126.02 45.7795L117.54 61.8495L109.9 66.7295C109.9 66.7295 107.83 65.1795 106.65 64.4895C105.47 63.7995 103.47 62.9395 103.47 62.9395C103.47 62.9395 99.74 63.0395 95.75 62.1495C90.67 61.0195 85.76 58.4295 85.62 50.0895C85.53 45.1295 89.47 42.1995 89.86 41.7595C90.25 41.3195 89.54 40.4895 88.87 39.6395C87.59 38.0095 84.48 33.2795 87.69 30.7595C90.9 28.2395 95.03 33.4195 95.58 33.9695C96.15 34.5395 96.62 35.6495 96.91 35.4495C97.2 35.2595 101.17 32.1495 106.5 33.5795Z" fill="#FFBA06"/>
<path d="M94.74 36.2502C94.86 36.4902 93.75 37.0002 93.06 37.6802C92.07 38.6702 91.99 39.1902 91.48 39.1102C90.49 38.9602 87.39 33.5402 88.92 32.4002C91.02 30.8402 94.39 35.5602 94.74 36.2502ZM118.97 45.3402C119.37 45.3802 125.77 47.3102 125.77 47.3102L124.24 55.8402C124.24 55.8402 126.06 61.6602 122.17 64.7202C118.27 67.7802 113.22 67.1102 111 66.9102C108.78 66.7102 109.45 65.7002 109.55 65.0102C109.65 64.3202 111.18 58.5502 112.71 56.7302C114.24 54.9102 115.52 53.5202 115.72 52.8802C115.92 52.2502 117.64 45.2002 118.97 45.3402Z" fill="#FFEACF"/>
<path d="M117.99 44.9503C117.35 45.5903 119.27 46.6803 120.8 47.8603C122.33 49.0403 123.86 50.3703 123.86 50.3703C123.86 50.3703 124.06 54.5103 122.18 55.3003C120.3 56.0903 117 55.2503 116.61 55.9903C116.22 56.7303 117.45 59.2403 120.06 59.2903C122.67 59.3403 124.55 57.0703 124.84 56.3303C125.14 55.5903 126.12 53.5703 126.62 50.3603C126.94 48.2903 126.97 45.6303 126.52 45.1803C126.07 44.7303 123.36 44.6403 122.03 44.5903C120.7 44.5403 119.22 44.6903 119.22 44.6903C119.22 44.6903 118.23 44.7003 117.99 44.9503ZM105.95 43.1703C105.95 43.1703 105.7 41.3503 107.92 41.7403C109.76 42.0703 110.82 43.8603 111.03 44.6503C111.35 45.8603 110.68 46.5203 110.68 46.5203C110.68 46.5203 112.46 48.3503 111.64 49.2103C110.56 50.3403 109.05 48.0003 109.05 48.0003C109.05 48.0003 108.63 48.7103 107.87 48.4903C106.98 48.2403 106.22 47.1303 105.18 45.9003C104.14 44.6703 102.49 44.1303 102.84 42.8703C103.29 41.2503 105.95 43.1703 105.95 43.1703Z" fill="#33312E"/>
<path d="M100.56 54.4894C99.6322 54.4894 98.88 53.7327 98.88 52.7994C98.88 51.866 99.6322 51.1094 100.56 51.1094C101.488 51.1094 102.24 51.866 102.24 52.7994C102.24 53.7327 101.488 54.4894 100.56 54.4894Z" fill="#33312E"/>
<path d="M93.7 51.0405C92.7004 51.0405 91.89 50.2435 91.89 49.2605C91.89 48.2774 92.7004 47.4805 93.7 47.4805C94.6996 47.4805 95.51 48.2774 95.51 49.2605C95.51 50.2435 94.6996 51.0405 93.7 51.0405Z" fill="#33312E"/>
<path d="M94.68 57.31C93.6804 57.31 92.87 56.5131 92.87 55.53C92.87 54.5469 93.6804 53.75 94.68 53.75C95.6796 53.75 96.49 54.5469 96.49 55.53C96.49 56.5131 95.6796 57.31 94.68 57.31Z" fill="#33312E"/>
<path d="M104.57 60.6104C103.603 60.6104 102.82 59.8358 102.82 58.8804C102.82 57.9249 103.603 57.1504 104.57 57.1504C105.536 57.1504 106.32 57.9249 106.32 58.8804C106.32 59.8358 105.536 60.6104 104.57 60.6104Z" fill="#33312E"/>
<path d="M101.15 37.9795C100.184 37.9795 99.4 37.205 99.4 36.2495C99.4 35.2941 100.184 34.5195 101.15 34.5195C102.117 34.5195 102.9 35.2941 102.9 36.2495C102.9 37.205 102.117 37.9795 101.15 37.9795Z" fill="#33312E"/>
<path d="M105.98 34.7399C105.65 35.5599 106.22 36.3598 107.11 36.7098C108.01 37.0698 109 36.9898 109.33 36.1698C109.66 35.3498 109.05 34.5599 108.15 34.1999C107.25 33.8399 106.31 33.9199 105.98 34.7399Z" fill="#33312E"/>
<path d="M80.83 51.6992C80.83 51.6992 81.5 58.4292 86.9 62.7192C92.3 67.0092 103.76 71.9692 103.76 71.9692C103.76 71.9692 100.58 75.2992 99.84 76.9292C99.1 78.5592 97.62 87.7292 94.81 91.0592C92 94.3892 86.16 98.8292 85.64 99.7892C85.12 100.749 83.79 107.039 84.9 109.259C86.01 111.479 86.38 111.399 86.38 111.399C86.38 111.399 92.16 113.489 91.34 117.389C90.3 122.269 81.43 120.199 80.25 120.129C79.07 120.059 76.48 116.949 76.48 116.949L72.86 112.589L71.38 106.299L69.6 97.8692L66.79 93.5092L60.58 91.4392L52.96 89.0692L47.86 93.9492L43.42 99.1992L42.68 103.639L42.9 107.629L45.64 113.399L46.16 117.989C46.16 117.989 45.12 120.129 43.87 120.579C42.61 121.019 36.92 121.389 34.7 119.839C32.48 118.289 31.22 114.369 31 110.889C30.78 107.409 30.78 102.309 30.56 99.7192C30.4 97.8692 31 94.9892 31 94.9892C31 94.9892 26.71 89.5892 26.49 79.1592C26.27 68.7292 30.85 63.7792 34.55 61.3292C38.25 58.8892 45.35 56.5192 53.71 55.9292C62.07 55.3392 66.21 55.9992 71.68 55.1192C77.15 54.2392 80.83 51.6992 80.83 51.6992Z" fill="#FFBA06"/>
<path d="M90.4 117.609C90.42 118.549 90.15 120.029 88.92 120.269C87.69 120.519 88.08 118.839 88.03 117.799C87.99 116.859 86.96 115.739 87.83 115.239C88.77 114.699 90.35 115.629 90.4 117.609ZM84.68 115.779C85.62 115.679 86.7 116.129 86.8 117.849C86.88 119.329 86.55 120.759 85.17 120.759C83.79 120.759 84.36 118.889 84.33 118.199C84.28 116.869 83.45 115.909 84.68 115.779ZM41.93 116.419C43.11 116.309 43.56 117.059 43.56 118.489C43.56 120.019 43.36 120.809 42.18 120.909C41 121.009 41.29 119.529 41.29 118.789C41.29 118.049 40.89 116.519 41.93 116.419ZM37.93 116.619C38.81 116.529 39.31 117.309 39.31 118.839C39.31 120.319 38.92 121.109 38.03 121.009C37.15 120.909 37.04 119.829 37.04 118.889C37.05 117.849 36.95 116.719 37.93 116.619Z" fill="#FF8F04"/>
<path d="M81.37 119.481C81.47 120.311 80.14 120.261 79.05 119.831C77.82 119.341 75.62 118.131 74.69 117.091C73.36 115.611 72.47 114.131 71.76 112.041C71.32 110.741 70.39 106.361 69.54 102.671C68.65 98.8208 67.96 97.4408 67.76 96.8008C67.41 95.6708 66.18 94.2408 66.18 94.2408C66.18 94.2408 62.04 92.8108 59.92 92.1708C57.8 91.5308 53.6101 89.8008 53.1201 90.0008C52.6301 90.2008 50.46 92.3208 48.09 94.8808C46.38 96.7308 43.85 99.9608 43.85 99.9608C43.85 99.9608 43.55 102.471 43.5 103.761C43.45 105.041 43.45 107.161 43.45 107.411C43.45 107.661 46.06 111.501 46.56 113.231C47.05 114.961 47.78 116.851 46.31 119.151C45.52 120.381 43.8001 120.881 43.5501 120.381C43.4001 120.081 44.14 119.591 44.59 119.051C45.03 118.511 45.43 117.471 45.43 116.581C45.43 114.761 44.79 113.311 44.39 112.441C43.85 111.261 42.12 108.541 41.92 107.851C41.72 107.161 41.72 104.841 41.82 103.021C41.89 101.731 42.0701 99.8108 42.3601 99.1708C42.6601 98.5308 43.7401 97.1508 46.1601 94.5308C49.8101 90.5808 51.98 88.4208 52.77 88.1708C53.56 87.9208 59.57 90.2908 60.56 90.5908C61.55 90.8908 66.92 92.5108 67.41 92.8608C67.9 93.2108 69.43 95.1308 69.97 97.0508C70.23 97.9608 71.2 101.491 71.5 102.721C71.8 103.951 73.37 110.601 73.72 111.451C74.41 113.131 75.1501 114.561 76.3301 115.691C77.2101 116.541 78.6501 117.421 79.4901 117.911C80.0401 118.221 81.28 118.641 81.37 119.481Z" fill="#FD6A21"/>
<path d="M37.39 69.479C37.39 69.479 35.21 68.419 35.27 67.059C35.32 66.009 35.76 64.749 37.59 64.689C39.12 64.639 40.59 65.429 40.75 66.959C40.9 68.439 39.27 69.429 39.27 69.429C39.27 69.429 43.17 68.419 43.02 72.069C42.97 73.359 42.57 74.319 42.06 74.979C40.33 77.199 35.95 77.049 34.05 75.149C32.89 73.989 32.67 72.589 32.92 71.349C33.49 68.399 37.39 69.479 37.39 69.479ZM47.55 62.379C47.55 62.379 45.16 62.159 45.28 60.109C45.35 58.879 46.41 58.109 48.44 58.159C50.46 58.209 51.51 59.269 51.6 60.299C51.75 62.079 49.87 62.419 49.87 62.419L50.22 63.409C50.22 63.409 51.65 61.779 52.93 62.669C54.21 63.559 54.06 67.049 51.33 68.559C49.11 69.789 45.91 69.049 44.3 67.569C43.36 66.709 42.94 65.749 42.97 64.729C43 63.369 43.51 62.909 44.35 62.539C45.23 62.149 47.11 63.159 47.11 63.159L47.55 62.379ZM31.47 78.949C31.47 78.949 32.02 78.189 32.01 77.459C32.01 76.889 31.62 76.199 30.43 76.049C29.24 75.899 28.59 77.029 28.63 77.749C28.68 78.669 29.69 79.399 29.69 79.399L29.71 80.289C29.71 80.289 28.49 80.719 28.21 81.869C27.82 83.499 30.16 85.469 32.82 84.429C34.04 83.959 34.77 82.699 34.79 81.719C34.82 80.559 33.98 79.679 33.53 79.449C32.61 78.949 31.47 78.949 31.47 78.949ZM60.22 62.579C60.22 62.579 58.79 61.989 59.09 60.509C59.39 59.029 61.41 58.569 63.08 58.729C64.56 58.879 65.89 60.649 65.25 61.939C64.61 63.219 63.67 63.269 63.67 63.269C63.67 63.269 66.27 62.999 66.43 65.189C66.58 67.159 65.35 69.629 61.15 69.779C56.96 69.929 55.73 64.159 57.06 62.879C58.26 61.729 60.22 62.579 60.22 62.579ZM71.91 72.779C71.91 72.779 68.46 72.189 69.86 69.749C70.84 68.049 75.39 69.169 75.04 71.619C74.96 72.199 74 72.789 73.54 72.899C73.22 72.969 73.93 73.519 73.93 73.519C73.93 73.519 76.27 72.879 76.96 74.529C77.85 76.649 76.37 78.939 73.8 79.659C70.42 80.599 66.97 78.719 67.04 76.089C67.12 73.269 70.12 73.669 70.12 73.669L71.91 72.779ZM88.52 71.799C88.52 71.799 89.78 71.179 89.63 69.699C89.55 68.919 88.8 68.169 87.63 68.199C84.97 68.249 84.08 69.629 84.67 71.359C84.99 72.299 87.04 72.839 87.04 72.839L86.25 73.919C86.25 73.919 84.61 73.119 83.88 74.119C83.36 74.839 83.18 76.369 84.2 77.599C84.82 78.339 86.64 79.249 89.3 78.659C91.22 78.229 92.55 77.049 93.02 75.699C93.52 74.279 93.07 72.929 92.31 72.449C90.73 71.459 88.76 72.799 88.76 72.799L88.52 71.799ZM78.12 60.899C78.12 60.899 80.49 60.309 81.13 61.439C81.77 62.569 82.02 64.889 79.45 66.219C76.89 67.549 72.6 65.619 72.4 62.969C72.25 60.999 73.53 59.119 75.21 59.169C77.48 59.239 76.84 59.709 76.84 59.709L76.99 58.819C76.99 58.819 75.46 57.489 76.84 56.349C78.22 55.219 80.69 57.089 80.59 58.319C80.49 59.549 79.11 59.799 79.11 59.799L78.12 60.899Z" fill="#33312E"/>
<path d="M85.12 73.0104C85.12 74.4704 86.0401 75.5004 87.5401 75.5004C89.0401 75.5004 90.55 74.4704 90.55 73.0104C90.55 71.5504 89.2401 70.7204 87.7401 70.7204C86.2401 70.7204 85.12 71.5504 85.12 73.0104ZM69.59 72.7804C68.91 73.9604 69.3 75.4504 70.69 76.0304C72.26 76.6804 73.6901 76.2804 74.3801 75.1004C75.0601 73.9204 74.46 72.5004 73.16 71.7504C71.86 71.0104 70.27 71.6004 69.59 72.7804ZM59.6201 62.3204C58.8401 63.6704 59.2401 65.7804 60.6601 66.5004C62.5001 67.4404 64.1901 66.6004 64.9701 65.2504C65.7501 63.9004 65.15 62.3204 63.77 61.5304C62.39 60.7304 60.4001 60.9604 59.6201 62.3204ZM74.91 59.5204C74.23 60.7004 74.6601 62.5804 75.9901 63.2704C77.7201 64.1604 79.25 63.4604 79.93 62.2804C80.61 61.1004 80.01 59.6804 78.71 58.9304C77.43 58.1904 75.6 58.3404 74.91 59.5204ZM45.5401 61.4404C44.1901 63.1804 45.15 65.0104 46.7 65.8104C48.7 66.8504 50.6701 66.4204 51.4001 65.1504C52.1301 63.8804 51.3801 61.8104 49.8701 60.9404C48.3601 60.0704 46.4401 60.2804 45.5401 61.4404ZM36.45 67.4504C34.55 68.4204 34.5201 70.2804 35.4401 71.5104C36.6301 73.1004 38.45 73.4604 39.63 72.6604C40.81 71.8704 41.1201 69.8704 40.2601 68.6004C39.4001 67.3204 37.72 66.8004 36.45 67.4504ZM29.1101 78.5104C27.9701 79.7704 28.4101 81.1304 29.3701 81.7504C30.6201 82.5504 32.0301 82.2704 32.6901 81.3404C33.3501 80.4204 33.0801 78.8804 32.1501 78.2104C31.2201 77.5504 29.8701 77.6704 29.1101 78.5104Z" fill="#D2735B"/>
<path d="M77.1247 102.497C76.8943 101.417 77.5438 100.363 78.5755 100.143C79.6071 99.9226 80.6302 100.62 80.8606 101.7C81.0911 102.781 80.4415 103.835 79.4099 104.055C78.3782 104.275 77.3551 103.577 77.1247 102.497Z" fill="#33312E"/>
<path d="M65.2275 85.0841C64.4386 84.2952 64.4355 83.0194 65.2204 82.2344C66.0054 81.4495 67.2812 81.4527 68.0701 82.2415C68.8589 83.0304 68.8621 84.3062 68.0771 85.0912C67.2921 85.8761 66.0163 85.8729 65.2275 85.0841Z" fill="#33312E"/>
<path d="M68.1914 90.5117C67.5313 89.9842 67.365 89.0949 67.8201 88.5254C68.2752 87.9558 69.1792 87.9217 69.8394 88.4492C70.4995 88.9767 70.6658 89.866 70.2107 90.4355C69.7556 91.0051 68.8515 91.0392 68.1914 90.5117Z" fill="#33312E"/>
<path d="M44.3985 83.2309C43.4579 82.4794 43.1705 81.2755 43.7566 80.542C44.3427 79.8085 45.5803 79.8232 46.5209 80.5747C47.4615 81.3263 47.7489 82.5302 47.1628 83.2637C46.5767 83.9971 45.3391 83.9825 44.3985 83.2309Z" fill="#33312E"/>
<path d="M70.2566 87.1045C70.1297 85.641 70.9412 84.3752 72.0691 84.2774C73.1971 84.1796 74.2143 85.2868 74.3412 86.7503C74.4682 88.2139 73.6567 89.4797 72.5287 89.5775C71.4008 89.6753 70.3835 88.5681 70.2566 87.1045Z" fill="#33312E"/>
<path d="M90.8059 86.5908C90.5755 85.5106 91.2251 84.4564 92.2567 84.2364C93.2884 84.0164 94.3115 84.7137 94.5419 85.794C94.7723 86.8743 94.1228 87.9284 93.0911 88.1484C92.0595 88.3685 91.0364 87.6711 90.8059 86.5908Z" fill="#33312E"/>
<path d="M78.7303 96.2251C77.6302 95.59 77.213 94.2531 77.7984 93.2391C78.3839 92.2251 79.7502 91.918 80.8503 92.5531C81.9504 93.1883 82.3676 94.5251 81.7822 95.5391C81.1967 96.5531 79.8304 96.8602 78.7303 96.2251Z" fill="#33312E"/>
<path d="M81.891 88.3944C80.7479 87.7344 80.3003 86.3697 80.8912 85.3461C81.4822 84.3226 82.8879 84.0278 84.031 84.6878C85.1741 85.3478 85.6218 86.7126 85.0308 87.7361C84.4399 88.7597 83.0341 89.0544 81.891 88.3944Z" fill="#33312E"/>
<path d="M65.91 84.1291C64.58 85.5291 65.31 87.2291 66.64 88.0991C68.36 89.2191 70.15 89.0491 70.9 87.9991C71.65 86.9491 71.11 85.0591 69.82 84.1291C68.53 83.1991 66.79 83.1991 65.91 84.1291Z" fill="#D2735B"/>
<path d="M49.5092 79.2097C49.2938 78.1997 49.9161 77.2109 50.8991 77.0012C51.8822 76.7915 52.8537 77.4404 53.0692 78.4504C53.2846 79.4605 52.6623 80.4493 51.6793 80.6589C50.6962 80.8686 49.7247 80.2198 49.5092 79.2097Z" fill="#33312E"/>
<path d="M55.6445 76.4151C54.6004 75.5808 54.285 74.2399 54.94 73.4201C55.595 72.6003 56.9725 72.6121 58.0166 73.4464C59.0608 74.2807 59.3762 75.6216 58.7212 76.4414C58.0661 77.2612 56.6887 77.2494 55.6445 76.4151Z" fill="#33312E"/>
<path d="M38.2628 84.5877C37.634 83.9589 37.7005 82.8731 38.4113 82.1623C39.1221 81.4516 40.2079 81.3851 40.8367 82.0139C41.4654 82.6426 41.3989 83.7285 40.6881 84.4393C39.9774 85.15 38.8915 85.2165 38.2628 84.5877Z" fill="#33312E"/>
<path d="M55.24 78.3104C55.77 78.1304 58.59 76.9304 60.27 78.9504C61.95 80.9704 61.6 85.3104 57.36 85.5104C53.1 85.7004 51.39 79.6404 55.24 78.3104ZM43.7 86.0004C45.12 85.6604 47.97 86.5004 47.74 88.9604C47.54 91.1004 45.66 92.1504 43.35 91.8204C40.6 91.4204 39.17 87.0804 43.7 86.0004Z" fill="#33312E"/>
<path d="M52.2901 79.8801C53.0801 81.7601 54.8801 81.9101 56.1401 81.1001C57.7801 80.0601 58.2601 78.3301 57.5901 77.1501C56.9101 75.9701 55.0001 75.5501 53.7001 76.2901C52.4001 77.0401 51.7701 78.6201 52.2901 79.8801ZM40.7401 83.0101C39.1701 84.6701 39.9801 86.6501 41.5001 87.6301C43.4601 88.9001 45.5301 88.6601 46.4201 87.4201C47.3101 86.1801 46.7301 83.9701 45.2601 82.9201C43.7901 81.8801 41.7901 81.9001 40.7401 83.0101Z" fill="#D2735B"/>
<path d="M40.9699 56.6943C41.4082 56.3678 43.5892 56.9619 46.4592 56.9242C49.3283 56.8786 63.9832 54.6129 63.9832 54.6129C63.9832 54.6129 64.8745 59.018 64.4534 63.7925C64.0323 68.5669 63.3205 71.743 61.4476 72.1278C59.5738 72.5048 55.2983 73.4924 50.5246 73.6413C45.7578 73.7814 41.9827 72.7412 40.5663 70.7071C39.1498 68.6731 38.8958 65.2178 39.2263 62.8052C39.7987 58.7422 40.3492 57.16 40.9699 56.6943Z" fill="#37B5E1"/>
<path d="M53.4487 59.5088C53.4487 59.5088 50.2456 60.0353 48.254 59.3645C46.2615 58.6859 44.3432 57.611 43.9738 56.8608C43.6044 56.1105 43.6577 55.0356 45.1359 55.1544C46.6141 55.2732 49.302 56.1507 51.1016 56.17C52.9012 56.1893 56.5832 55.8386 56.5832 55.8386L60.2371 64.3197L62.6678 85.4409C62.6678 85.4409 60.727 85.7146 59.3731 85.6452C58.0114 85.5766 56.0221 85.349 56.0221 85.349L53.4487 59.5088Z" fill="#0468A6"/>
<path d="M78.6477 56.8901C78.6233 56.7111 83.3193 54.8717 84.2389 54.7578C85.1261 54.7171 85.7364 54.7822 86.0376 54.9612C86.3224 55.1159 86.5259 55.3845 86.6073 55.7019C86.6805 55.9867 86.6398 56.2878 86.5096 56.4994C86.4771 56.5483 86.5096 56.7192 86.6073 56.8006C86.9491 57.0773 87.1444 57.4435 87.177 57.826C87.2095 58.2818 87.0305 58.5585 86.7375 58.8434C87.0793 59.1526 87.2421 59.3317 87.234 59.82C87.2014 60.4304 86.7456 60.7478 86.7375 60.7234C86.7456 60.756 86.9817 61.049 86.8921 61.521C86.827 61.9198 86.2655 62.2697 85.7771 62.4814C85.4597 62.6116 85.3377 62.5872 84.8656 62.6604C83.3355 63.0918 79.6569 62.3349 79.4941 62.3023C79.3232 62.2698 79.1848 62.1233 79.1767 61.9442L78.6477 56.8901Z" fill="url(#paint0_linear_77_159)"/>
<path d="M74.2203 30.0732C76.2712 27.5828 80.365 25.9957 83.4414 26.9398C86.8922 27.9978 88.4466 30.7975 88.5117 34.0937C88.5362 35.2819 88.349 36.4457 88.0316 37.2433C87.9909 37.3329 87.706 38.0328 87.6572 38.2525C87.4049 39.1071 88.9675 40.1977 89.0408 41.1824C89.0896 41.9231 87.5188 42.1835 87.3805 42.2893C86.6968 42.859 87.0468 46.3505 82.8635 46.0982C81.2602 46.0005 81.0079 45.5773 80.5033 45.5203C77.8501 45.2274 75.7748 46.8795 75.7748 46.8795L71.5671 41.9068C71.5671 41.9068 74.2691 39.9128 74.1633 39.6198C73.1785 36.812 72.8937 31.6765 74.2203 30.0732Z" fill="#FFCA28"/>
<path d="M86.7213 43.9569C86.1434 43.9163 85.5982 43.6965 85.1668 43.2733C84.6866 42.8094 85.1098 42.4187 85.6795 42.7606C86.0214 42.9722 86.5341 43.1187 87.0143 43.0942L86.7213 43.9569Z" fill="#795548"/>
<path d="M84.8339 39.5462C84.4172 39.4763 84.1663 38.9021 84.2735 38.2638C84.3806 37.6255 84.8053 37.1647 85.222 37.2347C85.6386 37.3046 85.8896 37.8788 85.7824 38.5171C85.6752 39.1554 85.2506 39.6162 84.8339 39.5462Z" fill="#404040"/>
<path d="M85.7608 36.886C86.4282 37.2767 86.7212 36.8535 86.5828 36.414C86.477 36.0884 86.1026 35.7385 85.2155 35.6815C84.3772 35.6245 83.9377 36.007 83.6529 36.2268C83.368 36.4465 83.3192 36.7395 83.4983 36.8046C83.7343 36.8942 84.9388 36.3977 85.7608 36.886Z" fill="#6D4C41"/>
<path d="M78.5989 37.9734L78.1269 36.9072C77.8176 36.2968 77.5327 35.7515 77.0037 35.7759C75.4492 35.8329 75.2376 38.5512 76.9061 39.4628C76.9061 39.4628 76.255 41.416 74.2691 41.5869C74.0575 41.6032 73.8785 41.6032 73.7157 41.5951C73.1948 41.5625 72.8611 41.0986 72.8123 40.5859C72.5275 37.3548 71.3799 37.7862 71.3067 34.0668C71.209 28.9639 76.1573 26.4653 80.4219 26.8804C82.0822 27.0432 83.7344 27.5803 85.1261 28.5163C85.7202 28.9069 87.7467 30.4451 88.0479 31.5927C88.4385 33.0495 87.4456 34.0668 87.4456 34.0668C87.4456 34.0668 83.1077 33.0088 81.0242 33.1065C80.7475 33.1227 80.4301 33.1553 80.2755 33.3832C80.2022 33.4808 80.0638 34.1482 80.0313 34.2703C79.6813 35.7841 79.6569 36.777 79.0384 37.6641C78.9407 37.8106 78.5989 37.9734 78.5989 37.9734Z" fill="#543930"/>
<path d="M44.1155 52.3868C44.4003 50.3766 45.4095 47.5606 47.3628 45.9899C48.9579 45.6725 50.0567 47.113 51.8553 48.3501C51.9367 48.3501 52.0181 48.3745 52.0913 48.4233C52.0913 48.4233 60.9299 53.5425 67.099 58.8652C67.7908 59.4593 68.7267 60.3464 69.1418 61.1522C69.5894 61.9986 70.1266 63.0648 69.4185 64.432C68.7105 65.7993 64.5191 70.9918 64.5191 70.9918C64.4865 71.1871 57.4221 70.8697 57.4059 70.6663C57.3652 70.1617 57.4221 68.9978 58.9522 64.2367C56.3641 62.9915 47.6965 60.1755 44.8479 56.4969C44.0503 55.2272 43.8387 53.7541 44.1155 52.3868Z" fill="#C8C8C8"/>
<path d="M53.7108 72.6445L58.4719 64.392C58.537 64.3024 58.6266 64.2292 58.7324 64.2129C58.8382 64.1966 58.9603 64.2129 59.0416 64.278L66.2606 69.5844C66.3502 69.6495 66.4071 69.739 66.4315 69.853C66.4682 70.0239 66.4234 70.0727 66.3583 70.1623L60.4334 77.072L62.3297 79.7577C63.0866 80.8971 63.0703 82.3621 62.2971 83.4852C62.2971 83.4852 61.6135 84.6165 61.0356 84.7142C60.7915 84.7549 60.5066 84.7793 60.1892 84.5188L50.8623 77.9916C50.317 77.6091 50.3333 76.7302 50.9193 75.5338C51.3669 74.606 53.312 72.9701 53.7108 72.6445Z" fill="#444444"/>
<path d="M80.0801 39.6758C80.0557 42.565 80.5196 44.3148 80.9835 45.6821C79.2907 45.56 78.7779 42.744 78.3873 40.4896C78.0048 38.2434 78.0455 36.0378 78.0455 36.0378L80.7394 35.582C80.7312 35.5902 80.0801 38.1538 80.0801 39.6758Z" fill="#2A2725"/>
<path d="M79.7138 25.0016C79.9905 24.9934 80.7067 25.0179 80.9672 25.0504C82.4647 25.2376 84.4261 25.9538 85.6387 26.8653C87.3723 28.1757 88.8047 29.8197 90.0011 31.5369C90.6033 32.3996 93.7692 32.9612 93.3298 34.2796C92.4345 36.9328 87.0142 34.4831 85.1179 34.7354C83.6936 34.9226 82.3589 35.5086 80.959 35.8016C78.436 36.3306 75.9049 36.6887 73.3412 36.9491C72.975 36.9898 72.6169 36.9898 72.2425 36.9817C71.6728 36.9654 71.0054 37.0631 70.8589 36.4364C70.6962 35.7527 70.452 34.9226 70.4195 34.2308C70.2079 29.6081 73.8865 25.1399 79.7138 25.0016Z" fill="#5D6266"/>
<path d="M78.6721 56.8871C78.6477 56.708 78.9895 56.0244 79.5511 54.9989C80.0638 54.0629 80.2836 53.7211 81.7485 53.4118C82.3752 53.2816 83.9215 53.2165 83.9866 53.4688C84.2389 54.421 83.2297 54.7303 83.2786 54.7629C84.7598 54.7466 85.0772 55.0884 85.1505 55.65C85.2644 56.4964 84.7761 56.5045 84.8331 56.7731C84.89 57.0498 85.5981 56.9684 85.5574 58.0102C85.5737 58.6776 85.0284 58.6938 85.0447 59.1252C85.0609 59.5565 85.8097 59.3775 85.8585 60.1018C85.9074 60.8262 85.1667 60.8343 85.1586 61.1354C85.1423 61.4366 85.9969 61.7377 85.6795 62.4458C85.5981 62.6085 85.0854 62.6085 84.8656 62.6411C83.2379 63.1213 79.6569 62.3155 79.4941 62.283C79.3232 62.2504 79.1848 62.1039 79.1767 61.9249L78.6721 56.8871Z" fill="url(#paint1_linear_77_159)"/>
<path d="M47.3138 45.9664C47.3138 45.9664 55.1188 39.5857 62.4924 38.8776C69.866 38.1696 72.0716 38.5846 72.8529 39.5776C73.6342 40.5705 73.6342 42.9144 74.7004 44.4689C75.7665 46.0315 77.0443 46.1699 77.0443 46.1699C77.0443 46.1699 76.9059 48.8638 76.6211 51.346C76.3362 53.8283 75.6282 55.9525 75.6282 55.9525L78.6883 56.9454C78.6883 56.9454 79.1766 57.7919 79.315 59.3545C79.4533 60.9171 79.5184 62.3495 79.5184 62.3495C79.5184 62.3495 79.315 62.9762 76.6862 62.9762C74.0655 62.9762 69.7195 62.6751 69.0114 61.4705C67.164 58.329 67.7499 52.1192 67.7499 52.1192C67.7499 52.1192 64.6328 52.9005 62.8586 53.1121C61.0844 53.3237 59.7741 53.6574 58.1789 52.4041C57.2348 51.6553 52.5063 48.644 51.1552 47.936C49.7961 47.2442 47.3138 45.9664 47.3138 45.9664Z" fill="#FF8E00"/>
<defs>
<linearGradient id="paint0_linear_77_159" x1="78.8796" y1="59.2804" x2="87.2405" y2="58.4682" gradientUnits="userSpaceOnUse">
<stop offset="0.19" stop-color="#FFB300"/>
<stop offset="0.936" stop-color="#FFB300"/>
</linearGradient>
<linearGradient id="paint1_linear_77_159" x1="85.1183" y1="57.6282" x2="79.7178" y2="58.8235" gradientUnits="userSpaceOnUse">
<stop offset="0.5" stop-color="#FFCA28"/>
<stop offset="0.952" stop-color="#FFCA28"/>
</linearGradient>
</defs>
</svg>
