<svg width="128" height="128" viewBox="0 0 128 128" fill="none" xmlns="http://www.w3.org/2000/svg">
<path d="M93.01 79.3398L98.5 82.4398C98.5 82.4398 97.94 95.5298 99.49 100.6C101.04 105.67 103.29 109.33 104.28 110.74C105.27 112.15 108.08 113.24 106.95 116.79C106.28 118.89 103.15 119.61 98.08 119.46C93.01 119.32 83.72 112.56 83.72 112.56L80.76 97.9198L63.16 104.68C63.16 104.68 63.58 106.93 63.86 107.78C64.14 108.62 65.83 111.02 65.69 112.28C65.55 113.55 63.89 114.29 55.98 114.11C48.2 113.93 46.83 104.54 46.83 104.54L53.31 90.3198L93.01 79.3398Z" fill="#04841F"/>
<path d="M107.7 11.4797C105.86 10.7097 104.37 3.82966 97.28 4.90966C90.05 6.00966 91.27 12.1797 90.52 12.9297C89.77 13.6797 84.13 15.6997 84.31 20.0597C84.5 24.3997 86.1 28.2697 90.99 29.1197C95.88 29.9697 101.41 28.1797 103.85 28.8397C106.29 29.4997 108.54 32.1697 108.07 36.4397C107.8 38.8697 105.23 51.8397 96.9 58.6797C87.42 66.4697 82.07 66.0897 70.06 66.6597C58.05 67.2197 50.21 69.1497 43.12 75.4797C38.07 79.9897 33.91 92.6297 20.97 90.0297C9.05 87.6397 15.15 75.2997 23.13 73.5097C27.73 72.4797 32.14 72.5697 32.23 70.8797C32.32 69.1897 28.89 67.4697 22.89 67.7397C15.57 68.0697 4.64 73.7497 4.82 84.6797C5 95.3097 15.05 99.5097 15.05 99.5097L27.34 102.98L40.02 105.09C40.02 105.09 39.84 107.21 38.44 109.84C37.04 112.47 35.34 117.72 36.79 120.47C37.73 122.25 40.06 122.9 46.47 122.97C51.69 123.03 56.41 122.3 56.57 120.33C56.76 117.98 55.74 117.15 54.32 116.18C52.82 115.15 53.04 114.57 52.84 113.01C52.64 111.45 52.94 108.57 53.37 107.2C53.79 105.86 55.02 103.89 55.02 103.89L77.65 104.1C77.65 104.1 78.03 104.94 78.21 108.6C78.4 112.26 77.66 117.37 78.3 118.83C79.19 120.85 81.87 122.77 88.44 122.87C95.01 122.96 99.05 121.37 98.76 117.8C98.48 114.23 95.76 113.67 94.82 112.07C93.88 110.47 91.58 104.8 91.35 102.36C91.15 100.29 91.54 97.4297 91.44 95.8397C91.34 94.2497 94.93 84.4997 94.93 84.4997C94.93 84.4997 102.44 75.0197 105.72 71.6397C108.79 68.4797 114.82 60.9397 114.82 60.9397C114.82 60.9397 123.27 47.0497 122.24 33.9097C121.21 20.7697 114.45 14.2997 107.7 11.4797Z" fill="#02AB47"/>
<path d="M115.67 32.2505C112.6 24.9505 107.01 22.8205 104.41 21.9705C101.81 21.1205 96.53 20.4205 94.27 20.0705C92.01 19.7205 84.35 19.2305 84.35 19.2305C84.35 19.2305 84.11 19.8205 84.21 21.0205C84.32 22.3605 84.77 23.0305 84.77 23.0305C84.77 23.0305 93.22 24.2305 93.22 25.7805C93.22 27.3305 90.76 27.1905 89.77 27.1905C88.78 27.1905 86.81 27.1205 86.81 27.1205C86.81 27.1205 87.27 28.4605 89.8 29.1605C92.31 29.8605 96.1 29.7905 99.27 29.9305C102.44 30.0705 104.48 30.6305 105.39 31.8305C106.31 33.0305 109.75 35.6305 107.85 49.2905C105.95 62.9505 96.55 78.1705 94.3 82.3705C93.49 83.8805 90.75 87.3305 90.6 88.6005C90.54 89.1805 91.19 90.5105 91.41 92.3305C91.67 94.5005 91.52 97.1505 91.52 97.1505C91.52 97.1505 94.56 93.1805 95.88 90.7405C97.99 86.8705 98.48 83.7405 98.48 83.7405C98.48 83.7405 109.67 72.9405 114.74 62.0205C119.81 51.1005 118.63 39.2905 115.67 32.2505Z" fill="#BDCE46"/>
<path d="M92.8 18.3799C92.77 19.9899 94.47 21.2199 96.35 20.7699C97.55 20.4899 98.28 19.4799 98.04 17.8799C97.8 16.2899 96.93 15.2299 95.47 15.0599C93.96 14.8999 92.83 16.2299 92.8 18.3799Z" fill="#303030"/>
<path d="M78.12 106.861C78.12 106.861 78.33 103.551 77.06 101.901C76.41 101.051 75.93 100.561 75.93 100.561C75.93 100.561 69.07 101.071 65.97 101.161C62.17 101.271 55.13 101.021 55.13 101.021L54.53 103.591C54.11 105.421 53.37 107.251 53.37 107.251C53.37 107.251 59.49 107.911 65.9 107.811C72.91 107.711 78.12 106.861 78.12 106.861ZM40.88 101.761C40.88 101.761 40.56 102.571 40.42 103.381C40.29 104.101 40.1 105.171 40.1 105.171C40.1 105.171 29.01 105.451 20.78 103.201C12.54 100.951 7.86 94.8507 6.91 92.9907C5.92 91.0507 5.33999 89.1507 6.37999 90.5607C8.41999 93.3407 11.91 98.0607 20.77 100.311C29.63 102.561 40.88 101.761 40.88 101.761Z" fill="#BDCE46"/>
<path d="M75.1913 77.8941C75.0066 76.6206 75.8893 75.4385 77.1628 75.2539C78.4363 75.0692 79.6184 75.9519 79.8031 77.2254C79.9877 78.4989 79.1051 79.681 77.8316 79.8656C76.5581 80.0503 75.376 79.1676 75.1913 77.8941Z" fill="#7CDB8A"/>
<path d="M65.6168 76.2194C65.3756 75.1358 65.9929 74.0765 66.9956 73.8533C67.9983 73.63 69.0067 74.3275 69.2479 75.4111C69.4891 76.4946 68.8718 77.554 67.8691 77.7772C66.8664 78.0004 65.858 77.303 65.6168 76.2194Z" fill="#7CDB8A"/>
<path d="M55.45 84.6191C54.2239 84.6191 53.23 83.5938 53.23 82.3291C53.23 81.0643 54.2239 80.0391 55.45 80.0391C56.6761 80.0391 57.67 81.0643 57.67 82.3291C57.67 83.5938 56.6761 84.6191 55.45 84.6191Z" fill="#7CDB8A"/>
<path d="M58.81 76.5903C57.8822 76.5903 57.13 75.8023 57.13 74.8303C57.13 73.8583 57.8822 73.0703 58.81 73.0703C59.7378 73.0703 60.49 73.8583 60.49 74.8303C60.49 75.8023 59.7378 76.5903 58.81 76.5903Z" fill="#7CDB8A"/>
<path d="M65.62 84.9705C64.648 84.9705 63.86 84.1332 63.86 83.1005C63.86 82.0677 64.648 81.2305 65.62 81.2305C66.592 81.2305 67.38 82.0677 67.38 83.1005C67.38 84.1332 66.592 84.9705 65.62 84.9705Z" fill="#7CDB8A"/>
<path d="M47.9 78.7698C46.9943 78.7698 46.26 77.9461 46.26 76.9298C46.26 75.9136 46.9943 75.0898 47.9 75.0898C48.8058 75.0898 49.54 75.9136 49.54 76.9298C49.54 77.9461 48.8058 78.7698 47.9 78.7698Z" fill="#7CDB8A"/>
<path d="M45.3639 87.5238C44.5491 87.4592 43.9399 86.7596 44.0033 85.9613C44.0666 85.163 44.7785 84.5683 45.5933 84.6329C46.4082 84.6976 47.0173 85.3972 46.954 86.1955C46.8906 86.9938 46.1788 87.5885 45.3639 87.5238Z" fill="#7CDB8A"/>
<path d="M84.6669 69.809C84.4617 68.8589 84.9737 67.9422 85.8104 67.7615C86.6472 67.5808 87.4919 68.2045 87.697 69.1547C87.9022 70.1048 87.3902 71.0215 86.5535 71.2022C85.7167 71.3829 84.8721 70.7591 84.6669 69.809Z" fill="#7CDB8A"/>
<path d="M72.2057 69.6819C72.019 68.8069 72.5156 67.9592 73.315 67.7887C74.1144 67.6181 74.9138 68.1891 75.1005 69.0641C75.2872 69.9391 74.7906 70.7867 73.9912 70.9573C73.1918 71.1279 72.3924 70.5569 72.2057 69.6819Z" fill="#7CDB8A"/>
<path d="M52.7924 68.705C53.1374 68.3417 55.1909 68.5722 57.7687 68.1226C60.3446 67.666 73.192 63.4661 73.192 63.4661C73.192 63.4661 74.6643 67.3841 75.0112 71.8312C75.3582 76.2783 75.2004 79.2989 73.573 79.9232C71.9436 80.5404 68.245 82.0657 63.9705 82.8926C59.7009 83.7104 56.1444 83.3005 54.56 81.6366C52.9756 79.9728 52.2215 76.8351 52.1521 74.5709C52.0495 70.7556 52.3045 69.2225 52.7924 68.705Z" fill="#37B5E1"/>
<path d="M64.4533 69.4878C64.4533 69.4878 61.6501 70.4345 59.7553 70.1062C57.8585 69.7708 55.9682 69.0606 55.5216 68.4248C55.0749 67.7889 54.9594 66.7937 56.3082 66.6892C57.6569 66.5846 60.2099 67.0022 61.8328 66.7598C63.4557 66.5174 66.7168 65.6629 66.7168 65.6629L71.2957 72.9261L76.6957 91.9784C76.6957 91.9784 74.9902 92.5104 73.7609 92.6423C72.5247 92.7761 70.6994 92.8546 70.6994 92.8546L64.4533 69.4878Z" fill="#0468A6"/>
<path d="M89.6477 65.8901C89.6233 65.7111 94.3193 63.8717 95.2389 63.7578C96.1261 63.7171 96.7364 63.7822 97.0376 63.9612C97.3224 64.1159 97.5259 64.3845 97.6073 64.7019C97.6805 64.9867 97.6398 65.2878 97.5096 65.4994C97.4771 65.5483 97.5096 65.7192 97.6073 65.8006C97.9491 66.0773 98.1444 66.4435 98.177 66.826C98.2095 67.2818 98.0305 67.5585 97.7375 67.8434C98.0793 68.1526 98.2421 68.3317 98.234 68.82C98.2014 69.4304 97.7456 69.7478 97.7375 69.7234C97.7456 69.756 97.9817 70.049 97.8921 70.521C97.827 70.9198 97.2655 71.2697 96.7771 71.4814C96.4597 71.6116 96.3377 71.5872 95.8656 71.6604C94.3355 72.0918 90.6569 71.3349 90.4941 71.3023C90.3232 71.2698 90.1848 71.1233 90.1767 70.9442L89.6477 65.8901Z" fill="url(#paint0_linear_77_138)"/>
<path d="M85.2203 39.0732C87.2712 36.5828 91.365 34.9957 94.4414 35.9398C97.8922 36.9978 99.4466 39.7975 99.5117 43.0937C99.5362 44.2819 99.349 45.4457 99.0316 46.2433C98.9909 46.3329 98.706 47.0328 98.6572 47.2525C98.4049 48.1071 99.9675 49.1977 100.041 50.1824C100.09 50.9231 98.5188 51.1835 98.3805 51.2893C97.6968 51.859 98.0468 55.3505 93.8635 55.0982C92.2602 55.0005 92.0079 54.5773 91.5033 54.5203C88.8501 54.2274 86.7748 55.8795 86.7748 55.8795L82.5671 50.9068C82.5671 50.9068 85.2691 48.9128 85.1633 48.6198C84.1785 45.812 83.8937 40.6765 85.2203 39.0732Z" fill="#FFCA28"/>
<path d="M97.7213 52.9569C97.1435 52.9163 96.5982 52.6965 96.1668 52.2733C95.6867 51.8094 96.1099 51.4187 96.6796 51.7606C97.0214 51.9722 97.5341 52.1187 98.0143 52.0942L97.7213 52.9569Z" fill="#795548"/>
<path d="M95.8339 48.5462C95.4172 48.4763 95.1663 47.9021 95.2735 47.2638C95.3806 46.6255 95.8053 46.1647 96.222 46.2347C96.6387 46.3046 96.8896 46.8788 96.7824 47.5171C96.6753 48.1554 96.2506 48.6162 95.8339 48.5462Z" fill="#404040"/>
<path d="M96.7609 45.886C97.4282 46.2767 97.7212 45.8535 97.5829 45.414C97.4771 45.0884 97.1027 44.7385 96.2156 44.6815C95.3773 44.6245 94.9378 45.007 94.653 45.2268C94.3681 45.4465 94.3193 45.7395 94.4983 45.8046C94.7343 45.8942 95.9389 45.3977 96.7609 45.886Z" fill="#6D4C41"/>
<path d="M89.5989 46.9734L89.1269 45.9072C88.8176 45.2968 88.5328 44.7515 88.0037 44.7759C86.4493 44.8329 86.2377 47.5512 87.9061 48.4628C87.9061 48.4628 87.255 50.416 85.2692 50.5869C85.0576 50.6032 84.8785 50.6032 84.7157 50.5951C84.1949 50.5625 83.8612 50.0986 83.8123 49.5859C83.5275 46.3548 82.3799 46.7862 82.3067 43.0668C82.209 37.9639 87.1573 35.4653 91.422 35.8804C93.0823 36.0432 94.7344 36.5803 96.1261 37.5163C96.7202 37.9069 98.7468 39.4451 99.0479 40.5927C99.4386 42.0495 98.4456 43.0668 98.4456 43.0668C98.4456 43.0668 94.1077 42.0088 92.0242 42.1065C91.7475 42.1227 91.4301 42.1553 91.2755 42.3832C91.2022 42.4808 91.0639 43.1482 91.0313 43.2703C90.6814 44.7841 90.6569 45.777 90.0384 46.6641C89.9407 46.8106 89.5989 46.9734 89.5989 46.9734Z" fill="#543930"/>
<path d="M55.1155 61.3868C55.4003 59.3766 56.4095 56.5606 58.3628 54.9899C59.9579 54.6725 61.0567 56.113 62.8553 57.3501C62.9367 57.3501 63.0181 57.3745 63.0913 57.4233C63.0913 57.4233 71.9299 62.5425 78.099 67.8652C78.7908 68.4593 79.7267 69.3464 80.1418 70.1522C80.5894 70.9986 81.1266 72.0648 80.4185 73.432C79.7105 74.7993 75.5191 79.9918 75.5191 79.9918C75.4865 80.1871 68.4221 79.8697 68.4059 79.6663C68.3652 79.1617 68.4221 77.9978 69.9522 73.2367C67.3641 71.9915 58.6965 69.1755 55.8479 65.4969C55.0503 64.2272 54.8387 62.7541 55.1155 61.3868Z" fill="#C8C8C8"/>
<path d="M64.7109 81.6445L69.472 73.392C69.5371 73.3024 69.6266 73.2292 69.7324 73.2129C69.8382 73.1966 69.9603 73.2129 70.0417 73.278L77.2607 78.5844C77.3502 78.6495 77.4072 78.739 77.4316 78.853C77.4682 79.0239 77.4235 79.0727 77.3584 79.1623L71.4334 86.072L73.3297 88.7577C74.0866 89.8971 74.0703 91.3621 73.2972 92.4852C73.2972 92.4852 72.6135 93.6165 72.0357 93.7142C71.7915 93.7549 71.5067 93.7793 71.1893 93.5188L61.8624 86.9916C61.3171 86.6091 61.3333 85.7302 61.9193 84.5338C62.367 83.606 64.3121 81.9701 64.7109 81.6445Z" fill="#444444"/>
<path d="M91.0802 48.6758C91.0557 51.565 91.5196 53.3148 91.9836 54.6821C90.2907 54.56 89.778 51.744 89.3873 49.4896C89.0048 47.2434 89.0455 45.0378 89.0455 45.0378L91.7394 44.582C91.7313 44.5902 91.0802 47.1538 91.0802 48.6758Z" fill="#2A2725"/>
<path d="M90.7138 34.0016C90.9905 33.9934 91.7067 34.0179 91.9672 34.0504C93.4647 34.2376 95.4261 34.9538 96.6387 35.8653C98.3723 37.1757 99.8047 38.8197 101.001 40.5369C101.603 41.3996 104.769 41.9612 104.33 43.2796C103.435 45.9328 98.0142 43.4831 96.1179 43.7354C94.6936 43.9226 93.3589 44.5086 91.959 44.8016C89.436 45.3306 86.9049 45.6887 84.3412 45.9491C83.975 45.9898 83.6169 45.9898 83.2425 45.9817C82.6728 45.9654 82.0054 46.0631 81.8589 45.4364C81.6962 44.7527 81.452 43.9226 81.4195 43.2308C81.2079 38.6081 84.8865 34.1399 90.7138 34.0016Z" fill="#5D6266"/>
<path d="M89.6721 65.8871C89.6477 65.708 89.9895 65.0244 90.5511 63.9989C91.0638 63.0629 91.2836 62.7211 92.7485 62.4118C93.3752 62.2816 94.9215 62.2165 94.9866 62.4688C95.2389 63.421 94.2297 63.7303 94.2786 63.7629C95.7598 63.7466 96.0772 64.0884 96.1505 64.65C96.2644 65.4964 95.7761 65.5045 95.8331 65.7731C95.89 66.0498 96.5981 65.9684 96.5574 67.0102C96.5737 67.6776 96.0284 67.6938 96.0447 68.1252C96.0609 68.5565 96.8097 68.3775 96.8585 69.1018C96.9074 69.8262 96.1667 69.8343 96.1586 70.1354C96.1423 70.4366 96.9969 70.7377 96.6795 71.4458C96.5981 71.6085 96.0854 71.6085 95.8656 71.6411C94.2379 72.1213 90.6569 71.3155 90.4941 71.283C90.3232 71.2504 90.1848 71.1039 90.1767 70.9249L89.6721 65.8871Z" fill="url(#paint1_linear_77_138)"/>
<path d="M58.3139 54.9664C58.3139 54.9664 66.1188 48.5857 73.4924 47.8776C80.8661 47.1696 83.0716 47.5846 83.8529 48.5776C84.6342 49.5705 84.6343 51.9144 85.7004 53.4689C86.7666 55.0315 88.0443 55.1699 88.0443 55.1699C88.0443 55.1699 87.906 57.8638 87.6211 60.346C87.3363 62.8283 86.6282 64.9525 86.6282 64.9525L89.6884 65.9454C89.6884 65.9454 90.1767 66.7919 90.315 68.3545C90.4534 69.9171 90.5185 71.3495 90.5185 71.3495C90.5185 71.3495 90.315 71.9762 87.6862 71.9762C85.0656 71.9762 80.7196 71.6751 80.0115 70.4705C78.164 67.329 78.75 61.1192 78.75 61.1192C78.75 61.1192 75.6329 61.9005 73.8587 62.1121C72.0844 62.3237 70.7741 62.6574 69.1789 61.4041C68.2349 60.6553 63.5063 57.644 62.1553 56.936C60.7961 56.2442 58.3139 54.9664 58.3139 54.9664Z" fill="#FF8E00"/>
<defs>
<linearGradient id="paint0_linear_77_138" x1="89.8796" y1="68.2804" x2="98.2405" y2="67.4682" gradientUnits="userSpaceOnUse">
<stop offset="0.19" stop-color="#FFB300"/>
<stop offset="0.936" stop-color="#FFB300"/>
</linearGradient>
<linearGradient id="paint1_linear_77_138" x1="96.1183" y1="66.6282" x2="90.7178" y2="67.8235" gradientUnits="userSpaceOnUse">
<stop offset="0.5" stop-color="#FFCA28"/>
<stop offset="0.952" stop-color="#FFCA28"/>
</linearGradient>
</defs>
</svg>
