<svg width="128" height="128" viewBox="0 0 128 128" fill="none" xmlns="http://www.w3.org/2000/svg">
<path d="M112.27 37.1699C112.15 36.9999 111.75 33.9199 107.85 30.0799C103.95 26.2399 100.53 27.1199 98.61 27.4599C96.69 27.7999 93.79 27.3999 91.87 27.5199C89.95 27.6399 85.59 31.4099 83.91 32.5199C82.22 33.6199 78.85 35.5399 77.69 37.5799C76.53 39.6099 75.13 46.8199 75.13 46.8199C75.13 46.8199 85.88 49.0299 86 48.6199C86.12 48.2099 112.27 37.1699 112.27 37.1699Z" fill="#523730"/>
<path d="M66.45 90.77C66.45 90.77 63.52 91.03 59.91 90.86C56.29 90.69 49.15 88.19 49.15 88.19C49.15 88.19 49.32 95.16 49.41 96.54C49.5 97.92 49.58 100.16 51.3 102.48C53.02 104.8 55 107.04 56.47 108.16C57.93 109.28 59.74 109.62 61.38 111.17C63.02 112.72 63.92 115.59 63.92 115.59L56.22 116.89C56.22 116.89 54.75 115.87 53.46 114.67C52.17 113.47 50.62 109.7 48.3 106.95C45.98 104.2 42.36 100.24 41.41 97.22C40.46 94.21 39.52 91.02 38.05 88.87C36.59 86.72 25.22 76.73 25.22 76.73L42.26 66.5L69.72 80.62L66.45 90.77ZM87.18 68.81L90.04 73.02L90.27 81.06C90.27 81.06 92.14 81.24 94.67 81.77C97.21 82.31 99.4 83.03 100.43 83.15C102.02 83.34 103.4 82.44 105.09 83.71C106.78 84.98 106.83 86.25 106.5 88.64C106.15 91.2 105.88 92.12 106.04 94.06C106.21 96.05 108.38 98.98 107.69 102.78C107 106.58 105.73 107.66 105.73 107.66L100.51 104.78L100.13 102.09C100.13 102.09 99.57 101.45 99.66 99.07C99.79 95.44 100.15 90.7 99.84 90.51C99.53 90.32 93.33 90.65 88.57 90.61C83.81 90.57 83.15 90.53 82.58 90.11C82 89.69 81.2 87.73 81.2 87.73C81.2 87.73 79.32 89.84 78.28 90.11C77.24 90.38 72.58 87.34 72.58 87.34L78.61 70.61L87.18 68.81Z" fill="#A95531"/>
<path d="M62.47 112.599L55.95 116.639C55.95 116.639 55.9 117.299 55.95 117.909C56.02 118.699 56.25 119.509 56.25 119.509C56.25 119.509 57.09 120.539 60.8 121.439C64.16 122.259 65.9 121.669 66.08 121.059C66.39 120.039 65.89 117.589 65.18 116.109C64.09 113.829 62.47 112.599 62.47 112.599ZM106.78 106.139C106.78 106.139 104.37 105.689 103.1 104.729C101.55 103.569 100.05 102.009 100.05 102.009C100.05 102.009 99.24 102.459 98.83 102.819C98.42 103.179 97.97 103.459 97.97 104.949C97.97 106.449 98.65 108.719 99.47 110.399C100.29 112.079 101.15 113.219 101.92 113.129C102.69 113.039 103.74 111.629 104.74 110.449C106.4 108.489 106.78 106.139 106.78 106.139ZM26.46 56.4891C26.46 56.4891 23.46 55.0191 20.27 56.9391C17.08 58.8591 13.44 65.8691 10.7 66.1291C7.96003 66.3891 6.03003 61.2691 3.17003 64.0191C1.38003 65.7391 3.81003 71.6691 7.32003 75.6291C10.28 78.9691 13.25 81.1191 16.89 79.1391C20.53 77.1591 20.78 67.9791 20.78 67.9791L26.46 56.4891Z" fill="#523730"/>
<path d="M49.81 105.761C49.81 105.761 49.12 103.231 46.28 101.541C43.44 99.8509 43.05 100.541 41.06 99.2409C39.06 97.9309 37.07 96.4809 36.68 95.6309C36.3 94.7909 36.37 90.8709 37.6 87.8009C38.83 84.7309 38.6 73.0609 38.6 73.0609C38.6 73.0609 44.44 81.7409 49.35 84.6509C54.26 87.5609 57.49 87.2609 60.33 86.1909C63.17 85.1109 64.78 80.5809 65.4 81.1209C66.01 81.6609 65.02 85.7309 64.94 87.9509C64.86 90.1809 64.48 91.9409 67.55 93.4009C70.62 94.8609 72.62 95.8609 74.08 96.7009C75.54 97.5409 79.07 100.081 79.07 100.081C79.07 100.081 76.77 100.921 75.15 100.691C73.54 100.461 71.77 100.081 71.77 100.081L66.78 101.921L67.86 106.831C67.86 106.831 69.01 108.601 71.85 108.671C74.69 108.751 75.38 107.441 78.07 106.831C80.76 106.221 84.52 106.601 85.44 106.291C86.36 105.981 87.69 104.331 87.82 103.301C88.29 99.5409 88.36 98.0009 87.59 97.0809C86.82 96.1609 84.52 95.1609 83.98 94.6209C83.44 94.0809 81.29 91.3909 79.99 90.1709C78.68 88.9409 77.38 87.6409 77.46 86.7909C77.54 85.9509 85.91 71.4309 87.83 71.5909C89.75 71.7409 87.29 78.0409 86.45 79.9609C85.61 81.8809 83.07 84.6409 83.69 85.4909C84.3 86.3309 87.3 85.1809 89.83 82.1909C92.36 79.2009 91.83 75.8909 91.83 72.2809C91.83 68.6709 91.98 67.9809 92.52 66.4409C93.06 64.9009 93.67 63.8309 94.59 62.2909C95.51 60.7509 99.2 54.0709 99.2 54.0709L108.8 59.9109L109.88 62.3709C109.88 62.3709 111.42 65.1309 112.8 65.9809C114.18 66.8209 124.76 62.2909 124.3 59.8209C123.98 58.1009 122.7 55.7609 121.63 54.1509C120.56 52.5409 119.79 51.2309 119.33 50.4609C118.87 49.6909 116.97 44.6709 115.34 41.3209C113.47 37.4909 113.27 37.0209 111.04 35.8709C108.81 34.7209 107.2 34.3309 107.2 34.3309L105.36 33.1809C105.36 33.1809 103.98 32.5709 102.52 32.1809C101.06 31.7909 98.3 30.4909 96.76 29.6509C95.22 28.8109 95.13 27.8809 94.44 27.8809C93.75 27.8809 93.08 28.6509 94.07 30.5709C95.07 32.4909 97.36 34.4309 97.36 34.4309L96.87 35.3509L94.3 35.2509C94.3 35.2509 91.15 36.5609 88.92 38.3209C86.69 40.0909 84.93 41.5509 84.93 41.5509L79.09 49.4609L66.27 51.5309L58.59 58.7509L41.93 56.8309L40.55 52.5309C40.55 52.5309 34.43 51.1909 31.26 51.6909C26.87 52.3709 19.67 58.9109 19.59 68.5809C19.51 78.2609 23.58 83.0909 24.35 84.4009C25.12 85.7109 28.04 89.3109 28.5 92.2309C28.96 95.1509 28.73 97.6809 28.96 98.9109C29.19 100.141 29.8 101.291 31.72 101.981C33.64 102.671 36.29 103.121 38.09 104.211C40.78 105.821 40.46 106.711 41.62 107.741C42.93 108.891 43.92 109.281 43.92 109.281L49.81 105.761Z" fill="#D17858"/>
<path d="M94.57 62.2998C94.57 62.2998 94.4701 57.4798 94.9901 52.7498C95.3401 49.5498 97 44.4098 97 44.4098C97 44.4098 99.14 51.2098 101.32 52.4898C103.5 53.7698 109.4 58.0098 109.4 58.0098C109.4 58.0098 110.08 59.5498 110.04 60.5298C110 61.5098 110.04 62.6698 110.04 62.6698L107.43 60.3998C107.43 60.3998 100.35 56.5998 99.48 56.9398C97.82 57.5798 94.57 62.2998 94.57 62.2998ZM100.17 35.0898C100.17 35.0898 96.83 33.1698 96.24 32.7398C95.64 32.3098 94.0401 30.5898 94.0401 30.5898C94.0401 30.5898 94.83 32.6998 95.17 33.2498C95.51 33.8098 95.81 34.6998 95.21 34.9598C94.61 35.2198 94.2701 35.2698 94.2701 35.2698C94.2701 35.2698 95 35.9398 96.92 35.8998C98.84 35.8598 100.17 35.0898 100.17 35.0898Z" fill="#A95531"/>
<path d="M49.81 105.759C49.81 105.759 50.97 107.029 51.59 110.249C52.17 113.229 51.99 115.039 51.38 115.279C50.03 115.799 47.38 114.399 46.04 113.579C44.69 112.759 43.08 111.319 42.84 110.929C42.6 110.539 42.65 109.509 42.65 109.509L42.76 108.389C42.76 108.389 44.85 108.029 46.24 107.489C47.4723 107.004 48.6658 106.426 49.81 105.759ZM71.77 100.079C71.77 100.079 70.29 101.929 69.5 103.409C68.71 104.889 67.85 106.839 67.85 106.839C67.85 106.839 65.74 106.409 63.84 104.999C62.7 104.149 61.43 103.039 61.39 102.449C61.36 101.859 63.49 100.279 65.32 99.1793C67.15 98.0793 68.11 97.4193 68.77 97.3893C69.42 97.3593 70.46 98.4193 70.84 98.7993C71.22 99.1693 71.77 100.079 71.77 100.079Z" fill="#523730"/>
<path d="M40.0399 52.1597C40.6399 51.8097 43.3099 52.8697 46.9399 53.2297C50.5699 53.5797 69.3999 52.7997 69.3999 52.7997C69.3999 52.7997 69.8999 58.4897 68.6899 64.4597C67.4799 70.4297 66.1299 74.3397 63.7099 74.5597C61.2899 74.7697 55.7499 75.4097 49.6999 74.9197C43.6599 74.4197 39.0399 72.5697 37.5399 69.7997C36.0399 67.0297 36.2099 62.6297 36.9699 59.6297C38.2699 54.5797 39.1899 52.6597 40.0399 52.1597Z" fill="#37B5E1"/>
<path d="M55.4 57.4895C55.4 57.4895 51.28 57.6995 48.86 56.5695C46.44 55.4295 44.17 53.7995 43.81 52.7995C43.45 51.7995 43.67 50.4495 45.52 50.8095C47.37 51.1695 50.64 52.6595 52.91 52.9395C55.18 53.2195 59.88 53.2995 59.88 53.2995L63.29 64.5295L63.36 91.5495C63.36 91.5495 60.87 91.6195 59.17 91.3395C57.46 91.0595 54.98 90.4895 54.98 90.4895L55.4 57.4895Z" fill="#0468A6"/>
<path d="M119.3 50.4794L121.21 53.5994C121.21 53.5994 124.63 58.4494 124.34 60.6094C123.97 63.3994 122.56 64.3694 121.46 65.2494C119.71 66.6394 117.39 66.1794 117.39 66.1794C117.39 66.1794 117.29 67.1594 115.79 67.2094C114.3 67.2594 112.65 66.2294 111.72 65.1494C110.79 64.0694 109.86 62.3894 109.86 62.3894L107.44 60.4094C107.44 60.4094 103.84 53.4094 109.25 49.8494C114.66 46.2894 118.11 47.5294 118.11 47.5294C118.11 47.5294 118.95 49.8194 119.3 50.4794Z" fill="url(#paint0_radial_79_27)"/>
<path d="M119.85 57.5403C121.09 57.4903 121.56 58.9603 121.61 60.4003C121.66 61.8403 121.15 63.1303 120.27 63.2303C119.39 63.3303 118.47 62.3303 118.52 60.1903C118.56 58.6503 118.99 57.5803 119.85 57.5403ZM118.64 66.2503C118.64 66.2503 116.61 65.0003 115.58 62.6003C114.93 61.0903 114.51 59.9003 113.78 59.3803C113.26 59.0103 112.32 58.9903 112.39 60.3503C112.46 61.6403 113.73 63.7003 114.26 64.6603C115.23 66.3903 116.37 66.9803 116.67 67.0203C116.97 67.0603 117.36 66.5003 117.58 66.3903C117.8 66.2803 118.64 66.2503 118.64 66.2503Z" fill="#523730"/>
<path d="M109.26 42.6891C110.04 43.5291 109.84 45.1591 108.82 46.0291C107.8 46.9091 106.37 46.6691 105.68 46.0891C104.99 45.5091 104.94 43.7791 105.98 42.8391C106.96 41.9391 108.66 42.0391 109.26 42.6891ZM107.59 34.3191C107.59 34.3191 106.76 33.4891 106.4 33.3591C106.04 33.2291 105.41 33.0391 105.41 33.0391L97.09 38.6691L98.47 40.6291L107.59 34.3191ZM119.3 50.4791C119.3 50.4791 119.26 49.9391 119.06 49.4591C118.86 48.9791 118.53 48.4991 118.53 48.4991C118.53 48.4991 116.08 48.1791 110.57 53.0791C107.03 56.2291 106.22 60.0191 106.22 60.0191C106.22 60.0191 106.36 60.6691 106.96 61.0391C107.3 61.2491 108.07 61.1291 108.07 61.1291C108.07 61.1291 109.33 57.9891 112.05 55.1591C115.43 51.6291 119.3 50.4791 119.3 50.4791Z" fill="#2A2725"/>
<path d="M81.28 45.0699C81.25 44.8499 87.02 42.5899 88.15 42.4499C89.24 42.3999 89.99 42.4799 90.36 42.6999C90.71 42.8899 90.96 43.2199 91.06 43.6099C91.15 43.9599 91.1 44.3299 90.94 44.5899C90.9 44.6499 90.94 44.8599 91.06 44.9599C91.48 45.2999 91.72 45.7499 91.76 46.2199C91.8 46.7799 91.58 47.1199 91.22 47.4699C91.64 47.8499 91.84 48.0699 91.83 48.6699C91.79 49.4199 91.23 49.8099 91.22 49.7799C91.23 49.8199 91.52 50.1799 91.41 50.7599C91.33 51.2499 90.64 51.6799 90.04 51.9399C89.65 52.0999 89.5 52.0699 88.92 52.1599C87.04 52.6899 82.52 51.7599 82.32 51.7199C82.11 51.6799 81.94 51.4999 81.93 51.2799L81.28 45.0699Z" fill="url(#paint1_linear_79_27)"/>
<path d="M75.84 12.1204C78.36 9.06044 83.39 7.11045 87.17 8.27045C91.41 9.57045 93.32 13.0104 93.4 17.0604C93.43 18.5204 93.2 19.9504 92.81 20.9304C92.76 21.0404 92.41 21.9004 92.35 22.1704C92.04 23.2204 93.96 24.5604 94.05 25.7704C94.11 26.6804 92.18 27.0004 92.01 27.1304C91.17 27.8304 91.6 32.1204 86.46 31.8104C84.49 31.6904 84.18 31.1704 83.56 31.1004C80.3 30.7404 77.75 32.7704 77.75 32.7704L72.58 26.6604C72.58 26.6604 75.9 24.2104 75.77 23.8504C74.56 20.4004 74.21 14.0904 75.84 12.1204Z" fill="#FFCA28"/>
<path d="M91.2001 29.1801C90.4901 29.1301 89.8201 28.8601 89.2901 28.3401C88.7001 27.7701 89.2201 27.2901 89.9201 27.7101C90.3401 27.9701 90.9701 28.1501 91.5601 28.1201L91.2001 29.1801Z" fill="#795548"/>
<path d="M88.8811 23.7608C88.3691 23.6748 88.0608 22.9694 88.1924 22.185C88.3241 21.4007 88.8459 20.8346 89.3579 20.9205C89.8699 21.0065 90.1782 21.712 90.0465 22.4963C89.9148 23.2806 89.393 23.8467 88.8811 23.7608Z" fill="#404040"/>
<path d="M90.02 20.4909C90.84 20.9709 91.2 20.4509 91.03 19.9109C90.9 19.5109 90.44 19.0809 89.35 19.0109C88.32 18.9409 87.78 19.4109 87.43 19.6809C87.08 19.9509 87.02 20.3109 87.24 20.3909C87.53 20.5009 89.01 19.8909 90.02 20.4909Z" fill="#6D4C41"/>
<path d="M81.22 21.8292L80.64 20.5192C80.26 19.7692 79.91 19.0992 79.26 19.1292C77.35 19.1992 77.09 22.5392 79.14 23.6592C79.14 23.6592 78.34 26.0592 75.9 26.2692C75.64 26.2892 75.42 26.2892 75.22 26.2792C74.58 26.2392 74.17 25.6692 74.11 25.0392C73.76 21.0692 72.35 21.5992 72.26 17.0292C72.14 10.7592 78.22 7.68916 83.46 8.19916C85.5 8.39916 87.53 9.05916 89.24 10.2092C89.97 10.6892 92.46 12.5792 92.83 13.9892C93.31 15.7792 92.09 17.0292 92.09 17.0292C92.09 17.0292 86.76 15.7292 84.2 15.8492C83.86 15.8692 83.47 15.9092 83.28 16.1892C83.19 16.3092 83.02 17.1292 82.98 17.2792C82.55 19.1392 82.52 20.3592 81.76 21.4492C81.64 21.6292 81.22 21.8292 81.22 21.8292Z" fill="#543930"/>
<path d="M38.85 39.5397C39.2 37.0697 40.44 33.6097 42.84 31.6797C44.8 31.2897 46.15 33.0597 48.36 34.5797C48.46 34.5797 48.56 34.6097 48.65 34.6697C48.65 34.6697 59.51 40.9597 67.09 47.4997C67.94 48.2297 69.09 49.3197 69.6 50.3097C70.15 51.3497 70.81 52.6597 69.94 54.3397C69.07 56.0197 63.92 62.3997 63.92 62.3997C63.88 62.6397 55.2 62.2497 55.18 61.9997C55.13 61.3797 55.2 59.9497 57.08 54.0997C53.9 52.5697 43.25 49.1097 39.75 44.5897C38.77 43.0297 38.51 41.2197 38.85 39.5397Z" fill="#C8C8C8"/>
<path d="M50.64 64.4297L56.49 54.2897C56.57 54.1797 56.68 54.0897 56.81 54.0697C56.94 54.0497 57.09 54.0697 57.19 54.1497L66.06 60.6697C66.17 60.7497 66.24 60.8597 66.27 60.9997C66.315 61.2097 66.26 61.2697 66.18 61.3797L58.9 69.8697L61.23 73.1697C62.16 74.5697 62.14 76.3697 61.19 77.7497C61.19 77.7497 60.35 79.1397 59.64 79.2597C59.34 79.3097 58.99 79.3397 58.6 79.0197L47.14 70.9997C46.47 70.5297 46.49 69.4497 47.21 67.9797C47.76 66.8397 50.15 64.8297 50.64 64.4297Z" fill="#444444"/>
<path d="M83.04 23.9206C83.01 27.4706 83.58 29.6206 84.15 31.3006C82.07 31.1506 81.44 27.6906 80.96 24.9206C80.49 22.1606 80.54 19.4506 80.54 19.4506L83.85 18.8906C83.84 18.9006 83.04 22.0506 83.04 23.9206Z" fill="#2A2725"/>
<path d="M82.59 5.89061C82.93 5.88061 83.81 5.91061 84.13 5.95061C85.97 6.18061 88.38 7.06061 89.87 8.18061C92 9.79061 93.76 11.8106 95.23 13.9206C95.97 14.9806 99.86 15.6706 99.32 17.2906C98.22 20.5506 91.56 17.5406 89.23 17.8506C87.48 18.0806 85.84 18.8006 84.12 19.1606C81.02 19.8106 77.91 20.2506 74.76 20.5706C74.31 20.6206 73.87 20.6206 73.41 20.6106C72.71 20.5906 71.89 20.7106 71.71 19.9406C71.51 19.1006 71.21 18.0806 71.17 17.2306C70.91 11.5506 75.43 6.06061 82.59 5.89061Z" fill="#5D6266"/>
<path d="M81.31 45.0695C81.28 44.8495 81.7 44.0095 82.39 42.7495C83.02 41.5995 83.29 41.1795 85.09 40.7995C85.86 40.6395 87.76 40.5595 87.84 40.8695C88.15 42.0395 86.91 42.4195 86.97 42.4595C88.79 42.4395 89.18 42.8595 89.27 43.5495C89.41 44.5895 88.81 44.5995 88.88 44.9295C88.95 45.2695 89.82 45.1695 89.77 46.4495C89.79 47.2695 89.12 47.2895 89.14 47.8195C89.16 48.3495 90.08 48.1295 90.14 49.0195C90.2 49.9095 89.29 49.9195 89.28 50.2895C89.26 50.6595 90.31 51.0295 89.92 51.8995C89.82 52.0995 89.19 52.0995 88.92 52.1395C86.92 52.7295 82.52 51.7395 82.32 51.6995C82.11 51.6595 81.94 51.4795 81.93 51.2595L81.31 45.0695Z" fill="url(#paint2_linear_79_27)"/>
<path d="M42.78 31.6491C42.78 31.6491 52.37 23.8091 61.43 22.9391C70.49 22.0691 73.2 22.5791 74.16 23.7991C75.12 25.0191 75.12 27.8991 76.43 29.8091C77.74 31.7291 79.31 31.8991 79.31 31.8991C79.31 31.8991 79.14 35.2091 78.79 38.2591C78.44 41.3091 77.57 43.9191 77.57 43.9191L81.33 45.1391C81.33 45.1391 81.93 46.1791 82.1 48.0991C82.27 50.0191 82.35 51.7791 82.35 51.7791C82.35 51.7791 82.1 52.5491 78.87 52.5491C75.65 52.5491 70.31 52.1791 69.44 50.6991C67.17 46.8391 67.89 39.2091 67.89 39.2091C67.89 39.2091 64.06 40.1691 61.88 40.4291C59.7 40.6891 58.09 41.0991 56.13 39.5591C54.97 38.6391 49.16 34.9391 47.5 34.0691C45.83 33.2191 42.78 31.6491 42.78 31.6491Z" fill="#FF8E00"/>
<path d="M96.07 34.7091C96.68 35.2291 100.34 41.6491 103.1 45.6391C105.57 49.2191 110.04 55.1391 110.04 55.1391L107.71 57.3491C107.71 57.3491 86.9 44.8691 86.41 44.5291C85.92 44.1991 85.14 43.3791 85.83 42.4691C86.48 41.6091 87.45 42.0191 88.14 42.4391C88.75 42.8091 105.38 53.1791 105.38 53.1791C105.38 53.1791 102.16 48.9591 98.96 43.9791C95.97 39.3291 94.02 36.0791 93.74 35.5291C93.65 35.3591 94.01 34.6991 94.62 34.5291C95.07 34.4091 95.87 34.5391 96.07 34.7091Z" fill="#2A2725"/>
<defs>
<radialGradient id="paint0_radial_79_27" cx="0" cy="0" r="1" gradientTransform="matrix(-4.85128 -8.17163 -9.11528 5.41101 119.297 62.4517)" gradientUnits="userSpaceOnUse">
<stop offset="0.671" stop-color="#FFB169"/>
<stop offset="1" stop-color="#FFB169" stop-opacity="0"/>
</radialGradient>
<linearGradient id="paint1_linear_79_27" x1="81.565" y1="48.0069" x2="91.838" y2="47.0089" gradientUnits="userSpaceOnUse">
<stop offset="0.19" stop-color="#FFB300"/>
<stop offset="0.936" stop-color="#FFB300"/>
</linearGradient>
<linearGradient id="paint2_linear_79_27" x1="89.2305" y1="45.9802" x2="82.5948" y2="47.4488" gradientUnits="userSpaceOnUse">
<stop offset="0.5" stop-color="#FFCA28"/>
<stop offset="0.952" stop-color="#FFCA28"/>
</linearGradient>
</defs>
</svg>
