<svg width="128" height="128" viewBox="0 0 128 128" fill="none" xmlns="http://www.w3.org/2000/svg">
<path d="M64.99 99.8691C64.99 99.8691 68.8 109.559 70.88 113.209C72.52 116.089 79.15 116.869 83.2 117.909C86.72 118.809 91.28 118.789 91.72 120.769C92.16 122.759 90.66 123.809 87.1 123.939C83.53 124.069 57.73 123.939 55.92 123.939C54.11 123.939 52.8 121.629 56.52 119.079C59.79 116.839 61.05 116.649 59.73 113.749C58.41 110.839 52.28 101.349 52.28 101.349L64.99 99.8691Z" fill="#E8A631"/>
<path d="M95.4 20.9905C95.4 20.9905 93.26 23.8805 93.46 26.5205C93.59 28.2205 93.46 30.8305 101.68 34.2205C111.64 38.3305 116.63 42.7605 116.56 50.5605C116.46 61.5105 109.88 67.1505 106.96 69.3305C104.04 71.5105 105.51 77.6405 98.04 84.8905C87.34 95.2805 81.39 93.9405 75.85 96.4105C73.76 97.3405 73.49 97.3905 70.96 100.93C69.01 103.66 64.72 108.01 58.85 108.01C51.3 108.01 50.15 101.65 47.2 100.27C44.25 98.8905 23.12 97.1005 20.72 79.6105C18.84 65.9105 34.2 44.4805 59.17 38.9605C70.38 36.4805 77.52 39.6505 81.33 40.6005C82.25 40.8305 84.52 41.7605 84.52 41.7605C85.23 39.9105 81.98 38.1505 79.65 36.0305C76.97 33.5905 73.93 30.9505 72.46 28.3405C65.03 15.0705 76.06 0.930459 89.3 4.59046C94.02 5.89046 95.4 20.9905 95.4 20.9905Z" fill="#78A3AD"/>
<path d="M36.37 50.1291C36.37 50.1291 37.98 43.8791 33.32 40.9691C29.95 38.8491 26.24 39.1491 23.84 41.5991C22.57 40.5091 21.21 39.4191 19.59 39.0091C15.02 37.8291 10.17 39.0091 7.88003 43.3291C4.77003 49.1891 7.49003 52.2591 11.23 55.8191C11.23 55.8191 6.72003 57.8491 6.55003 65.0991C6.40003 71.5191 8.77003 78.1591 17.92 80.7491C21.48 81.7591 31.84 82.4691 35.79 75.0191C37.69 71.4291 36.05 69.2991 35.24 68.2791C32.49 64.8091 28.1 66.5991 28.1 66.5991C27.72 56.3191 36.37 50.1291 36.37 50.1291Z" fill="#E0E0E0"/>
<path d="M14.64 66.3905C14.64 59.7605 21.36 59.8105 21.36 59.8105C21.36 59.8105 16.27 61.5205 18.82 66.4005C20.18 69.0105 24.26 68.1705 26.22 66.1505C27.27 65.0705 28.55 61.9005 28.55 61.9005C28.55 61.9005 28.1 64.7505 28.1 66.5705C28.1 66.5705 32.49 64.7705 35.24 68.2505C35.38 68.4205 35.54 68.6405 35.71 68.8805C32.38 65.7705 28.99 68.3205 27.11 70.4705C24.78 73.1405 21.89 73.2505 19.74 72.7805C17.23 72.2305 14.64 70.3405 14.64 66.3905ZM10.77 55.8305C3.09002 51.0705 7.87003 43.3105 7.87003 43.3105C7.87003 43.3105 6.51002 49.0305 10.59 51.4005C12.95 52.7705 16.82 52.5505 17.54 48.5805C18 46.0405 15.1 44.8705 15.1 44.8705C15.1 44.8705 17.3 44.3105 19.08 45.7305C21.2 47.4205 21.68 50.4605 20.34 52.8205C18.34 56.3605 14.03 57.4705 10.77 55.8305Z" fill="#BDBDBD"/>
<path d="M55.2 79.5609C53.71 76.5809 50.46 71.9409 53.65 64.7609C54.19 63.5409 55.25 63.1809 55.3 64.4009C55.35 65.6209 54.58 68.3109 54.58 69.9409C54.58 71.3809 54.45 73.1309 55.37 74.2809C55.62 74.5909 58.03 73.8009 61.11 68.9009C61.33 68.5409 62.03 67.4409 62.59 67.8809C62.7 67.9609 63.2 68.8109 62.05 71.5209C60.63 74.8609 56.73 76.3309 58.17 81.6509C58.34 82.2809 62.03 80.7209 64.93 76.3309C65.56 75.3709 66.05 74.6509 66.76 74.8109C67.48 74.9609 66.89 76.9709 66.45 78.0109C65.16 81.0809 63.29 82.5009 61.42 83.6209C57.56 85.9209 56.96 88.1809 57.07 88.5509C57.18 88.9209 62.16 90.6409 67.22 86.2409C73.82 80.5009 73.45 71.2709 73.61 68.6409C73.82 65.0509 73.57 62.1009 76.47 59.2709C78.03 57.7509 80.42 57.7809 81.07 57.9309C81.36 58.0009 81.8 58.3509 81.8 58.8009C81.8 59.1109 81.59 59.5809 80.95 59.7709C77.98 60.6709 76.72 61.9009 76.7 68.8209C76.63 88.0809 65.61 91.7809 59.91 92.0109C56.39 92.1509 53.51 90.4509 53.32 89.7009C53.13 88.9609 54.3 87.6409 54.85 86.1209C56.46 81.8009 55.38 79.9009 55.2 79.5609Z" fill="#546E7A"/>
<path d="M107.29 7.07954C102.94 8.70954 99.53 9.54954 96.62 8.82954C94.11 8.19954 90.82 3.45954 88.1 5.44954C87.23 6.07954 86.49 6.86954 85.9 7.76954C84.08 10.5395 83.22 13.2295 83.51 17.2795C83.6 18.5495 85.24 27.0995 90.9 27.5195C92.94 27.6695 94.88 26.6295 96.39 25.2495C97.9 23.8695 99.22 22.5495 101.8 20.9595C105.35 18.7695 108.71 18.4595 112.62 16.9995L107.29 7.07954Z" fill="#E0E0E0"/>
<path d="M112.67 5.38908C110.77 4.81908 107.68 5.15908 105.55 7.52908C100.23 13.4791 105.94 18.8491 109.05 18.9791C113.22 19.1591 113.71 17.9591 116.05 17.1891C117.89 16.5891 119.2 17.4891 120.48 18.2391C121.15 18.6291 122.03 18.0391 121.83 17.2891C119.62 9.26908 116.46 6.51908 112.67 5.38908Z" fill="#E8A631"/>
<path d="M89.3784 14.9131C88.5179 13.7292 88.5484 12.2404 89.4464 11.5878C90.3443 10.9351 91.7698 11.3658 92.6303 12.5497C93.4907 13.7336 93.4603 15.2224 92.5623 15.8751C91.6643 16.5277 90.2388 16.097 89.3784 14.9131Z" fill="#212121"/>
<path d="M96.8 17.9792C98.51 17.3492 105.7 15.5392 110.83 15.2392C115.33 14.9792 118.3 17.0692 118.43 17.1192C118.58 17.1792 118.7 17.2692 118.8 17.3692C118.04 17.0792 117.2 16.9392 116.18 17.1592C114.99 16.7992 113.2 16.4292 111.02 16.5792C105.86 16.9292 95.27 20.0392 95.16 20.0692C95.08 20.0892 93.45 20.7292 93.56 20.1692C93.55 20.1792 93.57 19.1692 96.8 17.9792Z" fill="#424242"/>
<path d="M40.1938 46.5032C40.4532 45.983 42.8082 45.4999 45.5141 44.0865C48.2153 42.6661 61.0368 33.4813 61.0368 33.4813C61.0368 33.4813 63.9972 37.2344 65.8893 41.968C67.7813 46.7016 68.6302 50.0576 67.0374 51.3219C65.4399 52.5791 61.8561 55.5687 57.3968 58.0014C52.9399 60.4224 48.8576 61.2472 46.5369 59.9966C44.2162 58.746 42.3166 55.5884 41.4722 53.14C40.0652 49.009 39.8283 47.2431 40.1938 46.5032Z" fill="#37B5E1"/>
<path d="M53.3891 43.1873C53.3891 43.1873 50.6018 45.2245 48.3896 45.5438C46.1728 45.8562 43.8362 45.7568 43.1254 45.222C42.4147 44.6873 41.9493 43.6414 43.4093 43.0447C44.8693 42.4479 47.8416 41.9905 49.5588 41.1451C51.2761 40.2996 54.6024 38.1993 54.6024 38.1993L62.1412 44.4949L74.5865 63.3744C74.5865 63.3744 72.8758 64.5658 71.5575 65.1497C70.2322 65.7383 68.2349 66.4771 68.2349 66.4771L53.3891 43.1873Z" fill="#0468A6"/>
<path d="M74.6752 37.5382C74.6456 37.3547 79.4264 35.3453 80.3689 35.2049C81.2798 35.1407 81.9089 35.1922 82.2229 35.3686C82.5197 35.5204 82.7356 35.7913 82.8273 36.1155C82.9098 36.4065 82.8756 36.7171 82.7471 36.9379C82.7148 36.9889 82.7526 37.1638 82.8551 37.245C83.2134 37.5208 83.4235 37.8923 83.4666 38.2847C83.5116 38.7524 83.3345 39.0414 83.0406 39.3416C83.3998 39.6509 83.5716 39.8308 83.5756 40.333C83.5575 40.9613 83.0971 41.2991 83.0881 41.2742C83.0973 41.3074 83.3473 41.6027 83.2672 42.0902C83.2103 42.5017 82.6419 42.8757 82.1453 43.1055C81.8223 43.2474 81.6962 43.2254 81.2128 43.3126C79.6509 43.7947 75.8502 43.1097 75.6821 43.0803C75.5056 43.0512 75.3596 42.9041 75.3467 42.7202L74.6752 37.5382Z" fill="url(#paint0_linear_77_2)"/>
<path d="M69.4461 10.0842C71.4915 7.47226 75.6595 5.73737 78.8458 6.63009C82.4198 7.63047 84.0885 10.4692 84.2388 13.8558C84.2939 15.0767 84.1309 16.2778 83.8248 17.1057C83.7852 17.1987 83.5101 17.9254 83.4655 18.1525C83.2277 19.0374 84.8616 20.1189 84.9618 21.1294C85.0307 21.8895 83.4226 22.1969 83.283 22.3092C82.5947 22.9121 83.0427 26.4923 78.7361 26.3387C77.0855 26.2789 76.8154 25.8502 76.2953 25.8044C73.5605 25.5703 71.4689 27.3211 71.4689 27.3211L67.0179 22.3157C67.0179 22.3157 69.745 20.1977 69.6289 19.8991C68.5456 17.0377 68.123 11.7658 69.4461 10.0842Z" fill="#FFCA28"/>
<path d="M82.6477 24.0405C82.0527 24.0133 81.4866 23.8012 81.0325 23.377C80.5271 22.9123 80.9523 22.5 81.5466 22.837C81.9033 23.0459 82.4341 23.1835 82.9271 23.1463L82.6477 24.0405Z" fill="#795548"/>
<path d="M80.5959 19.5522C80.1658 19.4909 79.8934 18.907 79.9874 18.2481C80.0814 17.5892 80.5063 17.1048 80.9364 17.1662C81.3665 17.2276 81.639 17.8115 81.545 18.4704C81.4509 19.1292 81.026 19.6136 80.5959 19.5522Z" fill="#404040"/>
<path d="M81.4816 16.795C82.1775 17.1797 82.468 16.7373 82.3146 16.289C82.1977 15.957 81.804 15.6067 80.8906 15.5706C80.0274 15.5332 79.5853 15.9375 79.2981 16.1706C79.0108 16.4037 78.968 16.7061 79.1537 16.7685C79.3986 16.8546 80.6243 16.3138 81.4816 16.795Z" fill="#6D4C41"/>
<path d="M74.1469 18.0943L73.6348 17.0102C73.3014 16.3906 72.9948 15.8372 72.4516 15.8757C70.8551 15.9736 70.7063 18.7732 72.4444 19.6681C72.4444 19.6681 71.8245 21.6924 69.7875 21.9183C69.5704 21.9404 69.3863 21.9449 69.2188 21.9407C68.6825 21.9204 68.3278 21.4519 68.2646 20.9261C67.8901 17.6119 66.7214 18.0843 66.5521 14.2628C66.3227 9.01968 71.3462 6.32618 75.7406 6.64506C77.4514 6.77042 79.1633 7.28082 80.6176 8.20776C81.2382 8.59432 83.3603 10.1243 83.6988 11.2963C84.1372 12.784 83.1423 13.8549 83.1423 13.8549C83.1423 13.8549 78.6563 12.8769 76.5171 13.03C76.233 13.0537 75.9076 13.0952 75.7544 13.3334C75.6815 13.4356 75.5562 14.1251 75.5258 14.2514C75.2043 15.8164 75.2043 16.8377 74.5909 17.7652C74.4942 17.9183 74.1469 18.0943 74.1469 18.0943Z" fill="#543930"/>
<path d="M39.0637 33.7835C39.3057 31.7099 40.2719 28.7897 42.2401 27.1256C43.8718 26.759 45.0377 28.2121 46.9179 29.4383C47.0016 29.4362 47.0858 29.4593 47.1624 29.5076C47.1624 29.5076 56.3775 34.5465 62.8536 39.8621C63.5797 40.4553 64.5643 41.3436 65.0113 42.1614C65.4928 43.0201 66.0719 44.1025 65.3786 45.5259C64.6853 46.9494 60.508 52.3929 60.508 52.3929C60.4795 52.5946 53.2096 52.4468 53.1877 52.2381C53.1331 51.7204 53.1623 50.5226 54.6148 45.5897C51.9229 44.3751 42.9417 41.6995 39.9205 37.99C39.0685 36.705 38.8138 35.1961 39.0637 33.7835Z" fill="#C8C8C8"/>
<path d="M49.4394 54.3625L54.125 45.7588C54.1897 45.6651 54.2799 45.5876 54.3882 45.5682C54.4966 45.5488 54.6225 45.5624 54.7078 45.6273L62.2627 50.8996C62.3564 50.9642 62.4172 51.0548 62.4452 51.1713C62.4872 51.3461 62.4424 51.3974 62.3777 51.4911L56.4618 58.7438L58.479 61.4567C59.2859 62.6088 59.3062 64.1151 58.5398 65.2892C58.5398 65.2892 57.8656 66.4694 57.2741 66.5844C57.0241 66.6324 56.7319 66.6647 56.399 66.405L46.6464 59.9311C46.0762 59.5516 46.0707 58.6477 46.6428 57.403C47.0795 56.438 49.0377 54.7072 49.4394 54.3625Z" fill="#444444"/>
<path d="M75.7126 19.8072C75.7605 22.7778 76.2816 24.5648 76.7931 25.9586C75.0498 25.8759 74.4516 22.9942 73.993 20.6866C73.543 18.3872 73.5291 16.1189 73.5291 16.1189L76.2868 15.5823C76.2786 15.5909 75.6741 18.2427 75.7126 19.8072Z" fill="#2A2725"/>
<path d="M74.9652 4.7316C75.2494 4.71624 75.9863 4.72324 76.2548 4.75012C77.7989 4.90469 79.8333 5.59134 81.1029 6.4977C82.918 7.80084 84.432 9.45461 85.7052 11.1896C86.3461 12.0612 89.6148 12.5585 89.1963 13.9249C88.3431 16.6749 82.7093 14.2937 80.7664 14.601C79.307 14.8294 77.9498 15.4655 76.5182 15.8021C73.938 16.4097 71.3452 16.8417 68.7164 17.1743C68.341 17.2254 67.9729 17.2344 67.5878 17.2355C67.0018 17.2332 66.3182 17.3504 66.1518 16.7099C65.9672 16.0113 65.6952 15.1641 65.6442 14.4538C65.3099 9.70715 68.9785 5.02112 74.9652 4.7316Z" fill="#5D6266"/>
<path d="M74.7002 37.5363C74.6706 37.3529 75.0047 36.6415 75.556 35.5732C76.0595 34.5981 76.2767 34.2411 77.7748 33.8862C78.4157 33.7365 80.0036 33.6305 80.077 33.8882C80.3604 34.8607 79.3308 35.2041 79.3818 35.2363C80.904 35.1821 81.239 35.5255 81.3284 36.1009C81.467 36.9681 80.9652 36.9888 81.0306 37.2635C81.0961 37.5465 81.8219 37.4449 81.8064 38.5168C81.84 39.2024 81.2799 39.233 81.3075 39.676C81.3352 40.119 82.1003 39.916 82.1688 40.6593C82.2373 41.4027 81.4762 41.4298 81.4755 41.7395C81.4663 42.0495 82.3524 42.3374 82.044 43.0733C81.9645 43.2427 81.4374 43.2557 81.2123 43.2947C79.5512 43.8294 75.8497 43.0917 75.6816 43.0623C75.5051 43.0332 75.3592 42.8861 75.3463 42.7022L74.7002 37.5363Z" fill="url(#paint1_linear_77_2)"/>
<path d="M42.1892 27.1018C42.1892 27.1018 50.0511 20.3454 57.6129 19.4312C65.1748 18.5169 67.4526 18.8879 68.2808 19.8888C69.1091 20.8897 69.1683 23.2992 70.3036 24.8702C71.439 26.4495 72.756 26.5595 72.756 26.5595C72.756 26.5595 72.6819 29.3322 72.4518 31.8911C72.2218 34.45 71.5476 36.6514 71.5476 36.6514L74.7184 37.5948C74.7184 37.5948 75.2417 38.4525 75.4235 40.0553C75.6052 41.6581 75.7083 43.1289 75.7083 43.1289C75.7083 43.1289 75.515 43.7783 72.8127 43.8447C70.1188 43.911 65.6436 43.7113 64.8853 42.491C62.9068 39.3083 63.3522 32.9101 63.3522 32.9101C63.3522 32.9101 60.1677 33.792 58.3492 34.0544C56.5307 34.3168 55.1922 34.6929 53.5208 33.4448C52.5314 32.699 47.5945 29.723 46.1878 29.0293C44.7731 28.3525 42.1892 27.1018 42.1892 27.1018Z" fill="#FF8E00"/>
<defs>
<linearGradient id="paint0_linear_77_2" x1="74.974" y1="39.9895" x2="83.5481" y2="38.9432" gradientUnits="userSpaceOnUse">
<stop offset="0.19" stop-color="#FFB300"/>
<stop offset="0.936" stop-color="#FFB300"/>
</linearGradient>
<linearGradient id="paint1_linear_77_2" x1="81.3454" y1="38.1353" x2="75.8241" y2="39.5005" gradientUnits="userSpaceOnUse">
<stop offset="0.5" stop-color="#FFCA28"/>
<stop offset="0.952" stop-color="#FFCA28"/>
</linearGradient>
</defs>
</svg>
