<svg width="128" height="128" viewBox="0 0 128 128" fill="none" xmlns="http://www.w3.org/2000/svg">
<path d="M85.97 78.3505L91.65 80.6506C91.65 80.6506 88.08 96.2306 88.58 101.161C89.08 106.091 89.71 109.961 90.97 111.651C92.23 113.341 92.31 114.611 92.1 115.101C91.89 115.591 89.99 117.141 85.06 116.931C80.13 116.721 79.85 114.541 79.43 113.411C79.01 112.281 80.35 105.321 79.99 101.021C79.64 96.7305 78.65 94.1906 78.58 91.6606C78.51 89.1306 78.23 85.5406 78.23 85.5406L85.97 78.3505ZM61.26 81.7306L61.4 90.1105C61.4 90.1105 57.67 89.3406 53.73 89.8306C49.79 90.3206 45.07 93.1405 44.72 93.1405C44.37 93.1405 41.9 90.8905 41.9 90.8905C41.9 90.8905 40.42 98.4905 40.35 100.961C40.28 103.421 40.35 106.801 40.98 108.561C41.61 110.321 42.79 112.551 42.25 113.281C41.72 113.981 37.11 114.551 35.25 114.051C31.81 113.141 30.99 112.261 30.89 110.641C30.8 109.231 31.21 104.271 31.35 102.161C31.49 100.051 32.27 94.9805 32.19 93.3605C32.12 91.7405 30.64 83.9305 30.64 83.9305L32.54 72.8105L61.26 81.7306ZM12.83 80.0406C12.83 80.0406 13.75 83.8405 12.69 88.1305C11.85 91.5305 9.16999 93.6905 8.03999 95.5905C6.90999 97.4905 5.64999 101.011 4.86999 100.941C3.95999 100.861 4.02999 92.2805 5.35999 87.9905C6.68999 83.7005 10.92 79.3306 10.92 79.3306L12.83 80.0406Z" fill="#51362F"/>
<path d="M119.61 15.2092L115.74 25.6992L106.87 29.4992L103 25.2092C103 25.2092 108.32 22.6792 110.25 20.9192C112.64 18.7392 113.77 16.5592 113.49 15.4292C113.21 14.2992 112.03 14.4492 112.08 13.4592C112.15 12.1892 114.68 11.6992 114.68 11.6992L119.61 15.2092Z" fill="#F6C519"/>
<path d="M111.38 33.3709C111.38 33.3709 116.69 28.8709 119.12 25.7709C121.61 22.5909 122.36 19.6509 122.15 17.1109C121.94 14.5709 120.24 11.7009 116.59 11.4109C113.99 11.2009 112.37 12.5409 112.47 12.8209C112.59 13.1309 116.17 13.2409 116.38 15.9209C116.58 18.3909 115.54 20.8509 112.65 23.3809C109.76 25.9109 103.85 28.4509 103.85 28.4509L111.38 33.3709Z" fill="#B48958"/>
<path d="M100.33 21.9004C104.37 22.3704 104.2 25.5604 106.38 26.6904C108.56 27.8204 110.11 28.2404 111.59 29.9304C113.07 31.6204 112.72 33.0304 113.98 34.2204C115.24 35.4104 119.75 39.7104 120.1 40.9104C120.45 42.1104 114.61 55.0604 113.48 56.3304C112.35 57.6004 107.5 57.8804 107.5 57.8804C107.5 57.8804 104.75 61.8904 102.15 62.8104C99.55 63.7304 97.5 63.5804 97.5 63.5804C97.5 63.5804 97.99 68.3004 96.51 72.7304C95.03 77.1604 92.57 81.8804 87.78 85.1904C82.99 88.5004 74.27 89.9104 74.27 89.9104C74.27 89.9104 71.74 97.2304 71.81 100.47C71.88 103.71 72.37 106.98 72.58 108.78C72.7 109.83 74.76 115.89 74.27 116.95C73.78 118.01 71.21 120.33 68.11 120.47C65.01 120.61 61.6 117.69 61.46 116.63C61.32 115.57 63.08 106.95 63.15 104.28C63.22 101.61 61.33 92.5603 60.9 90.8403C60.48 89.1503 59.7 86.8304 59.7 86.8304C59.7 86.8304 53.36 87.3904 47.59 85.9104C41.82 84.4304 37.95 81.9704 37.95 81.9704C37.95 81.9704 38.87 76.5504 37.11 76.4804C35.35 76.4104 35.48 80.3304 34.51 84.0804C33.35 88.5504 30.92 92.8804 29.51 96.2604C28.1 99.6404 26.84 104.43 27.05 107.1C27.26 109.77 30.57 114.42 29.94 115.9C29.31 117.38 26.84 117.59 24.8 117.52C22.76 117.45 19.56 116.89 18.96 115.97C18.32 114.99 18.75 107.52 18.4 105.76C18.05 104 16.25 97.6703 16.32 95.2703C16.39 92.8703 21.42 92.8104 21 84.5004C20.53 75.2804 17.41 67.9604 17.41 67.9604C17.41 67.9604 16.59 72.6403 15.65 75.7003C14.88 78.2303 12.48 82.6704 11 81.9604C9.52002 81.2604 11.39 79.9204 12.48 73.4404C13.27 68.7304 14.66 56.6204 14.94 54.2204C15.22 51.8204 15.87 49.5704 16.42 48.7304C18.1 46.1504 20.5 44.9304 22.4 43.4504C24.3 41.9704 26.86 40.2704 28.52 40.0004C32.38 39.3704 39.43 40.3504 44.71 40.1404C50 39.9204 56.9 39.3604 59.85 38.6504C62.8 37.9404 63.79 37.2404 63.79 37.2404C63.79 37.2404 75.76 29.4303 78.5 27.8103C81.25 26.1903 85.19 24.2903 88.07 24.6403C90.95 24.9903 95.47 21.3404 100.33 21.9004Z" fill="#865B52"/>
<path d="M74.99 87.6397C74.99 87.6397 76.12 84.1197 75.27 80.7397C74.51 77.6897 71.52 75.2397 73.86 74.6897C75.65 74.2697 77.64 76.3697 78.22 79.8297C79 84.4097 74.99 87.6397 74.99 87.6397ZM91.04 55.6897C90.28 56.6197 83.86 55.3397 81.82 52.7997C79.78 50.2697 80.76 43.1597 81.05 41.6797C81.33 40.1997 81.82 37.8097 81.82 37.8097C81.82 37.8097 77.81 36.0497 77.74 35.2097C77.67 34.3697 80.06 27.7497 86.19 27.6097C92.31 27.4697 98.09 25.2897 98.23 27.9597C98.37 30.6297 96.4 33.3097 92.39 33.1697C88.38 33.0297 87.89 30.2097 85.7 30.4197C83.51 30.6297 80.28 33.3797 80.7 33.7997C81.12 34.2197 90.27 33.2397 90.13 35.2097C89.99 37.1797 85.77 37.5297 85.48 37.9597C85.2 38.3797 82.81 46.8297 84.14 49.7197C85.48 52.5897 91.67 54.9097 91.04 55.6897Z" fill="#51362F"/>
<path d="M109.06 14.3698C109.06 14.3698 100.4 15.6398 98.15 18.7298C95.9 21.8198 94.21 28.1198 90.97 27.9498C86.99 27.7398 86.43 27.5598 86.57 23.4798C86.71 19.3998 89.91 14.0098 94.14 11.6198C98.37 9.22979 103.84 10.0498 106.25 10.9198C108.77 11.8298 110.39 13.9498 109.06 14.3698Z" fill="#F7C515"/>
<path d="M109.62 13.8797C109.96 14.6297 105.77 16.0297 104.34 16.9097C101.03 18.9497 98.92 21.3397 98.5 24.5797C98.08 27.8197 97.57 28.6897 95.83 29.7197C93.44 31.1297 89.71 30.1897 88.51 29.1897C86.19 27.2497 86.73 26.3297 86.57 25.4897C86.5 25.0997 88.82 27.4997 90.69 26.9697C92.38 26.4897 93.22 25.3497 93.51 24.4697C93.93 23.1697 94.92 18.9397 97.38 16.6197C99.84 14.2997 108.7 11.8297 109.62 13.8797Z" fill="#B48958"/>
<path d="M99.76 35.6997C99.02 37.4197 99.41 39.6397 101.7 39.8497C103.13 39.9797 104.38 38.8597 104.83 37.0897C105.27 35.3197 104.5 33.5997 103.11 33.2497C101.71 32.8997 100.48 34.0197 99.76 35.6997Z" fill="#0C090C"/>
<path d="M114.97 46.4005C114.97 46.4005 113.9 38.2305 119.02 39.7105C121.2 40.3405 123.77 44.6705 123.74 46.0805C123.68 48.6405 122.61 53.0105 119.38 54.9105C118.02 55.7105 116.18 56.1105 115.68 56.3205C115.19 56.5305 113.46 57.2405 112.76 56.7805C111.62 56.0405 111.35 54.1005 111.74 51.1805C112.22 47.4505 114.97 46.4005 114.97 46.4005Z" fill="#BE9079"/>
<path d="M122.22 46.5C121.48 45.46 120.88 43.51 119.44 44.18C118 44.85 119.02 47.26 119.93 48.23C120.95 49.32 122.74 49.98 123.1 49.07C123.42 48.26 122.99 47.59 122.22 46.5ZM122.25 50.73C122.81 51.31 121.72 52.77 119.68 53.51C117.64 54.25 114.21 53.82 114.44 52.38C114.62 51.25 116.27 51.68 118.03 51.57C120.35 51.43 121.27 49.7 122.25 50.73Z" fill="#2C2F33"/>
<path d="M35.8188 38.7483C36.2803 38.3948 38.6082 38.9952 41.6599 38.9138C44.7105 38.8241 60.2631 36.2037 60.2631 36.2037C60.2631 36.2037 61.2744 40.8756 60.8952 45.9592C60.516 51.0428 59.8048 54.4307 57.8186 54.8669C55.8313 55.2948 51.2985 56.4066 46.2239 56.6336C41.1566 56.8513 37.1268 55.7993 35.5912 53.6565C34.0556 51.5138 33.7357 47.8427 34.0524 45.2722C34.6027 40.943 35.1654 39.2525 35.8188 38.7483Z" fill="#37B5E1"/>
<path d="M49.1303 41.5625C49.1303 41.5625 45.7315 42.1685 43.6038 41.4838C41.4751 40.7909 39.4196 39.6753 39.0159 38.8827C38.6122 38.0902 38.6535 36.9462 40.2272 37.0513C41.801 37.1564 44.6721 38.0509 46.5862 38.0456C48.5003 38.0402 52.411 37.6142 52.411 37.6142L56.4189 46.5811L59.3079 69.0082C59.3079 69.0082 57.2478 69.3272 55.807 69.2728C54.3578 69.2195 52.239 69.0061 52.239 69.0061L49.1303 41.5625Z" fill="#0468A6"/>
<path d="M75.4225 38.1534C75.3929 37.97 80.1737 35.9605 81.1162 35.8201C82.0271 35.7559 82.6562 35.8074 82.9703 35.9838C83.267 36.1356 83.4829 36.4065 83.5746 36.7308C83.6571 37.0217 83.6229 37.3323 83.4944 37.5531C83.4621 37.6041 83.4999 37.779 83.6024 37.8602C83.9608 38.136 84.1708 38.5075 84.2139 38.8999C84.2589 39.3676 84.0819 39.6566 83.7879 39.9568C84.1471 40.2661 84.3189 40.446 84.3229 40.9482C84.3049 41.5765 83.8444 41.9143 83.8354 41.8894C83.8446 41.9227 84.0946 42.2179 84.0145 42.7054C83.9577 43.117 83.3892 43.4909 82.8926 43.7208C82.5696 43.8627 82.4435 43.8407 81.9601 43.9279C80.3982 44.41 76.5975 43.7249 76.4294 43.6955C76.2529 43.6664 76.1069 43.5193 76.0941 43.3354L75.4225 38.1534Z" fill="url(#paint0_linear_77_12)"/>
<path d="M70.1934 10.6994C72.2388 8.08749 76.4069 6.35261 79.5931 7.24532C83.1672 8.24571 84.8359 11.0844 84.9861 14.4711C85.0412 15.6919 84.8782 16.893 84.5721 17.7209C84.5325 17.814 84.2574 18.5407 84.2128 18.7678C83.975 19.6526 85.6089 20.7342 85.7091 21.7446C85.778 22.5047 84.1699 22.8122 84.0304 22.9244C83.342 23.5273 83.79 27.1076 79.4834 26.954C77.8328 26.8941 77.5627 26.4654 77.0426 26.4196C74.3078 26.1855 72.2162 27.9363 72.2162 27.9363L67.7652 22.9309C67.7652 22.9309 70.4923 20.8129 70.3762 20.5144C69.2929 17.6529 68.8703 12.3811 70.1934 10.6994Z" fill="#FFCA28"/>
<path d="M83.395 24.6557C82.8 24.6285 82.2339 24.4164 81.7798 23.9923C81.2744 23.5275 81.6996 23.1152 82.2939 23.4522C82.6506 23.6611 83.1814 23.7987 83.6744 23.7615L83.395 24.6557Z" fill="#795548"/>
<path d="M81.3433 20.1675C80.9132 20.1061 80.6407 19.5222 80.7347 18.8633C80.8288 18.2044 81.2536 17.7201 81.6838 17.7814C82.1139 17.8428 82.3863 18.4267 82.2923 19.0856C82.1983 19.7445 81.7734 20.2288 81.3433 20.1675Z" fill="#404040"/>
<path d="M82.2289 17.4102C82.9248 17.7949 83.2153 17.3525 83.062 16.9042C82.945 16.5722 82.5513 16.222 81.6379 16.1858C80.7748 16.1484 80.3327 16.5528 80.0454 16.7858C79.7581 17.0189 79.7153 17.3214 79.901 17.3838C80.1459 17.4698 81.3716 16.929 82.2289 17.4102Z" fill="#6D4C41"/>
<path d="M74.8943 18.7095L74.3821 17.6255C74.0487 17.0058 73.7421 16.4525 73.1989 16.4909C71.6024 16.5888 71.4536 19.3885 73.1917 20.2833C73.1917 20.2833 72.5718 22.3077 70.5348 22.5335C70.3177 22.5556 70.1336 22.5601 69.9661 22.5559C69.4298 22.5356 69.0751 22.0672 69.0119 21.5413C68.6374 18.2271 67.4687 18.6996 67.2994 14.8781C67.07 9.63491 72.0935 6.94141 76.4879 7.26029C78.1987 7.38565 79.9106 7.89606 81.3649 8.82299C81.9855 9.20955 84.1076 10.7395 84.4461 11.9116C84.8845 13.3992 83.8896 14.4701 83.8896 14.4701C83.8896 14.4701 79.4036 13.4922 77.2644 13.6452C76.9803 13.6689 76.6549 13.7104 76.5017 13.9486C76.4288 14.0508 76.3035 14.7404 76.2731 14.8667C75.9516 16.4316 75.9516 17.4529 75.3382 18.3805C75.2415 18.5335 74.8943 18.7095 74.8943 18.7095Z" fill="#543930"/>
<path d="M39.811 34.3988C40.053 32.3251 41.0192 29.4049 42.9874 27.7409C44.6192 27.3743 45.785 28.8273 47.6652 30.0535C47.7489 30.0514 47.8332 30.0745 47.9097 30.1228C47.9097 30.1228 57.1248 35.1618 63.6009 40.4773C64.327 41.0706 65.3116 41.9588 65.7586 42.7766C66.2401 43.6354 66.8193 44.7178 66.126 46.1412C65.4327 47.5646 61.2553 53.0082 61.2553 53.0082C61.2268 53.2098 53.9569 53.0621 53.935 52.8533C53.8804 52.3357 53.9096 51.1378 55.3621 46.2049C52.6702 44.9903 43.689 42.3147 40.6678 38.6052C39.8159 37.3202 39.5611 35.8113 39.811 34.3988Z" fill="#C8C8C8"/>
<path d="M50.1867 54.9777L54.8724 46.374C54.937 46.2804 55.0272 46.2028 55.1355 46.1834C55.2439 46.164 55.3698 46.1776 55.4551 46.2425L63.0101 51.5148C63.1037 51.5795 63.1646 51.6701 63.1925 51.7866C63.2345 51.9613 63.1897 52.0127 63.1251 52.1063L57.2091 59.359L59.2263 62.0719C60.0332 63.224 60.0535 64.7304 59.2871 65.9045C59.2871 65.9045 58.6129 67.0846 58.0214 67.1996C57.7714 67.2476 57.4792 67.2799 57.1464 67.0202L47.3937 60.5463C46.8235 60.1669 46.818 59.2629 47.3901 58.0183C47.8268 57.0532 49.785 55.3224 50.1867 54.9777Z" fill="#444444"/>
<path d="M76.4599 20.4224C76.5079 23.3931 77.029 25.1801 77.5404 26.5739C75.7971 26.4912 75.1989 23.6094 74.7403 21.3018C74.2903 19.0024 74.2764 16.7342 74.2764 16.7342L77.0341 16.1976C77.0259 16.2061 76.4215 18.858 76.4599 20.4224Z" fill="#2A2725"/>
<path d="M75.7125 5.34684C75.9967 5.33148 76.7336 5.33847 77.0021 5.36536C78.5462 5.51993 80.5806 6.20658 81.8502 7.11294C83.6653 8.41608 85.1793 10.0698 86.4525 11.8049C87.0934 12.6765 90.3621 13.1737 89.9436 14.5401C89.0904 17.2902 83.4566 14.9089 81.5137 15.2162C80.0543 15.4446 78.6971 16.0807 77.2655 16.4173C74.6853 17.0249 72.0925 17.457 69.4637 17.7895C69.0883 17.8406 68.7202 17.8496 68.3351 17.8507C67.7491 17.8484 67.0655 17.9657 66.8991 17.3252C66.7145 16.6265 66.4425 15.7793 66.3916 15.069C66.0572 10.3224 69.7258 5.63636 75.7125 5.34684Z" fill="#5D6266"/>
<path d="M75.4475 38.1516C75.4179 37.9681 75.752 37.2567 76.3034 36.1884C76.8068 35.2133 77.024 34.8564 78.5221 34.5014C79.163 34.3517 80.751 34.2457 80.8243 34.5034C81.1077 35.4759 80.0781 35.8193 80.1291 35.8515C81.6514 35.7974 81.9863 36.1407 82.0758 36.7161C82.2143 37.5834 81.7125 37.6041 81.7779 37.8787C81.8434 38.1617 82.5692 38.0602 82.5537 39.1321C82.5873 39.8177 82.0272 39.8482 82.0548 40.2912C82.0825 40.7342 82.8476 40.5312 82.9161 41.2746C82.9847 42.0179 82.2235 42.045 82.2228 42.3548C82.2137 42.6647 83.0997 42.9527 82.7913 43.6886C82.7118 43.8579 82.1847 43.8709 81.9597 43.9099C80.2986 44.4447 76.5971 43.7069 76.4289 43.6776C76.2524 43.6484 76.1065 43.5013 76.0936 43.3175L75.4475 38.1516Z" fill="url(#paint1_linear_77_12)"/>
<path d="M42.9365 27.717C42.9365 27.717 50.7984 20.9607 58.3603 20.0464C65.9221 19.1322 68.1999 19.5031 69.0281 20.504C69.8564 21.505 69.9156 23.9144 71.0509 25.4854C72.1864 27.0648 73.5033 27.1747 73.5033 27.1747C73.5033 27.1747 73.4292 29.9474 73.1991 32.5063C72.9691 35.0652 72.2949 37.2667 72.2949 37.2667L75.4657 38.21C75.4657 38.21 75.9891 39.0677 76.1708 40.6706C76.3525 42.2734 76.4556 43.7442 76.4556 43.7442C76.4556 43.7442 76.2623 44.3935 73.56 44.46C70.8661 44.5262 66.391 44.3265 65.6327 43.1062C63.6541 39.9235 64.0995 33.5253 64.0995 33.5253C64.0995 33.5253 60.915 34.4073 59.0965 34.6696C57.278 34.932 55.9395 35.3081 54.2681 34.0601C53.2787 33.3142 48.3418 30.3383 46.9351 29.6446C45.5205 28.9678 42.9365 27.717 42.9365 27.717Z" fill="#FF8E00"/>
<defs>
<linearGradient id="paint0_linear_77_12" x1="75.7214" y1="40.6047" x2="84.2954" y2="39.5584" gradientUnits="userSpaceOnUse">
<stop offset="0.19" stop-color="#FFB300"/>
<stop offset="0.936" stop-color="#FFB300"/>
</linearGradient>
<linearGradient id="paint1_linear_77_12" x1="82.0927" y1="38.7505" x2="76.5714" y2="40.1157" gradientUnits="userSpaceOnUse">
<stop offset="0.5" stop-color="#FFCA28"/>
<stop offset="0.952" stop-color="#FFCA28"/>
</linearGradient>
</defs>
</svg>
