<svg width="128" height="128" viewBox="0 0 128 128" fill="none" xmlns="http://www.w3.org/2000/svg">
<path d="M33.18 52.3601C33.18 52.3601 28.79 48.0501 23.7 48.2301C18.26 48.4201 14.27 51.3701 12.95 55.8801C11.64 60.3801 11.5 62.1201 10.51 63.5801C9.52001 65.0301 8.26001 66.0701 8.26001 66.8601C8.26001 67.6501 9.20001 68.6901 10.47 69.2101C11.74 69.7301 13.94 69.1201 13.94 69.1201C13.94 69.1201 14.5 71.9401 16.57 72.5901C18.63 73.2501 20.51 73.0101 20.51 73.0101L23.14 62.8301C23.14 62.8301 21.3 60.0401 22.76 58.0901C24.73 55.4701 28.22 57.9101 28.22 57.9101L33.18 52.3601ZM59.57 93.8201C59.57 93.8201 60.32 98.8401 61.26 100.48C62.2 102.12 62.62 102.45 62.62 102.45C62.62 102.45 62.67 110.71 62.67 113.01C62.67 114.8 62.21 117.42 63.23 118.22C64.5 119.21 69.52 119.25 70.22 118.22C70.92 117.19 68.34 114.89 68.25 114.18C68.16 113.48 68.53 106.48 68.58 105.12C68.63 103.76 70.94 94.8201 70.94 94.8201L59.57 93.8201ZM29.2 100.53C28.82 101.12 28.32 107.76 28.23 109.82C28.14 111.88 28.14 115.22 28.28 115.73C28.42 116.25 31.52 118.78 30.39 119.72C29.26 120.66 23.3 120.1 22.83 119.25C22.36 118.41 22.41 101.14 22.41 99.7301C22.41 98.6501 24.25 94.2301 24.92 93.2301C25.57 92.2501 29.57 99.9401 29.2 100.53Z" fill="#957155"/>
<path d="M107.37 16.9004C107.37 16.9004 108.56 14.9604 109.87 13.2004C111.38 11.1804 113.04 9.40036 112.97 8.73036C112.89 7.97036 111.67 8.24036 111.67 8.24036L107.17 11.6904L103.51 16.7604L107.37 16.9004ZM103.39 5.39036C103.64 6.45036 101.43 9.00036 99.76 13.1004C99.08 14.7704 98.49 19.2204 98.49 19.2204L95.82 20.4904C95.82 20.4904 96.88 14.4404 97.93 11.6904C98.98 8.94036 102.72 2.51036 103.39 5.39036Z" fill="#DB7C60"/>
<path d="M103.78 15.0695C103.78 15.0695 106.6 9.99948 108.85 8.80948C111.1 7.60948 112.79 8.06948 112.62 8.48948C112.31 9.22948 109.52 10.3895 108.19 12.4295C106.86 14.4695 104.64 17.9595 104.64 17.9595L103.78 15.0695ZM103.14 4.93948C103.23 3.52948 99.13 5.21948 96.8 8.38948C94.47 11.5595 93.91 13.5995 93.77 17.1895C93.63 20.7795 96.37 20.6395 96.37 20.4295C96.37 20.2195 96.57 15.9995 98.41 11.2095C99.66 7.99948 103.07 6.05948 103.14 4.93948Z" fill="#FFD3B2"/>
<path d="M108.21 19.6003C108.21 19.6003 110.79 21.1503 113.28 22.0903C115.31 22.8503 119.72 24.3703 119.37 26.3403C119.23 27.1303 120.25 28.0903 119.76 29.5403C119.33 30.8203 118.51 30.9203 118.21 31.0903C117.72 31.3703 116.7 33.3403 114.41 33.5403C111.84 33.7603 110.33 32.7903 110.33 32.7903L104.27 38.0003L95.68 29.8803L95.07 20.9203L101.26 18.5703L108.21 19.6003Z" fill="#FFD3B2"/>
<path d="M116.31 28.5891C116.31 28.5891 114.27 27.3591 113.42 26.9391C112.58 26.5191 112.65 24.7891 114.26 25.4291C115.88 26.0591 117.04 26.7991 117.04 26.7991C117.04 26.7991 118.34 25.7791 118.8 25.3191C119.26 24.8591 120.14 25.8391 119.26 26.9991C118.38 28.1691 118 28.5191 118 28.5191C118 28.5191 118 29.2891 118.04 29.5791C118.08 29.8691 119.94 28.3491 119.91 29.3291C119.87 30.3191 119.66 30.8091 118.57 30.9491C117.48 31.0891 117.02 31.1591 117.02 31.1591C117.02 31.1591 115.26 31.8591 113.68 31.8291C112.1 31.7991 109.88 29.9591 110.55 29.2991C111.22 28.6291 112.84 29.9991 114.28 29.9691C115.72 29.9291 116.18 29.7191 116.18 29.7191L116.31 28.5891Z" fill="#7B5B52"/>
<path d="M104.83 22.8494C104.83 22.8494 103.67 21.6494 102.4 22.3594C101.13 23.0594 101.41 25.1794 102.72 25.4894C103.95 25.7894 104.87 24.9294 104.87 24.9294C104.87 24.9294 107.44 25.2794 107.33 23.9394C107.24 22.7794 104.83 22.8494 104.83 22.8494Z" fill="#2B2A32"/>
<path d="M99.48 13.9493C99.48 13.9493 104.13 13.6393 107.08 15.6193C110.03 17.5993 111.02 18.8993 110.51 19.7993C110 20.6993 108.63 20.6893 106.9 20.5493C105.16 20.4093 103.24 20.1693 101.41 20.3193C99.58 20.4593 98.5 20.8793 97.84 21.2593C97.18 21.6393 96.2 22.4793 96.2 22.4793C96.2 22.4793 98.12 25.0993 99.63 27.4493C101.13 29.7993 102.02 31.3393 102.82 33.1793C103.4 34.5193 104.18 36.4193 104.18 36.4193C104.18 36.4193 106.48 34.2593 107.04 33.8893C107.6 33.5093 109.62 32.3893 109.62 32.3893L110.61 32.9993C110.61 32.9993 110.75 36.9893 109.16 41.4493C107.57 45.9093 105.17 49.7593 105.17 49.7593C105.17 49.7593 105.64 56.8493 101.84 63.4593C99.84 66.9493 95.46 69.3293 95.46 69.3293C95.46 69.3293 95.74 74.0693 92.97 77.1693C90.2 80.2693 87.85 80.2693 87.85 80.2693C87.85 80.2693 87.57 82.3793 85.97 85.7593C84.33 89.2293 82.26 90.2593 82.26 90.2593C82.26 90.2593 82.82 93.2593 81.88 98.2393C81.03 102.729 78.5 105.039 78.5 105.039C78.5 105.039 78.17 117.099 78.5 117.849C78.83 118.599 81.6 121.559 81.03 122.539C80.47 123.529 77.93 123.619 76.67 123.619C75.41 123.619 73.34 123.199 72.78 122.679C72.22 122.159 72.08 114.089 72.08 112.589C72.08 111.089 71.75 105.599 71.75 105.599C71.75 105.599 68.28 104.049 67.06 101.419C65.84 98.7893 65.98 96.6793 65.98 96.6793C65.98 96.6793 61.8 97.1993 56.69 95.7893C51.57 94.3793 46.41 89.7393 46.41 89.7393C46.41 89.7393 43.55 94.8593 42.19 97.2493C40.83 99.6393 38.3 103.019 38.3 103.019C38.3 103.019 38.25 116.679 38.53 117.239C38.81 117.799 42.19 121.739 41.49 122.499C40.79 123.249 39.05 123.339 37.13 123.299C35.21 123.249 33.24 123.159 32.86 122.029C32.48 120.899 32.86 118.419 32.77 116.539C32.68 114.659 32.35 104.479 32.35 104.479C32.35 104.479 26.87 101.419 24.37 95.0493C22.3 89.7693 22.35 84.2593 22.35 84.2593C22.35 84.2593 20.8 79.1893 20.52 77.3093C20.24 75.4293 19.68 71.7293 21.88 65.4393C24.08 59.1493 29.06 51.8793 36.47 48.8293C43.88 45.7793 51.35 45.5893 57.77 45.6393C64.2 45.6893 75.46 47.1393 77.29 46.5793C79.12 46.0193 82.69 40.8093 84.05 35.3593C85.41 29.9193 87.05 23.9993 89.35 21.2393C91.65 18.4793 93.76 17.5793 93.76 17.5793C93.76 17.5793 94.89 21.0093 97 19.5493C98.68 18.3893 98.78 16.9993 98.92 16.0693C99.06 15.0793 99.48 13.9493 99.48 13.9493Z" fill="#AE957F"/>
<path d="M34.7 101.32C33.79 101.6 30.99 99.8702 29.73 98.6902C28.18 97.2502 27.34 94.7502 27.48 93.9002C27.62 93.0602 29.69 95.5901 30.3 94.7001C30.91 93.8101 28.04 91.7202 27.02 90.0502C25.62 87.7702 25.23 85.8602 25.84 85.4902C26.45 85.1202 28.7 88.1702 29.37 87.1402C30.2 85.8702 28.7 84.6702 27.14 83.3002C25.7 82.0302 24.11 80.9402 23.36 77.2802C22.61 73.6202 22.87 68.2502 24.18 65.2402C25.49 62.2402 29.51 55.9302 37.01 51.5602C44.52 47.2002 55.97 47.7102 60.57 47.8502C65.17 47.9902 76.53 50.0102 78.4 49.0702C80.28 48.1302 83.66 46.0702 85.81 38.9802C87.97 31.8902 87.87 28.2102 90.13 24.4802C91.26 22.6102 93.06 21.4102 93.06 21.4102C93.06 21.4102 95.57 25.9402 97.21 28.4702C98.85 31.0002 101.67 35.7402 102.61 42.5502C103.55 49.3502 102.22 55.3002 101.65 57.7802C100.47 62.9402 95.85 65.9702 95.85 65.9702C95.85 65.9702 95.01 62.6302 94.77 61.6102C94.42 60.1102 93.64 58.2302 92.61 58.8902C91.58 59.5502 93.61 67.8202 92.87 71.8202C91.93 76.9102 87.83 77.0502 87.83 77.0502C87.83 77.0502 87.45 74.4702 86.52 73.3002C85.58 72.1302 85.11 72.0802 84.74 72.5502C84.36 73.0202 85.56 76.8302 84.93 80.6702C84.01 86.2302 80.32 89.1402 80.04 89.7502C79.76 90.3602 81.13 103.23 74 103.34C67.85 103.43 69.12 96.6802 69.12 96.6802C69.12 96.6802 66.63 95.7902 66.12 92.2202C65.61 88.6502 66.64 84.5502 67.15 83.2102C68.18 80.5402 66.49 80.1602 65.7 82.0402C64.9 83.9202 64.32 85.5402 63.96 87.6702C63.6 89.8502 64.1 92.5002 63.54 92.7802C62.62 93.2402 58.57 93.2502 54.91 91.4202C51.25 89.5902 48.06 85.6002 48.06 85.6002C48.06 85.6002 50.41 79.6902 49.98 73.8702C49.55 68.0502 47.73 64.6302 46.88 65.3302C46.04 66.0302 47.26 70.6802 46.36 76.2202C45.47 81.7602 44.2 86.9702 40.63 92.8802C37.05 98.7902 35.78 101 34.7 101.32Z" fill="#F8F9FC"/>
<path d="M39.1303 46.1516C39.6074 45.8194 41.9057 46.5247 44.9579 46.5818C48.0095 46.6306 63.6649 44.7182 63.6649 44.7182C63.6649 44.7182 64.4633 49.4312 63.8539 54.4924C63.2446 59.5535 62.3804 62.9057 60.3764 63.2513C58.3718 63.5887 53.7933 64.4937 48.7136 64.4904C43.6416 64.478 39.6637 63.2443 38.2268 61.0341C36.79 58.8239 36.637 55.1421 37.0699 52.5887C37.816 48.2889 38.4548 46.6256 39.1303 46.1516Z" fill="#37B5E1"/>
<path d="M52.3005 49.5675C52.3005 49.5675 48.8777 50.0187 46.7833 49.2382C44.6881 48.4494 42.6853 47.2418 42.318 46.4317C41.9507 45.6217 42.0437 44.4808 43.6111 44.6571C45.1785 44.8335 48.0061 45.8573 49.9185 45.9388C51.8308 46.0202 55.7569 45.7721 55.7569 45.7721L59.3539 54.9115L61.2228 77.4465C61.2228 77.4465 59.1504 77.6717 57.7135 77.5521C56.2683 77.4331 54.1613 77.1238 54.1613 77.1238L52.3005 49.5675Z" fill="#0468A6"/>
<path d="M78.4224 45.1534C78.3928 44.97 83.1736 42.9605 84.1161 42.8201C85.027 42.7559 85.6561 42.8074 85.9702 42.9838C86.2669 43.1356 86.4829 43.4065 86.5745 43.7308C86.657 44.0217 86.6228 44.3323 86.4943 44.5531C86.4621 44.6041 86.4999 44.779 86.6023 44.8602C86.9607 45.136 87.1707 45.5075 87.2139 45.8999C87.2589 46.3676 87.0818 46.6566 86.7878 46.9568C87.147 47.2661 87.3189 47.446 87.3228 47.9482C87.3048 48.5765 86.8443 48.9143 86.8353 48.8894C86.8445 48.9227 87.0945 49.2179 87.0145 49.7054C86.9576 50.117 86.3892 50.4909 85.8926 50.7208C85.5696 50.8627 85.4435 50.8407 84.9601 50.9279C83.3981 51.41 79.5975 50.7249 79.4293 50.6955C79.2528 50.6664 79.1069 50.5193 79.094 50.3354L78.4224 45.1534Z" fill="url(#paint0_linear_77_23)"/>
<path d="M73.1934 17.6994C75.2387 15.0875 79.4068 13.3526 82.5931 14.2453C86.1671 15.2457 87.8358 18.0844 87.986 21.4711C88.0412 22.6919 87.8782 23.893 87.5721 24.7209C87.5325 24.814 87.2574 25.5407 87.2127 25.7678C86.975 26.6526 88.6088 27.7342 88.709 28.7446C88.7779 29.5047 87.1699 29.8122 87.0303 29.9244C86.3419 30.5273 86.7899 34.1076 82.4833 33.954C80.8327 33.8941 80.5627 33.4654 80.0425 33.4196C77.3077 33.1855 75.2161 34.9363 75.2161 34.9363L70.7651 29.9309C70.7651 29.9309 73.4923 27.8129 73.3761 27.5144C72.2928 24.6529 71.8702 19.3811 73.1934 17.6994Z" fill="#FFCA28"/>
<path d="M86.3949 31.6557C85.7999 31.6285 85.2338 31.4164 84.7797 30.9923C84.2744 30.5275 84.6995 30.1152 85.2938 30.4522C85.6505 30.6611 86.1813 30.7987 86.6743 30.7615L86.3949 31.6557Z" fill="#795548"/>
<path d="M84.3432 27.1675C83.9131 27.1061 83.6407 26.5222 83.7347 25.8633C83.8287 25.2044 84.2536 24.7201 84.6837 24.7814C85.1138 24.8428 85.3862 25.4267 85.2922 26.0856C85.1982 26.7445 84.7733 27.2288 84.3432 27.1675Z" fill="#404040"/>
<path d="M85.2288 24.4102C85.9247 24.7949 86.2152 24.3525 86.0619 23.9042C85.9449 23.5722 85.5512 23.222 84.6379 23.1858C83.7747 23.1484 83.3326 23.5528 83.0453 23.7858C82.7581 24.0189 82.7153 24.3214 82.901 24.3838C83.1459 24.4698 84.3715 23.929 85.2288 24.4102Z" fill="#6D4C41"/>
<path d="M77.8942 25.7095L77.382 24.6255C77.0487 24.0058 76.7421 23.4525 76.1989 23.4909C74.6024 23.5888 74.4536 26.3885 76.1917 27.2833C76.1917 27.2833 75.5717 29.3077 73.5347 29.5335C73.3176 29.5556 73.1336 29.5601 72.966 29.5559C72.4298 29.5356 72.075 29.0672 72.0119 28.5413C71.6374 25.2271 70.4686 25.6996 70.2993 21.8781C70.07 16.6349 75.0935 13.9414 79.4878 14.2603C81.1987 14.3857 82.9106 14.8961 84.3648 15.823C84.9855 16.2096 87.1075 17.7395 87.4461 18.9116C87.8845 20.3992 86.8895 21.4701 86.8895 21.4701C86.8895 21.4701 82.4036 20.4922 80.2643 20.6452C79.9803 20.6689 79.6548 20.7104 79.5016 20.9486C79.4288 21.0508 79.3034 21.7404 79.273 21.8667C78.9516 23.4316 78.9516 24.4529 78.3382 25.3805C78.2415 25.5335 77.8942 25.7095 77.8942 25.7095Z" fill="#543930"/>
<path d="M42.8109 41.3988C43.0529 39.3251 44.0192 36.4049 45.9873 34.7409C47.6191 34.3743 48.7849 35.8273 50.6651 37.0535C50.7488 37.0514 50.8331 37.0745 50.9096 37.1228C50.9096 37.1228 60.1247 42.1618 66.6008 47.4773C67.327 48.0706 68.3115 48.9588 68.7585 49.7766C69.2401 50.6354 69.8192 51.7178 69.1259 53.1412C68.4326 54.5646 64.2553 60.0082 64.2553 60.0082C64.2267 60.2098 56.9568 60.0621 56.935 59.8533C56.8804 59.3357 56.9095 58.1378 58.362 53.2049C55.6701 51.9903 46.6889 49.3147 43.6678 45.6052C42.8158 44.3202 42.561 42.8113 42.8109 41.3988Z" fill="#C8C8C8"/>
<path d="M53.1867 61.9777L57.8723 53.374C57.937 53.2804 58.0271 53.2028 58.1355 53.1834C58.2438 53.164 58.3697 53.1776 58.455 53.2425L66.01 58.5148C66.1037 58.5795 66.1645 58.6701 66.1925 58.7866C66.2344 58.9613 66.1897 59.0127 66.125 59.1063L60.2091 66.359L62.2263 69.0719C63.0331 70.224 63.0534 71.7304 62.287 72.9045C62.287 72.9045 61.6129 74.0846 61.0213 74.1996C60.7714 74.2476 60.4792 74.2799 60.1463 74.0202L50.3936 67.5463C49.8234 67.1669 49.818 66.2629 50.3901 65.0183C50.8268 64.0532 52.7849 62.3224 53.1867 61.9777Z" fill="#444444"/>
<path d="M79.4599 27.4224C79.5078 30.3931 80.0289 32.1801 80.5403 33.5739C78.7971 33.4912 78.1988 30.6094 77.7403 28.3018C77.2903 26.0024 77.2764 23.7342 77.2764 23.7342L80.034 23.1976C80.0259 23.2061 79.4214 25.858 79.4599 27.4224Z" fill="#2A2725"/>
<path d="M78.7124 12.3468C78.9967 12.3315 79.7335 12.3385 80.002 12.3654C81.5462 12.5199 83.5805 13.2066 84.8501 14.1129C86.6652 15.4161 88.1792 17.0698 89.4525 18.8049C90.0934 19.6765 93.362 20.1737 92.9436 21.5401C92.0904 24.2902 86.4566 21.9089 84.5136 22.2162C83.0543 22.4446 81.697 23.0807 80.2654 23.4173C77.6853 24.0249 75.0924 24.457 72.4637 24.7895C72.0882 24.8406 71.7201 24.8496 71.3351 24.8507C70.749 24.8484 70.0655 24.9657 69.899 24.3252C69.7144 23.6265 69.4424 22.7793 69.3915 22.069C69.0571 17.3224 72.7257 12.6364 78.7124 12.3468Z" fill="#5D6266"/>
<path d="M78.4475 45.1516C78.4179 44.9681 78.752 44.2567 79.3033 43.1884C79.8067 42.2133 80.024 41.8564 81.5221 41.5014C82.163 41.3517 83.7509 41.2457 83.8242 41.5034C84.1076 42.4759 83.078 42.8193 83.1291 42.8515C84.6513 42.7974 84.9862 43.1407 85.0757 43.7161C85.2142 44.5834 84.7125 44.6041 84.7778 44.8787C84.8434 45.1617 85.5692 45.0602 85.5537 46.1321C85.5873 46.8177 85.0271 46.8482 85.0548 47.2912C85.0824 47.7342 85.8476 47.5312 85.9161 48.2746C85.9846 49.0179 85.2235 49.045 85.2227 49.3548C85.2136 49.6647 86.0997 49.9527 85.7913 50.6886C85.7117 50.8579 85.1847 50.8709 84.9596 50.9099C83.2985 51.4447 79.597 50.7069 79.4289 50.6776C79.2523 50.6484 79.1064 50.5013 79.0935 50.3175L78.4475 45.1516Z" fill="url(#paint1_linear_77_23)"/>
<path d="M45.9364 34.717C45.9364 34.717 53.7983 27.9607 61.3602 27.0464C68.9221 26.1322 71.1998 26.5031 72.0281 27.504C72.8563 28.505 72.9156 30.9144 74.0508 32.4854C75.1863 34.0648 76.5033 34.1747 76.5033 34.1747C76.5033 34.1747 76.4292 36.9474 76.1991 39.5063C75.969 42.0652 75.2948 44.2667 75.2948 44.2667L78.4656 45.21C78.4656 45.21 78.989 46.0677 79.1707 47.6706C79.3524 49.2734 79.4556 50.7442 79.4556 50.7442C79.4556 50.7442 79.2623 51.3935 76.56 51.46C73.8661 51.5262 69.3909 51.3265 68.6326 50.1062C66.6541 46.9235 67.0995 40.5253 67.0995 40.5253C67.0995 40.5253 63.915 41.4073 62.0965 41.6696C60.278 41.932 58.9395 42.3081 57.268 41.0601C56.2786 40.3142 51.3417 37.3383 49.935 36.6446C48.5204 35.9678 45.9364 34.717 45.9364 34.717Z" fill="#FF8E00"/>
<defs>
<linearGradient id="paint0_linear_77_23" x1="78.7213" y1="47.6047" x2="87.2954" y2="46.5584" gradientUnits="userSpaceOnUse">
<stop offset="0.19" stop-color="#FFB300"/>
<stop offset="0.936" stop-color="#FFB300"/>
</linearGradient>
<linearGradient id="paint1_linear_77_23" x1="85.0927" y1="45.7505" x2="79.5714" y2="47.1157" gradientUnits="userSpaceOnUse">
<stop offset="0.5" stop-color="#FFCA28"/>
<stop offset="0.952" stop-color="#FFCA28"/>
</linearGradient>
</defs>
</svg>
