<svg width="128" height="128" viewBox="0 0 128 128" fill="none" xmlns="http://www.w3.org/2000/svg">
<path d="M28.27 65.3691C26.89 67.1491 25.19 70.9791 23.61 76.7191C22.03 82.4591 19.55 88.0991 15.2 87.9991C10.85 87.8991 11.24 84.5491 10.54 83.2191C10.1 82.3891 9.37003 80.3891 5.21003 82.6591C1.06003 84.9291 2.66003 86.9591 3.38003 88.6291C4.16003 90.4391 7.57003 96.6391 15.64 96.4091C23.11 96.1891 26.17 92.4991 29.04 86.9591C31.91 81.4191 28.27 65.3691 28.27 65.3691Z" fill="#FE6A1F"/>
<path d="M25.85 91.9303C25.85 91.9303 23.96 91.4503 21.99 89.6303C20.31 88.0803 18.91 86.4003 18.91 86.4003C18.91 86.4003 19.91 85.2103 20.69 83.9503C21.84 82.0803 22.36 80.5703 22.36 80.5703L29.78 85.7603C29.78 85.7603 28.59 87.7003 27.96 88.9503C27.12 90.6703 25.85 91.9303 25.85 91.9303Z" fill="#323130"/>
<path d="M106.69 40.2201C106.69 40.2201 106.9 32.8001 101.45 31.6101C95.52 30.3201 93.54 36.8501 93.54 36.8501L96.9 41.1001L106.69 40.2201ZM57.53 91.2601C57.53 91.2601 54.83 98.3901 54.56 101.05C54.04 106.28 58.6 107.21 58.12 110.94C57.8 113.39 55.66 114.01 50.8 114.01C44.67 114.01 41.7 111.14 41.7 111.14L39.52 84.8301L57.92 87.0101L57.53 91.2601ZM99.59 83.8101C99.59 83.8101 102.4 90.8801 105.23 94.4201C108.05 97.9401 112.98 102.25 112.61 108.33C112.38 112.05 110.18 113.7 107.66 114.2C105.05 114.72 102.04 114.02 100.65 110.76C99.27 107.5 99.27 105.02 99.27 105.02C99.27 105.02 93.27 98.5201 91.39 96.5401C89.51 94.5601 86.01 91.4701 86.01 91.4701L99.59 83.8101Z" fill="#FE6A1F"/>
<path d="M101.74 99.94C100.63 98.4 102.05 96.92 103 96.08C104.26 94.97 105.34 94.52 105.34 94.52L107.49 97.08C107.49 97.08 106.19 97.93 105.23 98.82C104.42 99.57 102.71 101.28 101.74 99.94ZM103.75 92.3C103.75 92.3 102.12 93.41 101.75 93.78C101.38 94.15 99.78 95.26 99.12 94.52C98.13 93.43 99.29 91.85 100.05 90.92C100.7 90.11 101.93 89 101.93 89L103.75 92.3Z" fill="#333132"/>
<path d="M105.16 108.579C106.79 109.469 107.53 111.139 106.94 112.589C106.4 113.919 103.82 114.589 101.52 112.629C100.35 111.629 100.04 109.329 100.74 108.589C101.44 107.849 103.37 107.609 105.16 108.579ZM109.05 110.659C110.02 110.659 111.39 111.349 110.94 112.659C110.61 113.619 107.83 114.499 107.34 112.849C106.97 111.589 108.31 110.659 109.05 110.659Z" fill="#BB5D42"/>
<path d="M101.05 79.79L106.39 76.82C106.39 76.82 113.68 77.28 118.16 74.55C122.35 71.99 125.18 68.42 125.78 64.46C126.38 60.5 126.29 56.65 125.59 55.36C124.9 54.07 123.6 53.78 121.82 53.09C120.04 52.4 117.36 50.78 117.36 50.78C117.36 50.78 116.97 47.64 115.12 45C112.35 41.04 110.35 40.73 109.36 40.23C108.37 39.74 98.58 39.24 98.58 39.24L96.21 39.04L93.24 33.9C93.24 33.9 89.38 31.13 84.73 33.41C80.08 35.69 79.88 41.32 80.18 43.3C80.48 45.28 81.17 46.86 81.07 47.55C81.02 47.9 78.97 49.63 77.11 51.51C75.29 53.34 73.98 54.91 73.22 55.37C72.45 55.83 62.97 54.23 51.78 55.07C40.47 55.92 33.05 58.07 28.89 64.01C24.74 69.94 24.69 76.44 25.87 83.36C27.05 90.28 30.82 97.21 31.21 98.3C31.61 99.39 31.61 107.1 31.61 109.08C31.61 111.06 30.89 119.47 37.35 119.58C41.03 119.64 44.58 120.24 46.07 117.17C47.55 114.1 46.33 110.42 46.33 110.42L43.39 107.21L43.79 101.57L49.72 95.83L50.81 91.48L62.18 91.97C62.18 91.97 71.48 93.45 72.07 94.15C72.66 94.85 74.15 104.34 74.64 109.18C75.13 114.03 77.38 118.7 78.97 119.39C80.55 120.08 83.61 121.21 87.76 120.28C91.55 119.43 92.29 115.79 90.02 112.82C88.57 110.91 87.16 110.22 87.16 110.22C87.16 110.22 87.42 104.73 87.57 99.76C87.68 96.12 87.62 92.69 87.87 92.23C88.46 91.14 96.2 81.08 96.2 81.08L101.05 79.79Z" fill="#FF9613"/>
<path d="M17.06 87.6605C17.06 87.6605 17.17 90.8605 17.51 92.2205C18.1 94.6305 19.03 96.0405 19.03 96.0405C19.03 96.0405 16.95 96.6405 14.06 96.4905C11.35 96.3405 9.51003 95.1705 9.51003 95.1705C9.51003 95.1705 10.87 92.0805 11.24 91.1105C11.61 90.1505 12.76 87.3605 12.76 87.3605C12.76 87.3605 13.39 87.7305 14.69 87.9205C15.4894 88.0303 16.3035 87.941 17.06 87.6605ZM11.31 85.7005C11.31 85.7005 9.23003 86.2905 7.45003 87.1105C5.67003 87.9305 3.59003 89.1905 3.59003 89.1905C3.59003 89.1905 1.59003 85.1805 1.22003 82.3705C0.960032 80.3605 1.64003 77.7805 3.67003 77.0305C6.27003 76.0705 8.86003 77.9205 9.83003 80.8905C10.8 83.8605 11.31 85.7005 11.31 85.7005Z" fill="#323130"/>
<path d="M84.31 44.971C84.31 44.971 81.86 39.331 85.42 37.401C88.98 35.471 91.06 40.811 91.06 40.811C88.8576 42.2735 86.6064 43.6609 84.31 44.971Z" fill="#FD6A1F"/>
<path d="M116.95 52.8398C116.95 52.8398 120.99 53.9498 123.07 55.3298C124.31 56.1498 124.57 57.7698 124.63 59.5598C124.82 65.6398 121.14 71.8698 115.47 73.7698C108.82 75.9898 105.08 74.3598 105.08 74.3598C105.08 74.3598 107.82 70.1298 109.38 68.2798C110.94 66.4298 112.27 65.1598 112.79 64.1998C113.31 63.2398 113.9 58.8998 114.72 56.9698C115.54 55.0198 116.95 52.8398 116.95 52.8398Z" fill="white"/>
<path d="M117.84 58.7005C117.84 58.7005 124 60.7005 124 60.9305C124 61.1505 124.07 64.1205 123.63 64.4905C123.18 64.8605 122 65.5305 120.96 65.6805C119.92 65.8305 118.66 65.7505 118.07 66.2705C117.74 66.5505 117.48 68.5705 120.44 69.2405C123.4 69.9105 125.86 66.7205 126.52 64.4905C127.19 62.2605 127.19 57.5205 125.48 55.2205C124.28 53.5805 119.25 56.4705 117.84 58.7005Z" fill="#323332"/>
<path d="M84.5 114.301C85.63 114.181 86.27 114.861 86.37 117.381C86.46 119.611 85.67 120.551 84.73 120.681C83.24 120.901 84.04 118.751 83.99 117.861C83.89 116.371 82.75 114.481 84.5 114.301ZM89.39 113.741C90.09 113.331 91.39 113.851 91.41 116.681C91.42 118.971 89.89 120.131 88.88 119.861C88.32 119.711 89.13 117.691 89.36 116.931C89.75 115.661 87.98 114.561 89.39 113.741Z" fill="#FE6A1F"/>
<path d="M81.27 119.859C81.46 120.639 76.77 119.749 75.19 116.039C73.61 112.329 72.82 104.069 72.47 100.909C72.12 97.7395 71.23 95.0195 70.89 94.8295C70.54 94.6295 67.02 93.8395 61.43 93.1995C56.51 92.6295 52.19 92.3095 52.19 92.3095C52.19 92.3095 51.94 95.2295 49.47 97.7495C47 100.269 44.62 102.099 44.43 102.449C44.23 102.799 44.16 106.839 44.48 107.689C44.55 107.889 48.38 110.709 48.26 114.529C48.16 117.889 45.24 119.359 43.51 119.559C41.78 119.759 41.05 119.699 42.14 119.049C43.23 118.409 46.11 117.969 46.07 114.379C46.02 109.669 42.5 108.529 42.35 107.639C42.2 106.749 42.5 101.559 42.65 101.209C42.8 100.859 46.4 97.6595 47.6 96.1695C49.71 93.5395 49.13 90.7295 49.58 90.3295C50.03 89.9295 57.73 90.2695 61.7 90.7295C64.5 91.0495 71.79 91.9395 73.32 93.6995C73.81 94.2595 75.02 105.579 75.2 106.999C75.5 109.339 75.58 113.159 77.13 115.749C78.43 117.949 81.02 118.819 81.27 119.859Z" fill="#BB5D42"/>
<path d="M43.29 116.709C43.24 118.739 42.56 119.899 41.08 119.799C39.6 119.699 40.9 117.569 40.98 116.879C41.13 115.589 39.91 113.829 40.83 113.619C42.31 113.269 43.33 114.929 43.29 116.709Z" fill="#FE6A1F"/>
<path d="M105.35 53.9897C105.18 55.8797 105.89 57.6097 107.4 57.9097C108.91 58.2197 110.44 57.5197 110.84 55.0297C111.22 52.6797 110.12 51.3997 108.61 51.0997C107.1 50.7997 105.55 51.7797 105.35 53.9897Z" fill="#313130"/>
<path d="M105.08 47.1994C103.15 46.9394 103.52 44.9294 103.82 43.5394C104.12 42.1494 104.61 41.2194 104.61 41.2194C104.61 41.2194 102.97 40.9394 102.15 41.2894C101.82 41.4294 101.52 41.7394 101.2 42.1094C99.42 44.1394 100.1 47.7094 98.37 47.9094C96.64 48.1094 96.6 45.4194 96.7 43.7394C96.8 42.0594 97.05 41.2194 96.8 40.7694C96.55 40.3194 95.28 40.6394 95.17 40.3194C94.85 39.3694 94.13 36.8594 92.99 35.5694C91.85 34.2794 90.03 32.9894 87.87 33.0194C86.36 33.0394 84.64 33.4994 84.98 33.2394C86.01 32.4394 91.06 30.6394 94.48 33.1394C97.36 35.2494 97.84 38.1294 97.84 38.1294C97.84 38.1294 99.89 37.9794 103.38 38.2394C105.97 38.4294 108.27 39.2594 109.52 39.8694C111.99 41.0694 113.17 42.5394 113.17 42.5394C113.17 42.5394 111.23 41.6794 110.61 41.4994C109.09 41.0494 108.17 41.7694 107.38 43.6494C106.91 44.7994 106.56 47.3994 105.08 47.1994ZM98.49 52.3494C99.38 52.2794 99.4 53.6594 99.52 55.0594C99.72 57.4294 99.79 59.8494 99.97 60.1394C100.27 60.6294 101.86 62.7894 102.75 63.7694C103.2 64.2594 104.71 65.6394 104.28 66.3394C103.34 67.8694 97.36 64.0194 96.81 60.6494C96.31 57.5694 96.51 52.4994 98.49 52.3494Z" fill="#33312F"/>
<path d="M94.77 63.4398C94.92 63.8898 96.75 65.7498 98.85 67.1898C101.03 68.6698 103.21 69.3498 102.53 70.3398C101.69 71.5798 98.13 70.3898 96.2 69.4998C94.65 68.7798 91.9 66.5998 91.3 65.0498C90.81 63.7598 91.05 59.4098 91.79 56.9898C92.53 54.5698 93.68 51.8498 94.61 52.7598C95.14 53.2798 94.64 55.1298 94.5 57.6598C94.36 60.3298 94.66 63.0998 94.77 63.4398Z" fill="#33312F"/>
<path d="M87.39 104.35C87.39 104.35 84.82 103.62 83.24 103.72C81.66 103.82 78.2 104.17 77.6 103.87C76.63 103.38 80.09 100.66 83.15 100.36C86.21 100.06 87.61 100.42 87.61 100.42L87.39 104.35ZM87.65 96.38C87.65 96.38 86.85 95.48 83.83 95.53C80.81 95.58 77.51 96.01 77.61 94.97C77.71 93.93 82.2 91.82 84.14 91.71C85.33 91.64 88.02 92.01 88.02 92.01L87.65 96.38Z" fill="#333132"/>
<path d="M100.16 78.5003C100.16 78.5003 96.77 74.9803 94.92 73.4603C92.15 71.1903 87.8 67.5303 87.7 61.8903C87.6 56.2503 90.27 51.6003 90.77 50.7103C91.26 49.8203 92.75 46.8503 91.07 45.6703C89.39 44.4803 87.23 44.7803 83.55 48.7403C79.69 52.8903 75.44 60.9103 75.44 60.9103C75.44 60.9103 77.71 67.2403 82.56 70.9003C84.34 72.2403 86.24 72.8103 87.55 73.8703C89.81 75.7003 90.7 78.2303 90.96 80.7403C91.75 88.2603 89.27 88.2003 88.31 90.1203C87.63 91.5003 87.48 95.2903 87.64 95.4203C88.48 96.1303 91.35 93.0503 91.84 92.5503C92.33 92.0603 93.92 90.3703 93.92 90.3703C93.92 90.3703 94.02 92.1503 94.71 92.1503C95.65 92.1503 98.17 89.5803 99.46 86.9103C100.75 84.2403 102.23 81.7703 103.61 79.7903C104.21 78.9303 106.55 76.8703 106.55 76.8703C106.55 76.8703 105.68 75.9303 104 76.2303C102.34 76.5203 100.16 78.5003 100.16 78.5003Z" fill="#FDEDCC"/>
<path d="M85.77 54.4691C87.27 55.2391 85.02 62.7391 86.12 65.5491C86.67 66.9491 88.49 70.4491 87.21 71.1891C85.92 71.9291 81.92 68.0191 81.37 65.5991C80.82 63.1791 83.84 53.4791 85.77 54.4691ZM86.76 82.5091C86.76 84.6891 79.6 84.4391 79.6 84.4391C79.6 84.4391 75.08 88.4491 74.1 87.7491C72.91 86.9091 73.36 85.7191 74.3 84.2391C75.78 81.9091 76.67 80.5791 78.31 79.8891C79.79 79.2591 82.71 80.1091 84.24 80.4791C86.16 80.9491 86.76 81.7991 86.76 82.5091ZM77.16 67.5191C78.05 68.6091 76.85 69.5891 75.73 71.3291C74.67 72.9691 72.34 76.0791 72.34 76.0791C72.34 76.0791 72.66 83.0991 71.77 83.7391C70.73 84.4791 69.4 82.3591 68.75 80.5691C68.1 78.7791 68.06 76.5091 68.21 75.1291C68.36 73.7491 69.3 71.5191 72.67 69.1091C75.25 67.2791 76.72 66.9791 77.16 67.5191ZM72.47 55.4091C72.47 55.4091 70.44 58.5291 69.35 61.4891C68.26 64.4591 67.19 67.6791 66.8 70.0491C66.59 71.3191 65.93 74.0591 64.95 74.1991C63.96 74.3491 63.27 71.5591 62.98 68.4491C62.68 65.2191 63.07 60.5991 63.61 58.5191C64.15 56.4391 64.8 54.8691 64.8 54.8691C64.8 54.8691 66.61 54.8391 68.81 54.9591C70.73 55.0591 72.47 55.4091 72.47 55.4091ZM58.57 54.7591C58.57 54.7591 57.49 58.8391 57.27 64.6591C57.12 68.4691 56.64 75.0791 55.49 75.0791C54.01 75.0791 52.67 70.0491 52.08 64.3591C51.49 58.6691 51.63 55.0091 51.63 55.0091C51.63 55.0091 53.43 54.8091 55.01 54.7491C56.97 54.6891 58.57 54.7591 58.57 54.7591ZM45.44 75.1591C43.44 75.4191 41.55 69.5491 40.66 65.8891C39.77 62.2291 39.19 57.1391 39.19 57.1391C39.19 57.1391 40.77 56.6891 42.4 56.3191C44.28 55.8891 45.96 55.6891 45.96 55.6891C45.96 55.6891 45.63 59.0991 45.71 64.6491C45.76 67.6191 46.66 75.0091 45.44 75.1591ZM33.72 59.5091C33.72 59.5091 34.39 66.9191 34.83 68.4491C35.28 69.9791 39.1 75.4591 38.32 76.3491C37.3 77.5191 32.27 73.4191 30.79 70.1591C29.31 66.8991 29.07 63.6391 29.07 63.6391C29.07 63.6391 29.64 62.5491 31.31 61.1791C32.61 60.1091 33.72 59.5091 33.72 59.5091ZM70.92 94.8591C70.92 94.8591 66.38 88.3891 65.29 85.5291C64.2 82.6591 62.27 77.9491 60.59 77.5191C58.86 77.0691 59.36 81.6291 60.44 85.1891C61.48 88.5991 63.31 93.3991 63.31 93.3991C63.31 93.3991 65.17 93.6991 66.76 93.9391C70.02 94.4291 70.92 94.8591 70.92 94.8591ZM58.61 92.8591C58.61 92.8591 55.22 86.4091 54.31 83.7691C53.74 82.1291 52.54 77.5591 51.01 77.6091C49.48 77.6591 49.58 81.4691 50.02 83.7891C50.47 86.1091 52.2 92.2991 52.2 92.2991C52.2 92.2991 53.56 92.4091 55.02 92.5591C56.22 92.6791 58.61 92.8591 58.61 92.8591ZM47.29 89.2491C47.04 90.0791 40.26 89.6691 38.02 88.1891C33.75 85.3591 31.57 77.7791 33.05 77.8791C34.53 77.9791 39.03 83.0191 40.62 84.0591C42.2 85.0891 47.79 87.6091 47.29 89.2491ZM51 95.6391C51 95.6391 44.66 96.7191 40.91 95.8291C37.57 95.0391 34.68 91.3391 33.64 91.9391C32.6 92.5291 33.94 97.5791 38.68 99.2091C43.27 100.789 46.84 100.099 46.84 100.099C46.84 100.099 48.44 98.9491 49.21 98.0191C50.41 96.5991 51 95.6391 51 95.6391Z" fill="#33312F"/>
<path d="M40.7342 56.1386C41.1219 55.8215 43.1304 56.3075 45.7442 56.1846C48.357 56.0545 61.6296 53.4981 61.6296 53.4981C61.6296 53.4981 62.5991 57.5698 62.3859 62.0252C62.1726 66.4807 61.6375 69.4577 59.9447 69.8731C58.2508 70.2812 54.3902 71.3309 50.0457 71.6155C45.7073 71.8917 42.2302 71.0392 40.8669 69.1898C39.5036 67.3405 39.1487 64.1331 39.3636 61.8781C39.7401 58.08 40.1852 56.5909 40.7342 56.1386Z" fill="#37B5E1"/>
<path d="M52.2051 58.3754C52.2051 58.3754 49.3053 58.9633 47.4666 58.4001C45.6268 57.8296 43.8405 56.8881 43.4771 56.2013C43.1136 55.5144 43.1238 54.5126 44.475 54.5779C45.8262 54.6433 48.3067 55.3776 49.9472 55.3405C51.5877 55.3035 54.9302 54.8645 54.9302 54.8645L58.5625 62.6443L61.5318 82.2232C61.5318 82.2232 59.7731 82.5372 58.537 82.514C57.2937 82.4919 55.473 82.3409 55.473 82.3409L52.2051 58.3754Z" fill="#0468A6"/>
<path d="M77.6476 53.8901C77.6232 53.7111 82.3192 51.8717 83.2389 51.7578C84.126 51.7171 84.7364 51.7822 85.0375 51.9612C85.3224 52.1159 85.5258 52.3845 85.6072 52.7019C85.6805 52.9867 85.6398 53.2878 85.5096 53.4994C85.477 53.5483 85.5096 53.7192 85.6072 53.8006C85.949 54.0773 86.1444 54.4435 86.1769 54.826C86.2095 55.2818 86.0304 55.5585 85.7374 55.8434C86.0793 56.1526 86.242 56.3317 86.2339 56.82C86.2013 57.4304 85.7456 57.7478 85.7374 57.7234C85.7456 57.756 85.9816 58.049 85.8921 58.521C85.827 58.9198 85.2654 59.2697 84.7771 59.4814C84.4597 59.6116 84.3376 59.5872 83.8656 59.6604C82.3355 60.0918 78.6568 59.3349 78.494 59.3023C78.3231 59.2698 78.1848 59.1233 78.1766 58.9442L77.6476 53.8901Z" fill="url(#paint0_linear_77_32)"/>
<path d="M73.2203 27.0732C75.2712 24.5828 79.365 22.9957 82.4414 23.9398C85.8922 24.9978 87.4466 27.7975 87.5117 31.0937C87.5362 32.2819 87.349 33.4457 87.0316 34.2433C86.9909 34.3329 86.706 35.0328 86.6572 35.2525C86.4049 36.1071 87.9675 37.1977 88.0408 38.1824C88.0896 38.9231 86.5188 39.1835 86.3805 39.2893C85.6968 39.859 86.0468 43.3505 81.8635 43.0982C80.2602 43.0005 80.0079 42.5773 79.5033 42.5203C76.8501 42.2274 74.7748 43.8795 74.7748 43.8795L70.5671 38.9068C70.5671 38.9068 73.2691 36.9128 73.1633 36.6198C72.1785 33.812 71.8937 28.6765 73.2203 27.0732Z" fill="#FFCA28"/>
<path d="M85.7213 40.9569C85.1434 40.9163 84.5982 40.6965 84.1668 40.2733C83.6866 39.8094 84.1098 39.4187 84.6795 39.7606C85.0214 39.9722 85.5341 40.1187 86.0143 40.0942L85.7213 40.9569Z" fill="#795548"/>
<path d="M83.8339 36.5462C83.4172 36.4763 83.1663 35.9021 83.2735 35.2638C83.3806 34.6255 83.8053 34.1647 84.222 34.2347C84.6386 34.3046 84.8896 34.8788 84.7824 35.5171C84.6752 36.1554 84.2506 36.6162 83.8339 36.5462Z" fill="#404040"/>
<path d="M84.7608 33.886C85.4282 34.2767 85.7212 33.8535 85.5828 33.414C85.477 33.0884 85.1026 32.7385 84.2155 32.6815C83.3772 32.6245 82.9377 33.007 82.6529 33.2268C82.368 33.4465 82.3192 33.7395 82.4983 33.8046C82.7343 33.8942 83.9388 33.3977 84.7608 33.886Z" fill="#6D4C41"/>
<path d="M77.5989 34.9734L77.1269 33.9072C76.8176 33.2968 76.5327 32.7515 76.0037 32.7759C74.4492 32.8329 74.2376 35.5512 75.9061 36.4628C75.9061 36.4628 75.255 38.416 73.2691 38.5869C73.0575 38.6032 72.8785 38.6032 72.7157 38.5951C72.1948 38.5625 71.8611 38.0986 71.8123 37.5859C71.5275 34.3548 70.3799 34.7862 70.3067 31.0668C70.209 25.9639 75.1573 23.4653 79.4219 23.8804C81.0822 24.0432 82.7344 24.5803 84.1261 25.5163C84.7202 25.9069 86.7467 27.4451 87.0479 28.5927C87.4385 30.0495 86.4456 31.0668 86.4456 31.0668C86.4456 31.0668 82.1077 30.0088 80.0242 30.1065C79.7475 30.1227 79.4301 30.1553 79.2755 30.3832C79.2022 30.4808 79.0638 31.1482 79.0313 31.2703C78.6813 32.7841 78.6569 33.777 78.0384 34.6641C77.9407 34.8106 77.5989 34.9734 77.5989 34.9734Z" fill="#543930"/>
<path d="M43.1155 49.3868C43.4003 47.3766 44.4095 44.5606 46.3628 42.9899C47.9579 42.6725 49.0567 44.113 50.8553 45.3501C50.9367 45.3501 51.0181 45.3745 51.0913 45.4233C51.0913 45.4233 59.9299 50.5425 66.099 55.8652C66.7908 56.4593 67.7267 57.3464 68.1418 58.1522C68.5894 58.9986 69.1266 60.0648 68.4185 61.432C67.7105 62.7993 63.5191 67.9918 63.5191 67.9918C63.4865 68.1871 56.4221 67.8697 56.4059 67.6663C56.3652 67.1617 56.4221 65.9978 57.9522 61.2367C55.3641 59.9915 46.6965 57.1755 43.8479 53.4969C43.0503 52.2272 42.8387 50.7541 43.1155 49.3868Z" fill="#C8C8C8"/>
<path d="M52.7109 69.6445L57.472 61.392C57.5371 61.3024 57.6266 61.2292 57.7324 61.2129C57.8382 61.1966 57.9603 61.2129 58.0417 61.278L65.2607 66.5844C65.3502 66.6495 65.4072 66.739 65.4316 66.853C65.4682 67.0239 65.4235 67.0727 65.3584 67.1623L59.4334 74.072L61.3297 76.7577C62.0866 77.8971 62.0703 79.3621 61.2972 80.4852C61.2972 80.4852 60.6135 81.6165 60.0357 81.7142C59.7915 81.7549 59.5067 81.7793 59.1893 81.5188L49.8624 74.9916C49.3171 74.6091 49.3333 73.7302 49.9193 72.5338C50.367 71.606 52.3121 69.9701 52.7109 69.6445Z" fill="#444444"/>
<path d="M79.0801 36.6758C79.0557 39.565 79.5196 41.3148 79.9835 42.6821C78.2907 42.56 77.7779 39.744 77.3873 37.4896C77.0048 35.2434 77.0455 33.0378 77.0455 33.0378L79.7394 32.582C79.7312 32.5902 79.0801 35.1538 79.0801 36.6758Z" fill="#2A2725"/>
<path d="M78.7138 22.0016C78.9905 21.9934 79.7067 22.0179 79.9672 22.0504C81.4647 22.2376 83.4261 22.9538 84.6387 23.8653C86.3723 25.1757 87.8047 26.8197 89.0011 28.5369C89.6033 29.3996 92.7692 29.9612 92.3298 31.2796C91.4345 33.9328 86.0142 31.4831 84.1179 31.7354C82.6936 31.9226 81.3589 32.5086 79.959 32.8016C77.436 33.3306 74.9049 33.6887 72.3412 33.9491C71.975 33.9898 71.6169 33.9898 71.2425 33.9817C70.6728 33.9654 70.0054 34.0631 69.8589 33.4364C69.6962 32.7527 69.452 31.9226 69.4195 31.2308C69.2079 26.6081 72.8865 22.1399 78.7138 22.0016Z" fill="#5D6266"/>
<path d="M77.672 53.8871C77.6476 53.708 77.9894 53.0244 78.551 51.9989C79.0637 51.0629 79.2835 50.7211 80.7484 50.4118C81.3751 50.2816 82.9215 50.2165 82.9866 50.4688C83.2389 51.421 82.2297 51.7303 82.2785 51.7629C83.7597 51.7466 84.0772 52.0884 84.1504 52.65C84.2643 53.4964 83.776 53.5045 83.833 53.7731C83.89 54.0498 84.598 53.9684 84.5573 55.0102C84.5736 55.6776 84.0283 55.6938 84.0446 56.1252C84.0609 56.5565 84.8096 56.3775 84.8585 57.1018C84.9073 57.8262 84.1667 57.8343 84.1585 58.1354C84.1423 58.4366 84.9968 58.7377 84.6794 59.4458C84.598 59.6085 84.0853 59.6085 83.8655 59.6411C82.2378 60.1213 78.6568 59.3155 78.494 59.283C78.3231 59.2504 78.1848 59.1039 78.1766 58.9249L77.672 53.8871Z" fill="url(#paint1_linear_77_32)"/>
<path d="M46.3138 42.9664C46.3138 42.9664 54.1188 36.5857 61.4924 35.8776C68.866 35.1696 71.0716 35.5846 71.8529 36.5776C72.6342 37.5705 72.6342 39.9144 73.7004 41.4689C74.7665 43.0315 76.0443 43.1699 76.0443 43.1699C76.0443 43.1699 75.9059 45.8638 75.6211 48.346C75.3362 50.8283 74.6282 52.9525 74.6282 52.9525L77.6883 53.9454C77.6883 53.9454 78.1766 54.7919 78.315 56.3545C78.4533 57.9171 78.5184 59.3495 78.5184 59.3495C78.5184 59.3495 78.315 59.9762 75.6862 59.9762C73.0655 59.9762 68.7195 59.6751 68.0114 58.4705C66.164 55.329 66.7499 49.1192 66.7499 49.1192C66.7499 49.1192 63.6328 49.9005 61.8586 50.1121C60.0844 50.3237 58.7741 50.6574 57.1789 49.4041C56.2348 48.6553 51.5063 45.644 50.1552 44.936C48.7961 44.2442 46.3138 42.9664 46.3138 42.9664Z" fill="#FF8E00"/>
<defs>
<linearGradient id="paint0_linear_77_32" x1="77.8796" y1="56.2804" x2="86.2404" y2="55.4682" gradientUnits="userSpaceOnUse">
<stop offset="0.19" stop-color="#FFB300"/>
<stop offset="0.936" stop-color="#FFB300"/>
</linearGradient>
<linearGradient id="paint1_linear_77_32" x1="84.1183" y1="54.6282" x2="78.7177" y2="55.8235" gradientUnits="userSpaceOnUse">
<stop offset="0.5" stop-color="#FFCA28"/>
<stop offset="0.952" stop-color="#FFCA28"/>
</linearGradient>
</defs>
</svg>
