<svg width="128" height="128" viewBox="0 0 128 128" fill="none" xmlns="http://www.w3.org/2000/svg">
<path d="M11.49 48.9707C7.71002 54.5707 7.17002 59.3907 6.29002 66.1607C5.49002 72.3207 4.69002 76.8407 3.32002 81.5907C7.08002 80.1607 12.46 76.1407 12.71 67.2307" fill="#9B6A57"/>
<path d="M39.14 62.1092C46.08 59.7292 50.2 65.1392 50.33 67.9392C50.75 76.7792 52.08 99.7492 50.54 102.739C49.25 105.249 46.52 105.789 41.73 105.789C39.57 105.789 35.22 105.519 33.6 103.299C32.34 101.569 33.61 98.2992 33.91 95.1692C34.33 90.7392 34.1 84.1792 33.25 78.6492C32.22 72.0192 32.2 64.4792 39.14 62.1092Z" fill="url(#paint0_linear_77_52)"/>
<path d="M45.95 101.409C47.19 101.289 48.06 103.459 48.46 104.789C47.28 105.389 45.71 105.649 43.69 105.739C43.86 103.779 44.13 101.589 45.95 101.409ZM40.19 101.979C41.45 102.189 42.03 104.219 42.26 105.789C42.08 105.789 41.91 105.799 41.72 105.799C40.59 105.799 38.87 105.719 37.25 105.339C38.04 103.089 38.93 101.769 40.19 101.979Z" fill="#9E9E9E"/>
<path d="M108.32 87.5595C108.32 87.5595 99.39 88.9595 93.72 77.9795C91.01 72.7295 91.88 67.7795 91.88 67.7795L97.66 61.7695L108.32 87.5595Z" fill="#F7CC93"/>
<path d="M72.75 72.4597C72.8 72.2297 73.72 61.9297 82.57 62.0997C91.42 62.2797 93.73 65.7697 94.22 68.8397C95.13 74.5797 93.7 83.2197 93.26 87.0797C92.73 91.7397 91.67 96.4197 92.27 101.12C92.57 103.45 93.09 105.76 93.67 108.04C94.74 112.26 94.51 114.28 92.05 115.8C89.78 117.21 86.76 117.53 84.16 117.53C79.75 117.53 73.35 116.39 73.52 110.83C73.57 109.21 74.04 107.63 74.33 106.03C75.42 100.07 74.68 91.2197 73.02 84.6397C72.32 81.8297 71.85 76.6197 72.75 72.4597Z" fill="url(#paint1_linear_77_52)"/>
<path d="M92.92 111.989C93.21 111.929 93.62 111.869 94.2 112.549C94.21 112.559 94.21 112.569 94.22 112.579C94.05 113.979 93.39 114.969 92.06 115.799C91.89 115.899 91.72 115.989 91.55 116.079C91.54 114.599 91.8 112.209 92.92 111.989ZM87.27 112.989C88.93 112.989 90.05 115.289 90.5 116.549C88.7 117.239 86.66 117.479 84.77 117.509C84.95 115.199 85.8 112.989 87.27 112.989ZM80.79 113.709C82.23 113.909 82.79 116.229 83.04 117.499C81.29 117.419 79.37 117.139 77.71 116.499C78.39 114.759 79.65 113.549 80.79 113.709Z" fill="#C6C6C6"/>
<path d="M107.4 87.4593C109.66 87.6993 121.78 87.4093 124.27 76.8493C125.58 71.2993 123.4 62.9493 122.58 61.3893C121.62 59.5493 120.08 60.6693 120.25 62.5693C120.39 64.1093 120.9 72.5193 118.48 75.2293C113.39 80.9393 108.01 77.4793 108.01 77.4793L107.4 87.4593Z" fill="#F7CC93"/>
<path d="M14.26 45.09C17.81 41.22 22.59 38.9 27.47 37.17C32.07 35.54 37.66 34.67 40.34 31.19C43.25 27.41 46.34 26.07 46.34 26.07C44.61 25.6 40.25 26.29 40.25 26.29C40.25 26.29 45.83 18.59 56.19 20.65C54.98 19.06 51.76 17.47 51.76 17.47C51.76 17.47 65.13 11.38 74.34 26.5C74.72 27.12 94.51 65.66 94.51 65.66C92.6 71.42 86.25 79.24 78.73 83C76.6 84.06 70.74 85.79 70.74 85.79C70.74 85.79 68.02 92.56 68.36 100.5C68.59 105.79 69.99 110.69 70.24 116.34C70.36 119.08 69.53 120.93 67.05 122C64.46 123.11 61.79 123.6 58.97 123.6C55.98 123.6 51.13 122.97 48.91 120.36C46.49 117.5 48.46 110.92 48.86 107.22C49.26 103.47 49.46 90.42 46.16 85.37C46.16 85.37 43.75 85.35 41.76 85.09C31.99 83.83 27.81 82.93 27.81 82.93C26.21 86.49 28.06 97.31 28.36 99.41C28.85 102.84 29.58 106.14 28.17 108.01C26.13 110.71 21.52 111.3 18.52 111.3C15.83 111.3 11.94 110.97 9.82001 109.02C7.63001 106.99 8.78001 102.25 9.23001 99.66C10.63 91.6 12.57 84.79 11.32 76.6C10.75 72.85 9.57001 67.17 9.57001 62.13C9.55001 62.1 7.20001 52.8 14.26 45.09Z" fill="url(#paint2_radial_77_52)"/>
<path d="M41.81 39.5594C38.83 55.3694 49.84 62.2593 49.84 62.2593C50.19 55.9793 52.56 53.3994 52.56 53.3994C52.56 53.3994 51.03 63.9293 61.19 72.6093C61.19 72.6093 59.1 64.7293 60.68 60.9093C62.4 66.4393 66.81 69.2194 68.75 72.4394C72.83 79.2194 70.75 85.7994 70.75 85.7994C70.75 85.7994 74.23 85.5694 82.67 81.7294C91.61 77.6594 95.74 70.3693 95.79 62.2093C95.79 62.2093 103.25 30.2093 76.6 23.4793C47.3 16.0993 41.81 39.5594 41.81 39.5594Z" fill="url(#paint3_linear_77_52)"/>
<path d="M66.3 118.28C67.37 118.18 68.6 119.31 69.02 120.65C68.58 121.18 67.94 121.61 67.04 122C66.14 122.39 65.22 122.7 64.3 122.94C64.32 121.64 64.64 118.43 66.3 118.28ZM59.95 118.71C62.06 118.93 62.72 122.17 62.89 123.25C61.6 123.49 60.29 123.6 58.95 123.6C58.24 123.6 57.41 123.57 56.54 123.49C56.94 120.83 58.27 118.53 59.95 118.71ZM52.98 118.7C54.2 119.1 54.81 121.82 54.92 123.28C52.94 122.95 50.94 122.31 49.59 121.1C50.49 119.74 51.72 118.28 52.98 118.7ZM25.32 105.94C26.33 105.85 27.57 107.05 27.97 108.31C27.55 108.81 26.88 109.38 26.03 109.74C25.13 110.13 24.42 110.49 23.37 110.73C23.4 109.51 23.76 106.08 25.32 105.94ZM19.35 106.34C21.34 106.54 22.02 109.92 22.18 110.94C20.97 111.16 19.77 111.28 18.5 111.28C17.83 111.28 16.89 111.25 16.07 111.18C16.44 108.68 17.77 106.18 19.35 106.34ZM12.79 106.33C13.94 106.71 14.52 109.66 14.62 111.04C12.76 110.73 10.65 109.96 9.56002 108.73C10.4 107.45 11.6 105.94 12.79 106.33Z" fill="#C6C6C6"/>
<path d="M103.28 87.6307C101.07 81.6807 98.78 77.1707 95.13 72.0307C91.26 66.5707 87.09 62.7807 85.86 62.4007C84.61 62.0207 82.46 60.7007 81.12 60.1907C77.56 58.8407 74.92 56.5807 75.01 54.4807C75.17 50.6207 67.16 37.7607 73.85 27.7907C76.03 24.5407 79.6 22.2007 83.15 20.5507C86.87 18.8207 90.43 16.8507 94.57 16.2307C98.53 15.6307 96.36 19.3407 99.57 21.7507C107.17 27.4507 107.26 34.6907 108.47 37.0907C109.68 39.4907 111.43 40.5907 111.32 43.5507C111.21 46.2107 110.43 46.7907 110.28 49.4007C110.13 52.0107 111.61 61.1107 112.75 64.4607C114.87 70.6807 116.12 77.2407 116.37 83.8507C116.71 92.8007 113.59 102.621 105.89 107.201C103.96 108.351 101.57 109.121 99.49 108.281C97.41 107.441 96.28 104.381 97.91 102.841C98.85 101.951 100.28 101.871 101.44 101.311C103.35 100.391 104.42 98.2307 104.6 96.1207C104.85 93.4807 104.2 90.1107 103.28 87.6307Z" fill="#9B6A57"/>
<path d="M89.3774 47.2218C88.0376 47.0774 87.0953 45.625 87.2728 43.9777C87.4502 42.3304 88.6802 41.1119 90.02 41.2563C91.3598 41.4006 92.3021 42.853 92.1247 44.5003C91.9472 46.1476 90.7173 47.3661 89.3774 47.2218Z" fill="#212121"/>
<path d="M90.78 90.5706C113.13 91.2906 117.01 62.0806 117.23 61.1406C117.58 59.6906 115.91 58.9906 115.03 60.6306C114.26 62.0806 102.59 86.4006 91 80.7506C86.21 78.4106 85.86 62.3406 88.18 58.8406C89.41 56.9906 79.65 56.3906 79.65 56.3906C77.23 61.6506 75.25 79.8206 83.9 87.4906C85.9 89.2806 88.17 90.4106 90.78 90.5706Z" fill="#FADCB2"/>
<path d="M88.41 56.9796C89.59 58.5296 89.02 61.8696 88.41 63.3096C87.28 65.9796 84.43 68.3696 84.43 68.3696L83.59 65.3896L81.16 68.3696L79.42 65.1096C79.42 65.1096 78.71 67.2896 77.28 68.5396C77.28 68.5396 75.55 63.9996 74.16 61.5496C72.41 58.4596 70.54 58.7196 70.25 54.5096M90.15 9.8796C97.63 12.2796 101.54 10.9096 101.54 10.9096C101.54 10.9096 101.28 15.8496 97.82 15.9196C101.89 16.5196 104.14 18.3896 106.63 22.5796C106.63 22.5796 99.07 22.5296 98.26 22.9996C98.26 22.9996 97.31 29.2796 77.13 34.1396C74.2 34.8496 65.32 32.9096 65.36 30.1596C65.39 27.9896 65.85 26.4096 67.03 24.2496C67.03 24.2496 64.63 24.8796 63.3 23.1596C64.8 22.1496 66.41 19.5796 67.36 18.0496C69.96 13.8996 73.32 10.7096 77.27 9.4196C81.75 7.9596 85.7 8.4496 90.15 9.8796Z" fill="#9B6A57"/>
<path d="M96.07 18.9609C96.79 19.7109 97.43 20.5009 97.91 21.3709C98.41 22.2209 98.76 23.1409 99.01 24.0709C99.27 25.0009 99.39 25.9509 99.42 26.9109C99.47 27.8409 99.41 28.8609 99.25 29.6709L101.23 28.9009L97.8 25.9109L96.11 24.4009C95.56 23.9009 94.98 23.4009 94.5 22.9209L92.33 20.7709L92.03 23.8309L91.66 27.5309C91.54 28.7609 91.45 30.0009 91.35 31.2409L93.33 29.9809C92.56 29.7109 91.82 29.4109 91.08 29.0809C90.35 28.7509 89.64 28.3609 88.97 27.9309C88.31 27.4809 87.65 27.0309 87.06 26.5009C86.48 25.9909 85.9 25.3509 85.52 24.8209L84.41 23.3209L83.84 24.8309C83.63 25.3809 83.32 25.9909 82.98 26.5409C82.65 27.1109 82.28 27.6509 81.85 28.1509C81 29.1509 79.94 30.0009 78.6 30.4409C80.01 30.4509 81.44 29.8309 82.6 28.9409C83.1819 28.4881 83.7209 27.9827 84.21 27.4309C84.69 26.8609 85.12 26.3009 85.52 25.6009H83.85C84.28 26.6109 84.81 27.3309 85.43 28.0709C86.04 28.7909 86.72 29.4609 87.46 30.0309C88.2 30.6009 88.99 31.1209 89.8 31.5809C90.61 32.0509 91.47 32.4009 92.33 32.7509L94.13 33.4809L94.31 31.4909C94.42 30.2509 94.55 29.0209 94.65 27.7809L94.94 24.0709L92.45 25.0009C93.06 25.5809 93.64 26.0809 94.24 26.5709L96.04 28.0109C97.25 28.9509 98.44 29.9009 99.69 30.8109L101.51 32.1409L101.66 30.0509C101.75 28.8209 101.65 27.7809 101.47 26.6709C101.26 25.5809 100.93 24.5209 100.46 23.5309C99.98 22.5409 99.36 21.6209 98.62 20.8409C97.87 20.0609 97 19.4209 96.07 18.9609Z" fill="#6A463E"/>
<path d="M71.34 30.1596C68.48 28.6096 63.72 28.6396 60.98 29.8896C50.83 34.5296 54.36 48.0696 54.36 48.0696C55.61 46.4796 57.94 43.7396 57.94 43.7396C57.66 49.5996 61.94 54.3896 61.94 54.3896C62.12 53.6196 63.05 51.4996 63.34 50.9496C65.94 54.8596 68.6 61.5996 68.6 61.5996C71.16 60.5796 74.33 57.6596 75.2 55.8296C75.69 54.7996 80 47.5696 76.22 36.0596C75.25 33.0896 74.26 31.7396 71.34 30.1596Z" fill="#9B6A57"/>
<path d="M69.44 28.6807C72.81 29.6907 74.9 31.6507 75.87 32.7707C76.28 33.2407 76.69 34.2907 75.46 33.2307C74.25 32.1807 65.57 26.7307 58.78 33.2007C54.26 37.5007 55.42 45.3407 55.42 45.3407C57.4 42.3907 59.22 41.8307 59.22 41.8307C59.22 41.8307 57.75 49.0607 61.5 52.3107C61.5 52.3107 62.56 49.3907 63.64 49.0907C63.64 49.0907 64.29 52.0507 65.95 53.9907C67.47 55.7707 68.4 58.0707 68.98 60.1607C75.71 57.7907 76.37 50.1007 76.38 50.0307L76.55 48.1007C76.95 48.3907 77.99 52.3007 75.66 56.3807C72.9 61.2207 68.21 62.6307 67.25 62.2707C67.25 62.2707 67.85 59.1107 64.87 55.5507C63.94 54.4407 63.2 53.0807 63.2 53.0807C62.76 53.7607 62.46 55.8107 62.46 55.8107C62.46 55.8107 57.19 53.1607 57.15 46.4407C56.03 47.1107 54.5 49.7207 54.5 49.7207C54.5 49.7207 50.1 42.6807 55.57 33.3907C59.11 27.3707 66.36 27.7507 69.44 28.6807Z" fill="#6A463E"/>
<path d="M36.53 79.3498C36.53 79.3498 35.06 74.0598 37.27 70.7898C39.27 74.0898 41.46 81.4398 41.46 81.4398C41.46 81.4398 43.32 79.2098 42.2 74.4598C46 80.9298 46.18 85.3699 46.18 85.3699C46.18 85.3699 43.46 85.2498 41.78 85.0898C38.01 84.7398 27.83 82.9298 27.83 82.9298C27.83 82.9298 27.2 77.8398 23.02 72.3298C26.15 73.6698 26.62 74.5998 28.35 77.5398C26.26 70.0098 29.33 64.8398 29.33 64.8398C29.85 77.6098 36.53 79.3498 36.53 79.3498Z" fill="#85574A"/>
<path d="M15.69 44.6298C17.85 41.3698 20.42 40.1598 22.17 39.2798C23.96 38.3798 25.83 37.6698 27.7 36.9498C35.02 34.1598 38.83 32.6898 39.07 32.5098C38.67 32.8098 35.95 38.4398 34.93 44.7598C34.93 44.7598 33.41 38.3498 33.35 36.5998C31.95 40.9298 28.19 43.0898 25.68 50.0698C24.05 45.6998 26.01 42.2598 25.82 40.0198C22.29 43.7398 21.08 49.3198 20.52 54.3898C18.78 51.8798 18.24 47.7798 18.1 45.0398C15.17 49.2998 14.1 54.1098 14.1 54.1098C14.1 54.1098 12.55 49.3698 15.69 44.6298Z" fill="#BD816A"/>
<path d="M23.5015 37.6423C23.7498 37.2072 25.799 36.9409 28.195 35.8891C30.5875 34.831 42.0614 27.6863 42.0614 27.6863C42.0614 27.6863 44.4261 31.1398 45.8243 35.3755C47.2226 39.6113 47.7903 42.5823 46.3589 43.5769C44.9239 44.5652 41.6962 46.9291 37.7425 48.7522C33.7914 50.5654 30.2399 51.016 28.3042 49.7784C26.3685 48.5408 24.8874 45.6737 24.2796 43.4916C23.2695 39.8109 23.1512 38.2613 23.5015 37.6423Z" fill="#37B5E1"/>
<path d="M35.0119 35.6173C35.0119 35.6173 32.5156 37.2056 30.5972 37.339C28.6752 37.466 26.6701 37.2275 26.0846 36.7166C25.4991 36.2057 25.1495 35.2668 26.4343 34.8434C27.719 34.42 30.298 34.2162 31.8161 33.5935C33.3342 32.9709 36.2972 31.3628 36.2972 31.3628L42.4772 37.3233L52.268 54.5363C52.268 54.5363 50.7388 55.46 49.5765 55.8814C48.408 56.3065 46.6541 56.8183 46.6541 56.8183L35.0119 35.6173Z" fill="#0468A6"/>
<path d="M58.6476 33.8901C58.6232 33.7111 63.3192 31.8717 64.2389 31.7578C65.126 31.7171 65.7364 31.7822 66.0375 31.9612C66.3224 32.1159 66.5258 32.3845 66.6072 32.7019C66.6805 32.9867 66.6398 33.2878 66.5096 33.4994C66.477 33.5483 66.5096 33.7192 66.6072 33.8006C66.949 34.0773 67.1444 34.4435 67.1769 34.826C67.2095 35.2818 67.0304 35.5585 66.7374 35.8434C67.0793 36.1526 67.242 36.3317 67.2339 36.82C67.2013 37.4304 66.7456 37.7478 66.7374 37.7234C66.7456 37.756 66.9816 38.049 66.8921 38.521C66.827 38.9198 66.2654 39.2697 65.7771 39.4814C65.4597 39.6116 65.3376 39.5872 64.8656 39.6604C63.3355 40.0918 59.6568 39.3349 59.494 39.3023C59.3231 39.2698 59.1848 39.1233 59.1766 38.9442L58.6476 33.8901Z" fill="url(#paint4_linear_77_52)"/>
<path d="M54.2203 7.07318C56.2712 4.58276 60.365 2.99572 63.4414 3.9398C66.8922 4.99783 68.4466 7.79752 68.5117 11.0937C68.5362 12.2819 68.349 13.4457 68.0316 14.2433C67.9909 14.3329 67.706 15.0328 67.6572 15.2525C67.4049 16.1071 68.9675 17.1977 69.0408 18.1824C69.0896 18.9231 67.5188 19.1835 67.3805 19.2893C66.6968 19.859 67.0468 23.3505 62.8635 23.0982C61.2602 23.0005 61.0079 22.5773 60.5033 22.5203C57.8501 22.2274 55.7748 23.8795 55.7748 23.8795L51.5671 18.9068C51.5671 18.9068 54.2691 16.9128 54.1633 16.6198C53.1785 13.812 52.8937 8.6765 54.2203 7.07318Z" fill="#FFCA28"/>
<path d="M66.7213 20.9569C66.1434 20.9163 65.5982 20.6965 65.1668 20.2733C64.6866 19.8094 65.1098 19.4187 65.6795 19.7606C66.0214 19.9722 66.5341 20.1187 67.0143 20.0942L66.7213 20.9569Z" fill="#795548"/>
<path d="M64.8339 16.5462C64.4172 16.4763 64.1663 15.9021 64.2735 15.2638C64.3806 14.6255 64.8053 14.1647 65.222 14.2347C65.6386 14.3046 65.8896 14.8788 65.7824 15.5171C65.6752 16.1554 65.2506 16.6162 64.8339 16.5462Z" fill="#404040"/>
<path d="M65.7608 13.886C66.4282 14.2767 66.7212 13.8535 66.5828 13.414C66.477 13.0884 66.1026 12.7385 65.2155 12.6815C64.3772 12.6245 63.9377 13.007 63.6529 13.2268C63.368 13.4465 63.3192 13.7395 63.4983 13.8046C63.7343 13.8942 64.9388 13.3977 65.7608 13.886Z" fill="#6D4C41"/>
<path d="M58.5989 14.9734L58.1269 13.9072C57.8176 13.2968 57.5327 12.7515 57.0037 12.7759C55.4492 12.8329 55.2376 15.5512 56.9061 16.4628C56.9061 16.4628 56.255 18.416 54.2691 18.5869C54.0575 18.6032 53.8785 18.6032 53.7157 18.5951C53.1948 18.5625 52.8611 18.0986 52.8123 17.5859C52.5275 14.3548 51.3799 14.7862 51.3067 11.0668C51.209 5.96389 56.1573 3.46533 60.4219 3.8804C62.0822 4.04317 63.7344 4.58032 65.1261 5.51627C65.7202 5.90692 67.7467 7.44513 68.0479 8.59268C68.4385 10.0495 67.4456 11.0668 67.4456 11.0668C67.4456 11.0668 63.1077 10.0088 61.0242 10.1065C60.7475 10.1227 60.4301 10.1553 60.2755 10.3832C60.2022 10.4808 60.0638 11.1482 60.0313 11.2703C59.6813 12.7841 59.6569 13.777 59.0384 14.6641C58.9407 14.8106 58.5989 14.9734 58.5989 14.9734Z" fill="#543930"/>
<path d="M24.1155 29.3868C24.4003 27.3766 25.4095 24.5606 27.3628 22.9899C28.9579 22.6725 30.0567 24.113 31.8553 25.3501C31.9367 25.3501 32.0181 25.3745 32.0913 25.4233C32.0913 25.4233 40.9299 30.5425 47.099 35.8652C47.7908 36.4593 48.7267 37.3464 49.1418 38.1522C49.5894 38.9986 50.1266 40.0648 49.4185 41.432C48.7105 42.7993 44.5191 47.9918 44.5191 47.9918C44.4865 48.1871 37.4221 47.8697 37.4059 47.6663C37.3652 47.1617 37.4221 45.9978 38.9522 41.2367C36.3641 39.9915 27.6965 37.1755 24.8479 33.4969C24.0503 32.2272 23.8387 30.7541 24.1155 29.3868Z" fill="#C8C8C8"/>
<path d="M33.7109 49.6445L38.472 41.392C38.5371 41.3024 38.6266 41.2292 38.7324 41.2129C38.8382 41.1966 38.9603 41.2129 39.0417 41.278L46.2607 46.5844C46.3502 46.6495 46.4072 46.739 46.4316 46.853C46.4682 47.0239 46.4235 47.0727 46.3584 47.1623L40.4334 54.072L42.3297 56.7577C43.0866 57.8971 43.0703 59.3621 42.2972 60.4852C42.2972 60.4852 41.6135 61.6165 41.0357 61.7142C40.7915 61.7549 40.5067 61.7793 40.1893 61.5188L30.8624 54.9916C30.3171 54.6091 30.3333 53.7302 30.9193 52.5338C31.367 51.606 33.3121 49.9701 33.7109 49.6445Z" fill="#444444"/>
<path d="M60.0801 16.6758C60.0557 19.565 60.5196 21.3148 60.9835 22.6821C59.2907 22.56 58.7779 19.744 58.3873 17.4896C58.0048 15.2434 58.0455 13.0378 58.0455 13.0378L60.7394 12.582C60.7312 12.5902 60.0801 15.1538 60.0801 16.6758Z" fill="#2A2725"/>
<path d="M59.7138 2.00158C59.9905 1.99344 60.7067 2.01785 60.9672 2.05041C62.4647 2.2376 64.4261 2.9538 65.6387 3.86533C67.3723 5.17565 68.8047 6.81966 70.0011 8.53691C70.6033 9.39961 73.7692 9.96118 73.3298 11.2796C72.4345 13.9328 67.0142 11.4831 65.1179 11.7354C63.6936 11.9226 62.3589 12.5086 60.959 12.8016C58.436 13.3306 55.9049 13.6887 53.3412 13.9491C52.975 13.9898 52.6169 13.9898 52.2425 13.9817C51.6728 13.9654 51.0054 14.0631 50.8589 13.4364C50.6962 12.7527 50.452 11.9226 50.4195 11.2308C50.2079 6.60805 53.8865 2.13993 59.7138 2.00158Z" fill="#5D6266"/>
<path d="M58.672 33.8871C58.6476 33.708 58.9894 33.0244 59.551 31.9989C60.0637 31.0629 60.2835 30.7211 61.7484 30.4118C62.3751 30.2816 63.9215 30.2165 63.9866 30.4688C64.2389 31.421 63.2297 31.7303 63.2785 31.7629C64.7597 31.7466 65.0772 32.0884 65.1504 32.65C65.2643 33.4964 64.776 33.5045 64.833 33.7731C64.89 34.0498 65.598 33.9684 65.5573 35.0102C65.5736 35.6776 65.0283 35.6938 65.0446 36.1252C65.0609 36.5565 65.8096 36.3775 65.8585 37.1018C65.9073 37.8262 65.1667 37.8343 65.1585 38.1354C65.1423 38.4366 65.9968 38.7377 65.6794 39.4458C65.598 39.6085 65.0853 39.6085 64.8655 39.6411C63.2378 40.1213 59.6568 39.3155 59.494 39.283C59.3231 39.2504 59.1848 39.1039 59.1766 38.9249L58.672 33.8871Z" fill="url(#paint5_linear_77_52)"/>
<path d="M27.3138 22.9664C27.3138 22.9664 35.1188 16.5857 42.4924 15.8776C49.866 15.1696 52.0716 15.5846 52.8529 16.5776C53.6342 17.5705 53.6342 19.9144 54.7004 21.4689C55.7665 23.0315 57.0443 23.1699 57.0443 23.1699C57.0443 23.1699 56.9059 25.8638 56.6211 28.346C56.3362 30.8283 55.6282 32.9525 55.6282 32.9525L58.6883 33.9454C58.6883 33.9454 59.1766 34.7919 59.315 36.3545C59.4533 37.9171 59.5184 39.3495 59.5184 39.3495C59.5184 39.3495 59.315 39.9762 56.6862 39.9762C54.0655 39.9762 49.7195 39.6751 49.0114 38.4705C47.164 35.329 47.7499 29.1192 47.7499 29.1192C47.7499 29.1192 44.6328 29.9005 42.8586 30.1121C41.0844 30.3237 39.7741 30.6574 38.1789 29.4041C37.2348 28.6553 32.5063 25.644 31.1552 24.936C29.7961 24.2442 27.3138 22.9664 27.3138 22.9664Z" fill="#FF8E00"/>
<defs>
<linearGradient id="paint0_linear_77_52" x1="42.005" y1="98.9382" x2="42.005" y2="82.7862" gradientUnits="userSpaceOnUse">
<stop offset="0.292" stop-color="#85574A"/>
<stop offset="1" stop-color="#6A463E"/>
</linearGradient>
<linearGradient id="paint1_linear_77_52" x1="83.385" y1="99.2237" x2="83.385" y2="80.4537" gradientUnits="userSpaceOnUse">
<stop stop-color="#9B6A57"/>
<stop offset="0.869" stop-color="#85574A"/>
</linearGradient>
<radialGradient id="paint2_radial_77_52" cx="0" cy="0" r="1" gradientUnits="userSpaceOnUse" gradientTransform="translate(69.487 44.436) rotate(180) scale(46.035 46.035)">
<stop offset="0.27" stop-color="#85574A"/>
<stop offset="0.859" stop-color="#9B6A57"/>
</radialGradient>
<linearGradient id="paint3_linear_77_52" x1="91.294" y1="77.2024" x2="51.733" y2="22.4133" gradientUnits="userSpaceOnUse">
<stop offset="0.137" stop-color="#754D41"/>
<stop offset="0.786" stop-color="#805447" stop-opacity="0.2481"/>
<stop offset="1" stop-color="#85574A" stop-opacity="0"/>
</linearGradient>
<linearGradient id="paint4_linear_77_52" x1="58.8796" y1="36.2804" x2="67.2404" y2="35.4682" gradientUnits="userSpaceOnUse">
<stop offset="0.19" stop-color="#FFB300"/>
<stop offset="0.936" stop-color="#FFB300"/>
</linearGradient>
<linearGradient id="paint5_linear_77_52" x1="65.1183" y1="34.6282" x2="59.7177" y2="35.8235" gradientUnits="userSpaceOnUse">
<stop offset="0.5" stop-color="#FFCA28"/>
<stop offset="0.952" stop-color="#FFCA28"/>
</linearGradient>
</defs>
</svg>
