<svg width="128" height="128" viewBox="0 0 128 128" fill="none" xmlns="http://www.w3.org/2000/svg">
<path d="M97.02 24.9997C97.3 24.8597 95.33 22.3997 94.63 21.1997C93.93 19.9997 93.36 18.0997 91.88 18.2397C90.4 18.3797 90.26 20.9897 90.33 22.1097C90.47 24.3597 91.74 26.8997 91.74 26.8997L97.02 24.9997Z" fill="#FFBD16"/>
<path d="M37.82 73.9199L79.73 81.6399C79.73 81.6399 79.28 84.3399 78.51 87.3699C77.74 90.3999 74.85 99.0499 74.99 102.64C75.13 106.23 77.88 113.48 76.89 115.03C75.9 116.58 72.31 116.51 70.2 116.02C68.09 115.53 65.88 114 65.6 113.09C65.32 112.18 65.98 104.06 65.91 102.16C65.84 100.26 65.42 96.5999 64.71 93.7799C64.01 90.9599 63.58 85.8299 63.58 85.8299L53.37 80.6199C53.37 80.6199 46.26 86.0399 44.29 88.9299C42.32 91.8199 40.84 98.0099 40.91 100.54C40.98 103.07 42.65 110.33 41.57 111.64C40.23 113.26 37.01 113.47 34.91 113.28C32.33 113.05 30.08 111.64 30.08 111.64V81.3099L37.82 73.9199Z" fill="#ADADB8"/>
<path d="M10.93 81.5904C12.62 81.5204 14.16 87.5904 13.68 90.2504C12.98 94.1204 10.16 95.4605 9.25001 96.7305C8.33001 98.0005 7.80001 99.5704 6.72001 100.04C5.59001 100.53 4.28001 95.1204 4.40001 90.9604C4.53001 85.8104 8.65001 81.6904 10.93 81.5904Z" fill="#4D4D4D"/>
<path d="M43.73 81.87L49.15 86.94C49.15 86.94 46.66 89.74 44.65 91.16C42.26 92.85 40 93.13 40 93.13C40 93.13 40.49 97.14 38.1 97.49C35.87 97.82 36.06 93.41 35.71 93.34C35.36 93.27 34.65 96.58 32.75 96.51C30.85 96.44 27.33 89.05 27.33 89.05L31.7 78L43.73 81.87Z" fill="#FEA8A7"/>
<path d="M83.83 29.0803C83.69 28.7303 85.24 27.3903 86.72 26.4103C88.2 25.4203 91.08 25.0703 91.08 25.0703L103.96 31.3303L111.77 38.8903C111.77 38.8903 115.05 41.1903 116.46 42.1703C117.87 43.1603 120.19 44.7303 121.39 45.5003C122.59 46.2703 123.57 46.7003 123.78 47.6103C123.99 48.5203 119.44 55.8903 119.44 55.8903L117.05 57.6503L111.35 57.1603C111.35 57.1603 103.75 60.6803 100.23 61.9503C96.71 63.2203 88.69 65.8203 88.69 65.8203C88.69 65.8203 87.21 69.8303 86.23 72.0803C85.24 74.3303 83.25 77.4503 83.25 77.4503L62.58 87.4203C62.58 87.4203 60.61 95.2303 60.26 97.2703C59.91 99.3103 59.49 105.01 59.63 107.76C59.77 110.51 60.35 115.03 60.26 116.21C60.17 117.52 58.98 119.16 57.23 119.45C54.34 119.92 50.89 118.89 49.42 116.85C47.95 114.81 49.77 109.18 49.98 106.85C50.19 104.53 51.19 99.2203 50.47 97.4903C49.27 94.6003 48.08 90.9403 47.87 89.6803C47.66 88.4103 47.17 86.3703 47.17 86.3703C47.17 86.3703 43.37 86.4403 40.27 86.0203C37.17 85.6003 34.08 84.9603 34.08 84.9603C34.08 84.9603 33.09 89.1103 32.95 91.6503C32.81 94.1803 32.32 99.1803 32.39 103.12C32.46 107.06 33.8 111.85 33.38 112.83C32.96 113.82 32.11 115.55 28.17 115.01C24 114.44 23.01 112.26 22.59 111.28C22.17 110.3 21.63 101.57 21.06 99.3103C20.5 97.0603 18.67 88.1903 17.68 85.1603C16.69 82.1303 13.03 70.8003 13.03 70.8003C13.03 70.8003 13.03 75.5203 12.75 77.4203C12.47 79.3203 11.91 83.4003 10.78 83.2603C9.65 83.1203 10.01 79.7403 9.94 77.4903C9.87 75.2403 10.01 72.0703 9.17 69.4003C8.33 66.7303 7.54 62.5003 7.48 62.0103C6.96 58.0203 7.55 53.3503 7.62 52.5803C7.69 51.8103 13.32 48.1503 13.32 48.1503C13.32 48.1503 13.18 45.2203 13.53 44.7903C13.88 44.3703 19.02 40.4703 20.62 40.1403C23.29 39.5903 25.99 40.5403 25.99 40.5403L40.9 51.6003L68.07 40.4803C68.07 40.4803 70.74 40.4103 71.59 40.4103C72.43 40.4103 76.45 38.7203 76.45 38.7203L81.1 34.4303L83.83 29.0803Z" fill="#DFDFDF"/>
<path d="M20.86 60.8295C21.44 55.5795 19.24 50.6895 17.9 48.5795C16.56 46.4695 15.06 44.5195 14.69 43.9595C14.34 43.4395 7.46002 49.5395 7.65002 52.4095C7.68002 52.9095 8.59002 58.8895 9.53002 61.6495C10.29 63.8995 12.18 69.4595 12.81 69.6695C13.44 69.8795 20.15 67.1595 20.86 60.8295ZM21.07 67.7895C22.95 67.7395 24.38 69.6195 26.07 71.5195C27.76 73.4195 29.1 74.8995 28.82 76.7995C28.54 78.6995 26.43 81.7995 22.56 81.3795C18.69 80.9595 17.63 77.0195 17.56 74.6195C17.48 72.2295 18.25 67.8595 21.07 67.7895ZM46.17 40.1495C55.81 40.2895 67.17 40.2395 68.37 40.5295C69.07 40.6895 66.61 49.1395 62.46 53.5095C58.31 57.8795 45.39 73.4495 35.85 69.3495C29.3 66.5295 30.57 57.3095 29.51 52.5295C28.45 47.7395 23.64 40.2595 23.64 40.2595C23.64 40.2595 38.36 40.0395 46.17 40.1495ZM67.67 25.4195C66.83 26.5695 71.33 33.0895 72.81 34.7795C74.29 36.4695 77.24 38.4395 77.24 38.4395C77.24 38.4395 74.75 39.3795 74.33 39.7295C73.91 40.0795 70.51 46.3195 70.48 48.0795C70.43 51.1295 76.96 58.9195 79.98 58.8495C83.01 58.7795 90.33 53.9195 91.31 52.5895C92.3 51.2495 93.56 39.5695 92.08 35.7695C90.6 31.9695 87.72 29.0095 86.87 28.8695C86.02 28.7295 84.97 29.0095 84.97 29.0095C84.97 29.0095 81.59 26.5495 76.52 25.6295C71.45 24.7095 68.23 24.6495 67.67 25.4195Z" fill="#4D4D4D"/>
<path d="M83.01 36.8193C83.5 36.2593 82.3 32.2293 79 29.8493C75.48 27.3193 71.75 27.3893 71.12 27.8793C70.42 28.4193 72.57 32.3993 75.27 34.4293C78.65 36.9593 82.52 37.3893 83.01 36.8193Z" fill="#FFD1B3"/>
<path d="M111.59 44.7805C111.59 44.7805 107.37 36.3305 104.06 33.9405C100.75 31.5505 97.33 30.6605 94.42 29.6505C89.99 28.1005 88.3 24.7905 88.3 24.7905C88.3 24.7905 94.21 23.4505 99.14 24.9305C102.77 26.0205 106.46 28.3805 108.01 30.2805C109.56 32.1805 110.57 35.6005 111.67 37.3905C113.01 39.5705 116.22 41.9705 116.22 41.9705C116.22 41.9705 115.12 42.2005 113.83 43.0505C113.28 43.4005 111.59 44.7805 111.59 44.7805Z" fill="#4D4D4D"/>
<path d="M90.47 26.4091C90.31 26.9791 89.86 28.2291 88.85 28.9391C87.66 29.7891 85.81 30.0291 84.63 29.5691C82.45 28.7291 81.7 23.8691 81.53 22.3891C81.25 19.8591 81.67 17.7391 83.01 17.9591C83.92 18.0991 86.6 21.4491 87.37 22.0391C88.57 22.9591 91.04 24.3591 90.47 26.4091Z" fill="#FFBD16"/>
<path d="M101.5 37.9496C100.98 37.7196 100.23 36.0696 98.73 36.2096C97.23 36.3496 96.05 38.1096 96.52 40.0996C96.99 42.0696 98.22 42.6696 99.57 42.3996C100.74 42.1696 101.31 40.8496 101.54 40.6596C101.77 40.4696 104.12 40.2396 104.07 39.2496C104.03 38.2796 101.5 37.9496 101.5 37.9496Z" fill="#1B1B1B"/>
<path d="M120.69 55.5903C121.11 56.1103 120.26 57.7703 118.44 58.4103C116.21 59.1803 114.71 59.1403 113.07 58.7203C111.75 58.3803 110.51 57.5703 110.51 57.5703C110.51 57.5703 107.87 56.5603 109.03 55.2003C110.63 53.3203 112.62 56.3003 112.62 56.3003C112.62 56.3003 113.96 57.1203 116.4 56.7903C118.3 56.5303 119.57 54.8403 119.57 54.8403L120.69 55.5903Z" fill="#4D4D4D"/>
<path d="M115.02 50.1994C114.83 49.2294 114.53 48.5394 117.13 47.7594C119.8 46.9594 122.34 46.5394 123.42 47.0594C123.97 47.3194 124.64 50.1594 123.14 53.0194C122.29 54.6394 120.65 57.4294 119.86 57.0994C119.07 56.7694 117.63 54.3494 117.19 53.7694C116.56 52.9694 115.34 51.8394 115.02 50.1994Z" fill="#FCA4A7"/>
<path d="M116.66 49.7305C116.7 51.0905 118.77 52.5005 121.21 51.7905C123.65 51.0805 124.07 49.3005 123.93 48.2705C123.79 47.2405 121.91 48.2205 120.69 48.4605C119.47 48.7005 116.61 48.2705 116.66 49.7305Z" fill="#FFD3AF"/>
<path d="M57.81 69.53C60.01 70.03 62.13 73.8 61.89 76.94C61.68 79.71 59.38 83.12 55.7 83.51C52.18 83.89 49.6 80.65 49.69 77.74C49.76 75.58 52.15 74.42 53.49 72.81C55.65 70.23 56.36 69.2 57.81 69.53ZM82.4 68.97C83.53 69.44 83.9 71.36 84.09 72.54C84.28 73.72 84.09 75.97 83.53 77.14C82.97 78.31 79.82 83.38 78.93 84.09C78.04 84.79 74 86.53 69.45 87.19C64.9 87.85 62.5 87.61 62.5 87.61C62.5 87.61 63.77 85.03 64.75 82.64C65.74 80.25 67.14 76.16 69.02 73.96C70.9 71.76 80.36 68.12 82.4 68.97Z" fill="#4D4D4D"/>
<path d="M31.0212 39.4058C31.4274 39.1127 33.4028 39.7194 36.0193 39.7549C38.6351 39.7831 52.0381 38.0345 52.0381 38.0345C52.0381 38.0345 52.7594 42.1574 52.277 46.5918C51.7946 51.0262 51.0803 53.9654 49.3655 54.2776C47.65 54.5824 43.7329 55.3966 39.3792 55.4177C35.032 55.431 31.6129 54.3696 30.364 52.4412C29.115 50.5128 28.9549 47.2897 29.3059 45.0519C29.9115 41.2835 30.4459 39.8241 31.0212 39.4058Z" fill="#37B5E1"/>
<path d="M42.3357 42.333C42.3357 42.333 39.4057 42.7443 37.6044 42.0709C35.8025 41.3901 34.0764 40.3422 33.7552 39.6347C33.434 38.9271 33.5048 37.9277 34.8496 38.0747C36.1943 38.2217 38.6259 39.1048 40.2656 39.167C41.9053 39.2293 45.2683 38.9934 45.2683 38.9934L48.4232 46.9787L50.2024 66.7014C50.2024 66.7014 48.4279 66.9084 47.1954 66.8105C45.9558 66.7131 44.1475 66.4523 44.1475 66.4523L42.3357 42.333Z" fill="#0468A6"/>
<path d="M69.5696 39.8901C69.5452 39.7111 74.2412 37.8717 75.1609 37.7578C76.048 37.7171 76.6584 37.7822 76.9595 37.9612C77.2444 38.1159 77.4478 38.3845 77.5292 38.7019C77.6025 38.9867 77.5618 39.2878 77.4316 39.4994C77.399 39.5483 77.4316 39.7192 77.5292 39.8006C77.871 40.0773 78.0664 40.4435 78.0989 40.826C78.1315 41.2818 77.9524 41.5585 77.6594 41.8434C78.0013 42.1526 78.164 42.3317 78.1559 42.82C78.1233 43.4304 77.6676 43.7478 77.6594 43.7234C77.6676 43.756 77.9036 44.049 77.8141 44.521C77.749 44.9198 77.1874 45.2697 76.6991 45.4814C76.3817 45.6116 76.2596 45.5872 75.7875 45.6604C74.2575 46.0918 70.5788 45.3349 70.416 45.3023C70.2451 45.2698 70.1068 45.1233 70.0986 44.9442L69.5696 39.8901Z" fill="url(#paint0_linear_77_72)"/>
<path d="M65.1423 13.0732C67.1932 10.5828 71.2869 8.99572 74.3634 9.9398C77.8141 10.9978 79.3686 13.7975 79.4337 17.0937C79.4582 18.2819 79.271 19.4457 78.9536 20.2433C78.9129 20.3329 78.628 21.0328 78.5792 21.2525C78.3269 22.1071 79.8895 23.1977 79.9628 24.1824C80.0116 24.9231 78.4408 25.1835 78.3025 25.2893C77.6188 25.859 77.9688 29.3505 73.7855 29.0982C72.1822 29.0005 71.9299 28.5773 71.4253 28.5203C68.7721 28.2274 66.6968 29.8795 66.6968 29.8795L62.4891 24.9068C62.4891 24.9068 65.1911 22.9128 65.0853 22.6198C64.1005 19.812 63.8157 14.6765 65.1423 13.0732Z" fill="#FFCA28"/>
<path d="M77.6433 26.9569C77.0654 26.9163 76.5202 26.6965 76.0888 26.2733C75.6086 25.8094 76.0318 25.4187 76.6015 25.7606C76.9434 25.9722 77.4561 26.1187 77.9363 26.0942L77.6433 26.9569Z" fill="#795548"/>
<path d="M75.7559 22.5462C75.3392 22.4763 75.0883 21.9021 75.1955 21.2638C75.3026 20.6255 75.7273 20.1647 76.144 20.2347C76.5606 20.3046 76.8116 20.8788 76.7044 21.5171C76.5972 22.1554 76.1726 22.6162 75.7559 22.5462Z" fill="#404040"/>
<path d="M76.6828 19.886C77.3502 20.2767 77.6432 19.8535 77.5048 19.414C77.399 19.0884 77.0246 18.7385 76.1375 18.6815C75.2992 18.6245 74.8597 19.007 74.5749 19.2268C74.29 19.4465 74.2412 19.7395 74.4203 19.8046C74.6563 19.8942 75.8608 19.3977 76.6828 19.886Z" fill="#6D4C41"/>
<path d="M69.5209 20.9734L69.0488 19.9072C68.7396 19.2968 68.4547 18.7515 67.9257 18.7759C66.3712 18.8329 66.1596 21.5512 67.828 22.4628C67.828 22.4628 67.177 24.416 65.1911 24.5869C64.9795 24.6032 64.8005 24.6032 64.6377 24.5951C64.1168 24.5625 63.7831 24.0986 63.7343 23.5859C63.4495 20.3548 62.3019 20.7862 62.2287 17.0668C62.131 11.9639 67.0793 9.46533 71.3439 9.8804C73.0042 10.0432 74.6564 10.5803 76.0481 11.5163C76.6422 11.9069 78.6687 13.4451 78.9699 14.5927C79.3605 16.0495 78.3676 17.0668 78.3676 17.0668C78.3676 17.0668 74.0297 16.0088 71.9462 16.1065C71.6695 16.1227 71.3521 16.1553 71.1975 16.3832C71.1242 16.4808 70.9858 17.1482 70.9533 17.2703C70.6033 18.7841 70.5789 19.777 69.9604 20.6641C69.8627 20.8106 69.5209 20.9734 69.5209 20.9734Z" fill="#543930"/>
<path d="M35.0374 35.3868C35.3223 33.3766 36.3315 30.5606 38.2848 28.9899C39.8799 28.6725 40.9787 30.113 42.7773 31.3501C42.8587 31.3501 42.9401 31.3745 43.0133 31.4233C43.0133 31.4233 51.8519 36.5425 58.021 41.8652C58.7128 42.4593 59.6487 43.3464 60.0638 44.1522C60.5114 44.9986 61.0486 46.0648 60.3405 47.432C59.6325 48.7993 55.441 53.9918 55.441 53.9918C55.4085 54.1871 48.3441 53.8697 48.3279 53.6663C48.2872 53.1617 48.3441 51.9978 49.8742 47.2367C47.2861 45.9915 38.6185 43.1755 35.7699 39.4969C34.9723 38.2272 34.7607 36.7541 35.0374 35.3868Z" fill="#C8C8C8"/>
<path d="M44.6329 55.6445L49.394 47.392C49.4591 47.3024 49.5486 47.2292 49.6544 47.2129C49.7602 47.1966 49.8823 47.2129 49.9637 47.278L57.1827 52.5844C57.2722 52.6495 57.3292 52.739 57.3536 52.853C57.3902 53.0239 57.3455 53.0727 57.2803 53.1623L51.3554 60.072L53.2517 62.7577C54.0086 63.8971 53.9923 65.3621 53.2192 66.4852C53.2192 66.4852 52.5355 67.6165 51.9577 67.7142C51.7135 67.7549 51.4287 67.7793 51.1113 67.5188L41.7844 60.9916C41.2391 60.6091 41.2553 59.7302 41.8413 58.5338C42.289 57.606 44.2341 55.9701 44.6329 55.6445Z" fill="#444444"/>
<path d="M71.0021 22.6758C70.9777 25.565 71.4416 27.3148 71.9055 28.6821C70.2127 28.56 69.6999 25.744 69.3093 23.4896C68.9268 21.2434 68.9675 19.0378 68.9675 19.0378L71.6614 18.582C71.6532 18.5902 71.0021 21.1538 71.0021 22.6758Z" fill="#2A2725"/>
<path d="M70.6358 8.00158C70.9125 7.99344 71.6287 8.01785 71.8891 8.05041C73.3867 8.2376 75.3481 8.9538 76.5607 9.86533C78.2943 11.1757 79.7267 12.8197 80.9231 14.5369C81.5253 15.3996 84.6912 15.9612 84.2518 17.2796C83.3565 19.9328 77.9362 17.4831 76.0399 17.7354C74.6156 17.9226 73.2809 18.5086 71.881 18.8016C69.358 19.3306 66.8269 19.6887 64.2632 19.9491C63.897 19.9898 63.5389 19.9898 63.1645 19.9817C62.5948 19.9654 61.9274 20.0631 61.7809 19.4364C61.6182 18.7527 61.374 17.9226 61.3415 17.2308C61.1298 12.6081 64.8085 8.13993 70.6358 8.00158Z" fill="#5D6266"/>
<path d="M69.594 39.8871C69.5696 39.708 69.9114 39.0244 70.473 37.9989C70.9857 37.0629 71.2055 36.7211 72.6704 36.4118C73.2971 36.2816 74.8435 36.2165 74.9086 36.4688C75.1609 37.421 74.1517 37.7303 74.2005 37.7629C75.6817 37.7466 75.9992 38.0884 76.0724 38.65C76.1863 39.4964 75.698 39.5045 75.755 39.7731C75.812 40.0498 76.52 39.9684 76.4793 41.0102C76.4956 41.6776 75.9503 41.6938 75.9666 42.1252C75.9829 42.5565 76.7316 42.3775 76.7805 43.1018C76.8293 43.8262 76.0887 43.8343 76.0805 44.1354C76.0643 44.4366 76.9188 44.7377 76.6014 45.4458C76.52 45.6085 76.0073 45.6085 75.7875 45.6411C74.1598 46.1213 70.5788 45.3155 70.416 45.283C70.2451 45.2504 70.1068 45.1039 70.0986 44.9249L69.594 39.8871Z" fill="url(#paint1_linear_77_72)"/>
<path d="M38.2358 28.9664C38.2358 28.9664 46.0408 22.5857 53.4144 21.8776C60.788 21.1696 62.9936 21.5846 63.7749 22.5776C64.5562 23.5705 64.5562 25.9144 65.6223 27.4689C66.6885 29.0315 67.9663 29.1699 67.9663 29.1699C67.9663 29.1699 67.8279 31.8638 67.5431 34.346C67.2582 36.8283 66.5502 38.9525 66.5502 38.9525L69.6103 39.9454C69.6103 39.9454 70.0986 40.7919 70.237 42.3545C70.3753 43.9171 70.4404 45.3495 70.4404 45.3495C70.4404 45.3495 70.237 45.9762 67.6082 45.9762C64.9875 45.9762 60.6415 45.6751 59.9334 44.4705C58.086 41.329 58.6719 35.1192 58.6719 35.1192C58.6719 35.1192 55.5548 35.9005 53.7806 36.1121C52.0064 36.3237 50.6961 36.6574 49.1009 35.4041C48.1568 34.6553 43.4282 31.644 42.0772 30.936C40.7181 30.2442 38.2358 28.9664 38.2358 28.9664Z" fill="#FF8E00"/>
<defs>
<linearGradient id="paint0_linear_77_72" x1="69.8016" y1="42.2804" x2="78.1624" y2="41.4682" gradientUnits="userSpaceOnUse">
<stop offset="0.19" stop-color="#FFB300"/>
<stop offset="0.936" stop-color="#FFB300"/>
</linearGradient>
<linearGradient id="paint1_linear_77_72" x1="76.0403" y1="40.6282" x2="70.6397" y2="41.8235" gradientUnits="userSpaceOnUse">
<stop offset="0.5" stop-color="#FFCA28"/>
<stop offset="0.952" stop-color="#FFCA28"/>
</linearGradient>
</defs>
</svg>
