<svg width="128" height="128" viewBox="0 0 128 128" fill="none" xmlns="http://www.w3.org/2000/svg">
<path d="M7.60001 66.3893C10.26 62.0093 13.82 60.8293 13.82 60.8293C13.82 60.8293 14.58 56.5793 18.25 53.5293C22.1 50.3393 28.41 49.3793 36.13 49.9593C45.47 50.6593 54.01 57.0893 54.01 57.0893C54.01 57.0893 56.78 52.4393 60.25 50.0493C62.74 48.3293 69.78 44.2293 77.57 43.7593C87.55 43.1593 99.53 45.3093 99.53 45.3093C99.53 45.3093 107.09 41.1793 109.2 39.4393C111.31 37.6993 113.99 34.6093 116.15 32.6793C118.18 30.8693 119.48 28.6393 120.7 29.0193C121.45 29.2493 121.73 30.0993 121.36 31.0793C120.99 32.0593 117.75 36.8093 117.18 37.7393C116.62 38.6793 113.05 43.6493 113.05 43.6493C113.05 43.6493 115.54 42.8093 117.55 41.6793C118.71 41.0293 122.29 39.3793 123.18 40.4093C124.29 41.6893 119.71 44.4893 117.74 45.8493C115.77 47.2093 111.22 50.8693 111.22 50.8693C111.22 50.8693 112.3 50.9593 113.85 50.9593C115.4 50.9593 116.9 51.1893 116.67 52.3693C116.44 53.5393 113.1 54.1493 110.99 55.1893C108.88 56.2193 103.95 57.9093 103.95 57.9093L93.67 63.5393L86.07 70.9093C86.07 70.9093 92.55 71.0993 94.05 70.6793C95.55 70.2593 97.94 68.9393 99.12 68.7093C100.29 68.4793 104.85 71.0093 108.27 72.5093C111.69 74.0093 113.85 75.1993 113.71 75.9393C113.4 77.6093 110.24 77.0193 108.5 76.6393C106.76 76.2593 99.26 73.3093 99.26 73.3093C99.26 73.3093 98.44 74.0393 97.66 74.5493C96.57 75.2793 95.13 75.9293 95.13 75.9293C95.13 75.9293 97.48 76.0193 98.51 76.6793C99.54 77.3393 100.01 78.8393 100.57 80.4293C101.13 82.0293 104.04 87.1893 105.26 88.9693C106.48 90.7493 109.01 94.2693 108.36 95.2093C107.7 96.1493 106.86 95.9593 106.2 95.5893C105.54 95.2093 101.23 90.0093 99.63 87.9393C98.03 85.8793 94.56 80.8093 94.56 80.8093C94.56 80.8093 93.01 81.1693 92.31 81.2793C91.37 81.4193 89.21 81.5593 89.21 81.5593C89.21 81.5593 91.35 82.2593 91.65 84.0893C91.86 85.3493 93.2 88.9693 93.57 90.5693C93.95 92.1693 96.62 97.3293 96.81 98.1693C97 99.0093 96.93 101.549 96.74 103.239C96.55 104.929 96.43 107.929 94.84 107.739C93.24 107.549 93.15 100.229 93.15 100.229C93.15 100.229 90.33 95.9593 89.21 93.5193C88.08 91.0793 86.86 85.8693 86.86 85.8693C86.86 85.8693 84.09 86.0993 83.06 86.0993C82.03 86.0993 79.73 85.8693 79.73 85.8693C79.73 85.8693 81.61 95.7193 81.04 100.979C80.48 106.239 79.12 112.519 77.52 112.519C75.92 112.519 76.14 109.379 76.04 106.839C75.95 104.309 76.53 103.319 76.25 98.9993C75.97 94.6793 73.81 87.0793 73.81 87.0793C73.81 87.0793 66.16 87.8293 62.64 87.0793C60.25 86.5693 55.7 85.6193 53.58 83.6493C52.27 82.4293 52.13 81.1593 52.13 81.1593L45.51 81.0193L31.29 80.1293L25.05 74.8693C25.05 74.8693 23.22 75.8993 21.84 77.5893C20.46 79.2793 19 80.6893 18.6 84.1393C18.2 87.5893 18.39 91.5793 18.39 91.5793C18.39 91.5793 21.35 92.4693 23.97 93.7393C26.88 95.1493 31.21 98.9693 32.89 100.869C35 103.259 36.93 107.249 36.46 107.819C35.99 108.379 31.84 107.369 30.45 106.879C29.08 106.389 25.01 104.349 25.01 104.349C25.01 104.349 27.07 106.789 28.2 108.199C29.33 109.609 33.17 114.859 33.08 115.709C32.99 116.549 24.82 116.039 19 113.649C13.56 111.409 8.72001 105.629 7.64001 101.359C6.69001 97.5893 7.69001 92.5593 7.69001 92.5593L6.63 89.9993C6.63 89.9993 5.25001 87.4793 4.73001 83.7593C4.27001 80.4193 4.13001 72.1093 7.60001 66.3893ZM61.05 80.5093C62.55 81.1193 64.62 81.0293 64.62 81.0293C64.62 81.0293 62.85 80.1993 62.23 79.7593C61.43 79.1993 60.59 78.6793 59.7 78.9593C58.81 79.2393 59.55 79.8993 61.05 80.5093Z" fill="#FE6117"/>
<path d="M101.69 46.9306C102.06 46.9306 102.43 46.7806 102.7 46.4806C103.21 45.9206 103.18 45.0506 102.62 44.5406C102.19 44.1506 91.9899 34.8406 82.6499 31.3106C74.3499 28.1806 66.4799 26.7606 58.5699 27.0006C55.8399 27.0806 51.6399 27.5106 47.1999 27.9706C41.1699 28.5906 34.34 29.3106 29.91 29.2506C22.38 29.1606 17.21 27.9806 17.16 27.9706C16.8091 27.9004 16.4446 27.9696 16.1439 28.1636C15.8432 28.3576 15.6299 28.6611 15.5492 29.0097C15.4686 29.3583 15.5269 29.7247 15.7119 30.031C15.8968 30.3374 16.1939 30.5596 16.5399 30.6506C16.7599 30.7006 22.0299 31.9006 29.8799 32.0006C34.4699 32.0706 41.3899 31.3406 47.4899 30.7106C51.8799 30.2606 56.02 29.8306 58.66 29.7506C66.2 29.5206 73.7299 30.8806 81.6899 33.8806C90.5299 37.2206 100.67 46.4706 100.77 46.5606C101.016 46.8007 101.346 46.9337 101.69 46.9306Z" fill="#FE6117"/>
<path d="M106.85 43.1691C107.096 43.1691 107.338 43.103 107.549 42.9777C107.761 42.8525 107.935 42.6727 108.054 42.4571C108.172 42.2415 108.231 41.998 108.223 41.7521C108.215 41.5062 108.142 41.2669 108.01 41.0591C107.82 40.7591 103.35 33.7291 96.67 29.7291C90.61 26.0991 81.06 21.6291 69.95 20.9991C59.84 20.4191 51.52 20.1491 43.78 20.1491C36.82 20.1491 31.23 19.5991 28.78 19.0591C26.47 18.5491 24.18 17.3291 24.16 17.3091C23.49 16.9491 22.66 17.1991 22.3 17.8691C21.94 18.5391 22.19 19.3691 22.86 19.7291C22.97 19.7891 25.5 21.1391 28.19 21.7391C30.79 22.3191 36.61 22.8991 43.79 22.8991C51.48 22.8991 59.75 23.1691 69.8 23.7391C80.35 24.3391 89.47 28.6091 95.26 32.0891C101.38 35.7591 105.65 42.4591 105.69 42.5291C105.95 42.9491 106.4 43.1691 106.85 43.1691Z" fill="#FE6117"/>
<path d="M18.3 88.6295C18.3 88.6295 15.92 90.6295 12.97 91.0895C9.38002 91.6495 6.63001 90.0295 6.63001 90.0295L7.55002 93.6195C7.55002 93.6195 10.13 94.7695 13.65 94.0695C16.45 93.5095 18.39 91.9295 18.39 91.9295L18.3 88.6295ZM19.47 80.9095C19.47 80.9095 14.54 80.9795 10.88 79.7095C6.99001 78.3595 4.73002 75.2995 4.73002 75.2995L4.45001 79.8495C4.45001 79.8495 5.88002 81.8695 10.18 83.4195C13.2 84.5095 18.6 84.1895 18.6 84.1895L19.47 80.9095ZM43.87 51.6495L47.23 53.0995C47.23 53.0995 40.56 59.9895 39.79 65.8895C38.95 72.3695 41.27 76.8595 41.9 78.2795C42.46 79.5495 43.17 80.7395 43.17 80.7395L47.11 81.0195C47.11 81.0195 46.13 85.4395 41.2 85.6695C35.15 85.9495 34.16 80.8795 34.16 80.8795C34.16 80.8795 31.84 85.1695 26.98 83.0595C22.12 80.9495 24.16 76.0195 24.16 76.0195L21.84 77.6395C21.84 77.6395 17.51 75.7995 14.73 70.3895C12.27 65.5995 12.17 61.5195 12.5 61.2895C12.83 61.0595 13.81 60.8195 13.81 60.8195C13.81 60.8195 14.47 58.0995 14.82 57.8895C14.8 58.8295 14.94 63.0795 16.27 66.8095C17.35 69.8095 19.1 72.3395 21.2 73.7795C22.54 74.6995 23.59 74.5495 23.59 74.5495C23.59 74.5495 20.63 68.9895 22.11 60.7495C23.37 53.7495 28.3 49.9295 28.3 49.9295L32.73 49.7695C32.73 49.7695 26.96 53.0795 25.48 61.8795C24.33 68.7495 26.89 75.1795 28.51 76.5195C30.13 77.8595 39.07 79.6895 39.07 79.6895C39.07 79.6895 35.41 72.5095 36.25 66.0995C37.14 59.5595 40.99 54.3295 43.87 51.6495ZM86.32 58.2895C87.13 59.3695 86.11 60.6095 83.29 61.6695C80.47 62.7295 76.24 63.0495 73.65 63.2895C70.55 63.5695 64.5 62.7995 63.37 62.2995C62.24 61.8095 61.89 60.3295 62.53 59.6295C63.17 58.9295 64.71 59.2095 65.91 59.5595C67.11 59.9095 69.22 60.3595 73.44 60.1895C77.1 60.0495 81.71 59.3895 83.01 58.7795C84.07 58.2895 85.48 57.1695 86.32 58.2895Z" fill="#FE8E06"/>
<path d="M103.94 57.9402C103.94 57.9402 97.0899 68.9202 82.2599 72.8602C70.6699 75.9402 64.2399 72.9502 62.5499 72.0202C60.8599 71.0802 59.0099 69.0602 59.5499 67.2302C60.2099 64.9802 64.3099 65.1202 71.5399 65.6802C78.7699 66.2402 91.1799 62.5402 93.8099 61.6002C96.4399 60.6602 103.1 57.6602 103.94 57.9402Z" fill="#FE8E06"/>
<path d="M89.96 52.5897C91.21 54.4397 94.46 54.9097 96.26 53.4897C98.01 52.1097 98.16 49.7397 96.91 47.8997C95.66 46.0597 92.75 45.4297 90.9 46.6797C89.05 47.9297 88.71 50.7497 89.96 52.5897Z" fill="#302C30"/>
<path d="M28.8458 49.1847C29.286 48.9457 31.1681 49.7989 33.7588 50.1671C36.3498 50.528 49.8663 50.4993 49.8663 50.4993C49.8663 50.4993 50.0571 54.6805 49.0142 59.0175C47.9713 63.3544 46.8888 66.1788 45.1482 66.2702C43.4078 66.3542 39.419 66.6633 35.098 66.1301C30.7844 65.59 27.5282 64.1021 26.5349 62.0304C25.5415 59.9587 25.7929 56.7415 26.4259 54.5665C27.5061 50.9059 28.2219 49.5264 28.8458 49.1847Z" fill="#37B5E1"/>
<path d="M39.6958 53.5282C39.6958 53.5282 36.7372 53.5633 35.0363 52.6661C33.3357 51.7615 31.757 50.5025 31.5285 49.7598C31.3 49.0172 31.4974 48.0349 32.8125 48.3518C34.1276 48.6688 36.427 49.8541 38.0454 50.1245C39.6639 50.395 43.0295 50.589 43.0295 50.589L45.1425 58.911L44.3971 78.6997C44.3971 78.6997 42.6107 78.6792 41.4007 78.4251C40.1836 78.1708 38.4232 77.682 38.4232 77.682L39.6958 53.5282Z" fill="#0468A6"/>
<path d="M65.6477 50.8901C65.6233 50.7111 70.3193 48.8717 71.2389 48.7578C72.1261 48.7171 72.7364 48.7822 73.0376 48.9612C73.3224 49.1159 73.5259 49.3845 73.6073 49.7019C73.6805 49.9867 73.6398 50.2878 73.5096 50.4994C73.4771 50.5483 73.5096 50.7192 73.6073 50.8006C73.9491 51.0773 74.1444 51.4435 74.177 51.826C74.2095 52.2818 74.0305 52.5585 73.7375 52.8434C74.0793 53.1526 74.2421 53.3317 74.234 53.82C74.2014 54.4304 73.7456 54.7478 73.7375 54.7234C73.7456 54.756 73.9817 55.049 73.8921 55.521C73.827 55.9198 73.2655 56.2697 72.7771 56.4814C72.4597 56.6116 72.3377 56.5872 71.8656 56.6604C70.3355 57.0918 66.6569 56.3349 66.4941 56.3023C66.3232 56.2698 66.1848 56.1233 66.1767 55.9442L65.6477 50.8901Z" fill="url(#paint0_linear_77_87)"/>
<path d="M61.2203 24.0732C63.2712 21.5828 67.365 19.9957 70.4414 20.9398C73.8922 21.9978 75.4466 24.7975 75.5117 28.0937C75.5362 29.2819 75.349 30.4457 75.0316 31.2433C74.9909 31.3329 74.706 32.0328 74.6572 32.2525C74.4049 33.1071 75.9675 34.1977 76.0408 35.1824C76.0896 35.9231 74.5188 36.1835 74.3805 36.2893C73.6968 36.859 74.0468 40.3505 69.8635 40.0982C68.2602 40.0005 68.0079 39.5773 67.5033 39.5203C64.8501 39.2274 62.7748 40.8795 62.7748 40.8795L58.5671 35.9068C58.5671 35.9068 61.2691 33.9128 61.1633 33.6198C60.1785 30.812 59.8937 25.6765 61.2203 24.0732Z" fill="#FFCA28"/>
<path d="M73.7213 37.9569C73.1434 37.9163 72.5982 37.6965 72.1668 37.2733C71.6866 36.8094 72.1098 36.4187 72.6795 36.7606C73.0214 36.9722 73.5341 37.1187 74.0143 37.0942L73.7213 37.9569Z" fill="#795548"/>
<path d="M71.8339 33.5462C71.4172 33.4763 71.1663 32.9021 71.2735 32.2638C71.3806 31.6255 71.8053 31.1647 72.222 31.2347C72.6386 31.3046 72.8896 31.8788 72.7824 32.5171C72.6752 33.1554 72.2506 33.6162 71.8339 33.5462Z" fill="#404040"/>
<path d="M72.7608 30.886C73.4282 31.2767 73.7212 30.8535 73.5828 30.414C73.477 30.0884 73.1026 29.7385 72.2155 29.6815C71.3772 29.6245 70.9377 30.007 70.6529 30.2268C70.368 30.4465 70.3192 30.7395 70.4983 30.8046C70.7343 30.8942 71.9388 30.3977 72.7608 30.886Z" fill="#6D4C41"/>
<path d="M65.5989 31.9734L65.1269 30.9072C64.8176 30.2968 64.5327 29.7515 64.0037 29.7759C62.4492 29.8329 62.2376 32.5512 63.9061 33.4628C63.9061 33.4628 63.255 35.416 61.2691 35.5869C61.0575 35.6032 60.8785 35.6032 60.7157 35.5951C60.1948 35.5625 59.8611 35.0986 59.8123 34.5859C59.5275 31.3548 58.3799 31.7862 58.3067 28.0668C58.209 22.9639 63.1573 20.4653 67.4219 20.8804C69.0822 21.0432 70.7344 21.5803 72.1261 22.5163C72.7202 22.9069 74.7467 24.4451 75.0479 25.5927C75.4385 27.0495 74.4456 28.0668 74.4456 28.0668C74.4456 28.0668 70.1077 27.0088 68.0242 27.1065C67.7475 27.1227 67.4301 27.1553 67.2755 27.3832C67.2022 27.4808 67.0638 28.1482 67.0313 28.2703C66.6813 29.7841 66.6569 30.777 66.0384 31.6641C65.9407 31.8106 65.5989 31.9734 65.5989 31.9734Z" fill="#543930"/>
<path d="M31.1155 46.3868C31.4003 44.3766 32.4095 41.5606 34.3628 39.9899C35.9579 39.6725 37.0567 41.113 38.8553 42.3501C38.9367 42.3501 39.0181 42.3745 39.0913 42.4233C39.0913 42.4233 47.9299 47.5425 54.099 52.8652C54.7908 53.4593 55.7267 54.3464 56.1418 55.1522C56.5894 55.9986 57.1266 57.0648 56.4185 58.432C55.7105 59.7993 51.5191 64.9918 51.5191 64.9918C51.4865 65.1871 44.4221 64.8697 44.4059 64.6663C44.3652 64.1617 44.4221 62.9978 45.9522 58.2367C43.3641 56.9915 34.6965 54.1755 31.8479 50.4969C31.0503 49.2272 30.8387 47.7541 31.1155 46.3868Z" fill="#C8C8C8"/>
<path d="M40.7108 66.6445L45.4719 58.392C45.537 58.3024 45.6266 58.2292 45.7324 58.2129C45.8382 58.1966 45.9603 58.2129 46.0416 58.278L53.2606 63.5844C53.3502 63.6495 53.4071 63.739 53.4315 63.853C53.4682 64.0239 53.4234 64.0727 53.3583 64.1623L47.4334 71.072L49.3297 73.7577C50.0866 74.8971 50.0703 76.3621 49.2971 77.4852C49.2971 77.4852 48.6135 78.6165 48.0356 78.7142C47.7915 78.7549 47.5066 78.7793 47.1892 78.5188L37.8623 71.9916C37.317 71.6091 37.3333 70.7302 37.9193 69.5338C38.3669 68.606 40.312 66.9701 40.7108 66.6445Z" fill="#444444"/>
<path d="M67.0801 33.6758C67.0557 36.565 67.5196 38.3148 67.9835 39.6821C66.2907 39.56 65.7779 36.744 65.3873 34.4896C65.0048 32.2434 65.0455 30.0378 65.0455 30.0378L67.7394 29.582C67.7312 29.5902 67.0801 32.1538 67.0801 33.6758Z" fill="#2A2725"/>
<path d="M66.7138 19.0016C66.9905 18.9934 67.7067 19.0179 67.9672 19.0504C69.4647 19.2376 71.4261 19.9538 72.6387 20.8653C74.3723 22.1757 75.8047 23.8197 77.0011 25.5369C77.6033 26.3996 80.7692 26.9612 80.3298 28.2796C79.4345 30.9328 74.0142 28.4831 72.1179 28.7354C70.6936 28.9226 69.3589 29.5086 67.959 29.8016C65.436 30.3306 62.9049 30.6887 60.3412 30.9491C59.975 30.9898 59.6169 30.9898 59.2425 30.9817C58.6728 30.9654 58.0054 31.0631 57.8589 30.4364C57.6962 29.7527 57.452 28.9226 57.4195 28.2308C57.2079 23.6081 60.8865 19.1399 66.7138 19.0016Z" fill="#5D6266"/>
<path d="M65.6721 50.8871C65.6477 50.708 65.9895 50.0244 66.5511 48.9989C67.0638 48.0629 67.2836 47.7211 68.7485 47.4118C69.3752 47.2816 70.9215 47.2165 70.9866 47.4688C71.2389 48.421 70.2297 48.7303 70.2786 48.7629C71.7598 48.7466 72.0772 49.0884 72.1505 49.65C72.2644 50.4964 71.7761 50.5045 71.8331 50.7731C71.89 51.0498 72.5981 50.9684 72.5574 52.0102C72.5737 52.6776 72.0284 52.6938 72.0447 53.1252C72.0609 53.5565 72.8097 53.3775 72.8585 54.1018C72.9074 54.8262 72.1667 54.8343 72.1586 55.1354C72.1423 55.4366 72.9969 55.7377 72.6795 56.4458C72.5981 56.6085 72.0854 56.6085 71.8656 56.6411C70.2379 57.1213 66.6569 56.3155 66.4941 56.283C66.3232 56.2504 66.1848 56.1039 66.1767 55.9249L65.6721 50.8871Z" fill="url(#paint1_linear_77_87)"/>
<path d="M34.3138 39.9664C34.3138 39.9664 42.1188 33.5857 49.4924 32.8776C56.866 32.1696 59.0716 32.5846 59.8529 33.5776C60.6342 34.5705 60.6342 36.9144 61.7004 38.4689C62.7665 40.0315 64.0443 40.1699 64.0443 40.1699C64.0443 40.1699 63.9059 42.8638 63.6211 45.346C63.3362 47.8283 62.6282 49.9525 62.6282 49.9525L65.6883 50.9454C65.6883 50.9454 66.1766 51.7919 66.315 53.3545C66.4533 54.9171 66.5184 56.3495 66.5184 56.3495C66.5184 56.3495 66.315 56.9762 63.6862 56.9762C61.0655 56.9762 56.7195 56.6751 56.0114 55.4705C54.164 52.329 54.7499 46.1192 54.7499 46.1192C54.7499 46.1192 51.6328 46.9005 49.8586 47.1121C48.0844 47.3237 46.7741 47.6574 45.1789 46.4041C44.2348 45.6553 39.5063 42.644 38.1552 41.936C36.7961 41.2442 34.3138 39.9664 34.3138 39.9664Z" fill="#FF8E00"/>
<defs>
<linearGradient id="paint0_linear_77_87" x1="65.8796" y1="53.2804" x2="74.2405" y2="52.4682" gradientUnits="userSpaceOnUse">
<stop offset="0.19" stop-color="#FFB300"/>
<stop offset="0.936" stop-color="#FFB300"/>
</linearGradient>
<linearGradient id="paint1_linear_77_87" x1="72.1183" y1="51.6282" x2="66.7178" y2="52.8235" gradientUnits="userSpaceOnUse">
<stop offset="0.5" stop-color="#FFCA28"/>
<stop offset="0.952" stop-color="#FFCA28"/>
</linearGradient>
</defs>
</svg>
