<svg width="128" height="128" viewBox="0 0 128 128" fill="none" xmlns="http://www.w3.org/2000/svg">
<path d="M95.4 5.38005C95.87 6.24005 95.31 7.35005 93.24 8.20005C91.18 9.04005 86.76 10.9201 85.45 12.9901C84.14 15.0601 83.48 16.7401 84.89 20.2201C86.3 23.7001 82.92 24.2601 82.92 24.2601C82.92 24.2601 79.45 20.1301 81.51 14.2201C83.57 8.31005 90.71 5.87005 91.74 5.49005C92.77 5.10005 94.84 4.35005 95.4 5.38005Z" fill="#70853C"/>
<path d="M87.9634 103.719C85.758 101.846 85.5442 98.4738 87.486 96.1884C89.4277 93.903 92.7897 93.5693 94.9951 95.4431C97.2005 97.3169 97.4143 100.689 95.4726 102.974C93.5308 105.259 90.1689 105.593 87.9634 103.719Z" fill="#70853C"/>
<path d="M71.1017 111.649C69.8443 109.043 71.0146 105.874 73.7156 104.571C76.4167 103.268 79.6256 104.324 80.8831 106.931C82.1405 109.537 80.9702 112.707 78.2691 114.01C75.5681 115.313 72.3591 114.256 71.1017 111.649Z" fill="#70853C"/>
<path d="M50.3643 113.806C49.9021 110.949 51.9274 108.245 54.8878 107.766C57.8482 107.287 60.6228 109.215 61.0849 112.071C61.5471 114.928 59.5218 117.632 56.5614 118.111C53.601 118.59 50.8264 116.662 50.3643 113.806Z" fill="#70853C"/>
<path d="M31.3619 117.61C30.8998 114.753 32.925 112.049 35.8854 111.57C38.8458 111.092 41.6204 113.019 42.0825 115.876C42.5447 118.733 40.5194 121.437 37.559 121.916C34.5986 122.395 31.824 120.467 31.3619 117.61Z" fill="#70853C"/>
<path d="M104.2 57.9401C101.361 57.9401 99.06 55.7328 99.06 53.0101C99.06 50.2873 101.361 48.0801 104.2 48.0801C107.039 48.0801 109.34 50.2873 109.34 53.0101C109.34 55.7328 107.039 57.9401 104.2 57.9401Z" fill="#70853C"/>
<path d="M103.078 73.2716C100.25 73.0309 98.144 70.6366 98.3748 67.9236C98.6056 65.2106 101.086 63.2064 103.914 63.4471C106.743 63.6877 108.849 66.0821 108.618 68.7951C108.387 71.508 105.907 73.5122 103.078 73.2716Z" fill="#70853C"/>
<path d="M98.0341 89.9149C95.2149 88.9421 93.7356 85.8173 94.7301 82.9354C95.7245 80.0535 98.8161 78.506 101.635 79.4788C104.455 80.4516 105.934 83.5764 104.939 86.4583C103.945 89.3402 100.853 90.8877 98.0341 89.9149Z" fill="#70853C"/>
<path d="M72.59 73.5706C66.4 83.9906 47.25 83.8506 29.09 89.7606C17.17 93.6406 9.79998 102.851 11.21 111.441C12.62 120.031 18.68 122.241 23.88 122.001C30.07 121.721 37.54 116.511 43.17 115.241C48.8 113.971 71.09 111.771 76.96 109.331C83.72 106.511 92.45 100.461 97.65 91.4506C102.57 82.9306 103.56 67.5206 103.7 60.4806C103.84 53.4406 103.56 46.6806 104.12 44.9906C104.68 43.3006 114.15 43.2206 116.09 34.7106C118.2 25.4206 111.44 15.5606 101.45 13.7306C91.46 11.9006 78.93 16.6906 75.55 28.2306C72.17 39.7806 77.3 65.6506 72.59 73.5706Z" fill="#B7D019"/>
<path d="M97.28 62.2603C97.92 63.7803 96.1 64.9103 93.53 65.1203C90.15 65.4003 85.06 64.0603 81.19 62.5903C77.15 61.0503 74.64 59.1403 74.64 59.1403L74.71 54.8503C74.71 54.8503 77.46 57.5203 83.77 59.4503C86.79 60.3703 91.09 61.3303 92.55 61.3703C93.99 61.4103 96.76 61.0403 97.28 62.2603ZM82.87 4.77025C83.8 5.49025 83.22 6.71025 82.45 7.77025C81.56 8.99025 79.49 11.7103 79.4 14.2903C79.34 15.8403 79.87 20.0003 80.57 21.1403C81.74 23.0603 79.21 24.4703 77.94 23.6703C76.39 22.7003 75.74 16.3403 76.02 13.6303C76.49 8.94025 79.16 6.73025 80.1 5.79025C80.86 5.05025 82.03 4.12025 82.87 4.77025ZM29.94 89.4703C29.94 89.4703 29.75 96.2602 30.78 99.8402C31.95 103.92 33.41 107.11 34.16 108.62C34.48 109.26 34.72 110.17 33.93 110.78C33.14 111.39 31.77 110.92 31.21 110.08C30.54 109.07 28.25 105.29 27.22 100.6C25.83 94.2703 26.28 90.7002 26.28 90.7002C26.28 90.7002 27.64 90.1403 28.16 90.0003C28.67 89.8503 29.94 89.4703 29.94 89.4703ZM46.93 85.2503C46.93 85.2503 46.74 90.4603 47.92 94.8703C48.72 97.8703 50.78 102 51.2 102.85C51.62 103.69 52.54 105.1 51.67 106.18C50.42 107.74 48.41 105.85 47.75 104.4C47.32 103.44 45.35 100.21 44.16 95.6203C42.8 90.3603 43.17 86.0902 43.17 86.0902L46.93 85.2503ZM63.68 80.7002C63.68 80.7002 64.17 87.4303 65.79 90.4603C68.32 95.2003 71.56 97.7802 71.98 98.2002C72.4 98.6202 74 100.02 72.45 101.11C71.18 102 69.63 101.11 69.21 100.73C68.79 100.35 64.19 97.3203 61.98 91.3903C60.2 86.6003 60.1 82.0003 60.1 82.0003C60.1 82.0003 61.55 81.4403 61.93 81.3003C62.32 81.1703 63.68 80.7002 63.68 80.7002ZM73.51 71.4502C73.51 71.4502 77.38 76.0503 80.06 77.9303C83.37 80.2603 87.47 81.5403 88.84 81.6803C90.2 81.8203 92.08 81.9602 91.84 83.7402C91.61 85.5202 89.03 85.4303 87.66 85.4303C85.55 85.4303 80.53 83.4402 77.31 81.0902C74.24 78.8502 71.4 75.3203 71.4 75.3203C71.4 75.3203 72.6 73.8203 72.74 73.3503C72.88 72.8903 73.51 71.4502 73.51 71.4502Z" fill="#70853C"/>
<path d="M95.83 58.1102C94.1179 58.1102 92.73 56.7222 92.73 55.0102C92.73 53.2981 94.1179 51.9102 95.83 51.9102C97.5421 51.9102 98.93 53.2981 98.93 55.0102C98.93 56.7222 97.5421 58.1102 95.83 58.1102Z" fill="#FE6014"/>
<path d="M95.13 78.0301C93.4179 78.0301 92.03 76.6422 92.03 74.9301C92.03 73.218 93.4179 71.8301 95.13 71.8301C96.8421 71.8301 98.23 73.218 98.23 74.9301C98.23 76.6422 96.8421 78.0301 95.13 78.0301Z" fill="#FE6014"/>
<path d="M81.61 97.8406C79.8979 97.8406 78.51 96.4527 78.51 94.7406C78.51 93.0285 79.8979 91.6406 81.61 91.6406C83.3221 91.6406 84.71 93.0285 84.71 94.7406C84.71 96.4527 83.3221 97.8406 81.61 97.8406Z" fill="#FE6014"/>
<path d="M59.52 106.17C57.9294 106.17 56.64 104.903 56.64 103.34C56.64 101.777 57.9294 100.51 59.52 100.51C61.1106 100.51 62.4 101.777 62.4 103.34C62.4 104.903 61.1106 106.17 59.52 106.17Z" fill="#FE6014"/>
<path d="M40.99 110.501C39.416 110.501 38.14 109.283 38.14 107.781C38.14 106.278 39.416 105.061 40.99 105.061C42.564 105.061 43.84 106.278 43.84 107.781C43.84 109.283 42.564 110.501 40.99 110.501Z" fill="#FE6014"/>
<path d="M24.31 115.7C22.736 115.7 21.46 114.482 21.46 112.98C21.46 111.478 22.736 110.26 24.31 110.26C25.884 110.26 27.16 111.478 27.16 112.98C27.16 114.482 25.884 115.7 24.31 115.7Z" fill="#FE6014"/>
<path d="M18.9 96.0493C21.12 94.9593 22.74 98.6093 23.71 102.539C24.68 106.469 25.58 109.119 23.14 109.909C20.16 110.869 18.02 106.459 17.28 103.059C16.54 99.6593 16.87 97.0393 18.9 96.0493ZM35.01 88.8393C38.53 87.8493 39.03 92.6293 39.87 96.3693C40.75 100.309 42.97 103.789 39.8 104.749C35.86 105.949 33.82 100.899 33.11 97.7093C32.37 94.3993 31.65 89.7793 35.01 88.8393ZM53.17 84.3393C56.85 83.3493 57.35 88.0493 58.52 92.0593C59.69 96.0993 60.17 99.5293 57.96 100.319C55.33 101.259 53.13 98.2593 51.91 94.1693C50.68 90.0793 49.36 85.3493 53.17 84.3393ZM78.13 92.6893C75.63 95.3893 71.69 92.0093 69.64 89.1193C67.67 86.3493 64.11 81.7293 67.25 79.3593C69.92 77.3393 73.27 81.5593 75.27 84.1893C77.05 86.5393 80.52 90.1093 78.13 92.6893ZM91.74 73.6593C91.14 76.0693 85.45 76.7593 80.99 74.1793C77.84 72.3593 74.19 69.5293 75.03 66.2493C75.91 62.8093 81.32 65.9193 84.46 67.1893C87.61 68.4493 92.77 69.5293 91.74 73.6593ZM75.2 48.1593C75.9 45.7693 79.68 48.2793 83.86 49.6393C87.59 50.8593 92.73 50.6293 92.45 54.5193C92.2 57.9393 84.44 56.5193 81.47 55.4093C77.94 54.0893 74.2 51.5393 75.2 48.1593Z" fill="#2E2E27"/>
<path d="M94.1632 28.5457C93.216 26.9052 93.6851 24.8611 95.2108 23.9802C96.7366 23.0993 98.7413 23.7152 99.6884 25.3557C100.636 26.9962 100.167 29.0403 98.6408 29.9212C97.1151 30.8021 95.1104 30.1862 94.1632 28.5457Z" fill="#2E2E27"/>
<path d="M49.8032 82.8381C50.0855 82.4243 52.1494 82.3224 54.6217 81.4652C57.091 80.6015 69.0986 74.3954 69.0986 74.3954C69.0986 74.3954 71.1801 78.0266 72.2358 82.3605C73.2915 86.6943 73.6202 89.7011 72.114 90.5783C70.6047 91.4489 67.1986 93.5477 63.112 95.0494C59.0288 96.5414 55.4526 96.7071 53.6219 95.3189C51.7912 93.9307 50.5436 90.9546 50.112 88.7309C49.3988 84.9814 49.4046 83.4272 49.8032 82.8381Z" fill="#37B5E1"/>
<path d="M61.4385 81.7397C61.4385 81.7397 58.8234 83.1237 56.9005 83.1035C54.9745 83.0767 52.9948 82.6789 52.4519 82.1229C51.9091 81.5669 51.6355 80.6031 52.95 80.2836C54.2645 79.9641 56.8514 79.9668 58.4144 79.4673C59.9774 78.9678 63.0593 77.6013 63.0593 77.6013L68.7437 84.0361L77.1294 101.976C77.1294 101.976 75.5314 102.774 74.3391 103.102C73.1404 103.432 71.3513 103.802 71.3513 103.802L61.4385 81.7397Z" fill="#0468A6"/>
<path d="M86.6476 76.8901C86.6232 76.7111 91.3192 74.8717 92.2389 74.7578C93.126 74.7171 93.7364 74.7822 94.0375 74.9612C94.3224 75.1159 94.5258 75.3845 94.6072 75.7019C94.6805 75.9867 94.6398 76.2878 94.5096 76.4994C94.477 76.5483 94.5096 76.7192 94.6072 76.8006C94.949 77.0773 95.1444 77.4435 95.1769 77.826C95.2095 78.2818 95.0304 78.5585 94.7374 78.8434C95.0793 79.1526 95.242 79.3317 95.2339 79.82C95.2013 80.4304 94.7456 80.7478 94.7374 80.7234C94.7456 80.756 94.9816 81.049 94.8921 81.521C94.827 81.9198 94.2654 82.2697 93.7771 82.4814C93.4597 82.6116 93.3376 82.5872 92.8656 82.6604C91.3355 83.0918 87.6568 82.3349 87.494 82.3023C87.3231 82.2698 87.1848 82.1233 87.1766 81.9442L86.6476 76.8901Z" fill="url(#paint0_linear_77_94)"/>
<path d="M82.2203 50.0732C84.2712 47.5828 88.365 45.9957 91.4414 46.9398C94.8922 47.9978 96.4466 50.7975 96.5117 54.0937C96.5362 55.2819 96.349 56.4457 96.0316 57.2433C95.9909 57.3329 95.706 58.0328 95.6572 58.2525C95.4049 59.1071 96.9675 60.1977 97.0408 61.1824C97.0896 61.9231 95.5188 62.1835 95.3805 62.2893C94.6968 62.859 95.0468 66.3505 90.8635 66.0982C89.2602 66.0005 89.0079 65.5773 88.5033 65.5203C85.8501 65.2274 83.7748 66.8795 83.7748 66.8795L79.5671 61.9068C79.5671 61.9068 82.2691 59.9128 82.1633 59.6198C81.1785 56.812 80.8937 51.6765 82.2203 50.0732Z" fill="#FFCA28"/>
<path d="M94.7213 63.9569C94.1434 63.9163 93.5982 63.6965 93.1668 63.2733C92.6866 62.8094 93.1098 62.4187 93.6795 62.7606C94.0214 62.9722 94.5341 63.1187 95.0143 63.0942L94.7213 63.9569Z" fill="#795548"/>
<path d="M92.8339 59.5462C92.4172 59.4763 92.1663 58.9021 92.2735 58.2638C92.3806 57.6255 92.8053 57.1647 93.222 57.2347C93.6386 57.3046 93.8896 57.8788 93.7824 58.5171C93.6752 59.1554 93.2506 59.6162 92.8339 59.5462Z" fill="#404040"/>
<path d="M93.7608 56.886C94.4282 57.2767 94.7212 56.8535 94.5828 56.414C94.477 56.0884 94.1026 55.7385 93.2155 55.6815C92.3772 55.6245 91.9377 56.007 91.6529 56.2268C91.368 56.4465 91.3192 56.7395 91.4983 56.8046C91.7343 56.8942 92.9388 56.3977 93.7608 56.886Z" fill="#6D4C41"/>
<path d="M86.5989 57.9734L86.1269 56.9072C85.8176 56.2968 85.5327 55.7515 85.0037 55.7759C83.4492 55.8329 83.2376 58.5512 84.9061 59.4628C84.9061 59.4628 84.255 61.416 82.2691 61.5869C82.0575 61.6032 81.8785 61.6032 81.7157 61.5951C81.1948 61.5625 80.8611 61.0986 80.8123 60.5859C80.5275 57.3548 79.3799 57.7862 79.3067 54.0668C79.209 48.9639 84.1573 46.4653 88.4219 46.8804C90.0822 47.0432 91.7344 47.5803 93.1261 48.5163C93.7202 48.9069 95.7467 50.4451 96.0479 51.5927C96.4385 53.0495 95.4456 54.0668 95.4456 54.0668C95.4456 54.0668 91.1077 53.0088 89.0242 53.1065C88.7475 53.1227 88.4301 53.1553 88.2755 53.3832C88.2022 53.4808 88.0638 54.1482 88.0313 54.2703C87.6813 55.7841 87.6569 56.777 87.0384 57.6641C86.9407 57.8106 86.5989 57.9734 86.5989 57.9734Z" fill="#543930"/>
<path d="M52.1155 72.3868C52.4003 70.3766 53.4095 67.5606 55.3628 65.9899C56.9579 65.6725 58.0567 67.113 59.8553 68.3501C59.9367 68.3501 60.0181 68.3745 60.0913 68.4233C60.0913 68.4233 68.9299 73.5425 75.099 78.8652C75.7908 79.4593 76.7267 80.3464 77.1418 81.1522C77.5894 81.9986 78.1266 83.0648 77.4185 84.432C76.7105 85.7993 72.5191 90.9918 72.5191 90.9918C72.4865 91.1871 65.4221 90.8697 65.4059 90.6663C65.3652 90.1617 65.4221 88.9978 66.9522 84.2367C64.3641 82.9915 55.6965 80.1755 52.8479 76.4969C52.0503 75.2272 51.8387 73.7541 52.1155 72.3868Z" fill="#C8C8C8"/>
<path d="M61.7109 92.6445L66.472 84.392C66.5371 84.3024 66.6266 84.2292 66.7324 84.2129C66.8382 84.1966 66.9603 84.2129 67.0417 84.278L74.2607 89.5844C74.3502 89.6495 74.4072 89.739 74.4316 89.853C74.4682 90.0239 74.4235 90.0727 74.3584 90.1623L68.4334 97.072L70.3297 99.7577C71.0866 100.897 71.0703 102.362 70.2972 103.485C70.2972 103.485 69.6135 104.617 69.0357 104.714C68.7915 104.755 68.5067 104.779 68.1893 104.519L58.8624 97.9916C58.3171 97.6091 58.3333 96.7302 58.9193 95.5338C59.367 94.606 61.3121 92.9701 61.7109 92.6445Z" fill="#444444"/>
<path d="M88.0801 59.6758C88.0557 62.565 88.5196 64.3148 88.9835 65.6821C87.2907 65.56 86.7779 62.744 86.3873 60.4896C86.0048 58.2434 86.0455 56.0378 86.0455 56.0378L88.7394 55.582C88.7312 55.5902 88.0801 58.1538 88.0801 59.6758Z" fill="#2A2725"/>
<path d="M87.7138 45.0016C87.9905 44.9934 88.7067 45.0179 88.9672 45.0504C90.4647 45.2376 92.4261 45.9538 93.6387 46.8653C95.3723 48.1757 96.8047 49.8197 98.0011 51.5369C98.6033 52.3996 101.769 52.9612 101.33 54.2796C100.435 56.9328 95.0142 54.4831 93.1179 54.7354C91.6936 54.9226 90.3589 55.5086 88.959 55.8016C86.436 56.3306 83.9049 56.6887 81.3412 56.9491C80.975 56.9898 80.6169 56.9898 80.2425 56.9817C79.6728 56.9654 79.0054 57.0631 78.8589 56.4364C78.6962 55.7527 78.452 54.9226 78.4195 54.2308C78.2079 49.6081 81.8865 45.1399 87.7138 45.0016Z" fill="#5D6266"/>
<path d="M86.672 76.8871C86.6476 76.708 86.9894 76.0244 87.551 74.9989C88.0637 74.0629 88.2835 73.7211 89.7484 73.4118C90.3751 73.2816 91.9215 73.2165 91.9866 73.4688C92.2389 74.421 91.2297 74.7303 91.2785 74.7629C92.7597 74.7466 93.0772 75.0884 93.1504 75.65C93.2643 76.4964 92.776 76.5045 92.833 76.7731C92.89 77.0498 93.598 76.9684 93.5573 78.0102C93.5736 78.6776 93.0283 78.6938 93.0446 79.1252C93.0609 79.5565 93.8096 79.3775 93.8585 80.1018C93.9073 80.8262 93.1667 80.8343 93.1585 81.1354C93.1423 81.4366 93.9968 81.7377 93.6794 82.4458C93.598 82.6085 93.0853 82.6085 92.8655 82.6411C91.2378 83.1213 87.6568 82.3155 87.494 82.283C87.3231 82.2504 87.1848 82.1039 87.1766 81.9249L86.672 76.8871Z" fill="url(#paint1_linear_77_94)"/>
<path d="M55.3138 65.9664C55.3138 65.9664 63.1188 59.5857 70.4924 58.8776C77.866 58.1696 80.0716 58.5846 80.8529 59.5776C81.6342 60.5705 81.6342 62.9144 82.7004 64.4689C83.7665 66.0315 85.0443 66.1699 85.0443 66.1699C85.0443 66.1699 84.9059 68.8638 84.6211 71.346C84.3362 73.8283 83.6282 75.9525 83.6282 75.9525L86.6883 76.9454C86.6883 76.9454 87.1766 77.7919 87.315 79.3545C87.4533 80.9171 87.5184 82.3495 87.5184 82.3495C87.5184 82.3495 87.315 82.9762 84.6862 82.9762C82.0655 82.9762 77.7195 82.6751 77.0114 81.4705C75.164 78.329 75.7499 72.1192 75.7499 72.1192C75.7499 72.1192 72.6328 72.9005 70.8586 73.1121C69.0844 73.3237 67.7741 73.6574 66.1789 72.4041C65.2348 71.6553 60.5063 68.644 59.1552 67.936C57.7961 67.2442 55.3138 65.9664 55.3138 65.9664Z" fill="#FF8E00"/>
<defs>
<linearGradient id="paint0_linear_77_94" x1="86.8796" y1="79.2804" x2="95.2404" y2="78.4682" gradientUnits="userSpaceOnUse">
<stop offset="0.19" stop-color="#FFB300"/>
<stop offset="0.936" stop-color="#FFB300"/>
</linearGradient>
<linearGradient id="paint1_linear_77_94" x1="93.1183" y1="77.6282" x2="87.7177" y2="78.8235" gradientUnits="userSpaceOnUse">
<stop offset="0.5" stop-color="#FFCA28"/>
<stop offset="0.952" stop-color="#FFCA28"/>
</linearGradient>
</defs>
</svg>
